<svg width="127" height="126" viewBox="0 0 127 126" fill="none" xmlns="http://www.w3.org/2000/svg">
<g clip-path="url(#clip0_1116_20)">
<rect width="127" height="126" rx="20" fill="white"/>
<path d="M127.352 85.552C127.352 85.552 123.269 85.0984 104.672 79.2016C99.6821 77.3872 92.8781 75.1192 85.1669 71.944C89.7029 64.2328 93.3317 55.1608 95.5997 45.1816H70.6517V36.1096H101.496V31.12H70.6517V16.1512H57.9509C55.6829 16.1512 55.6829 18.4192 55.6829 18.4192V31.12H24.8381V36.1096H56.1365V45.1816H30.2813V50.1712H80.1773C78.3629 56.5216 76.0949 62.4184 72.9197 67.8616C56.5901 62.4184 39.3533 58.336 28.9205 61.0576C22.1165 62.872 17.5805 65.5936 14.8589 68.7688C2.61173 83.284 11.6837 105.51 36.6317 105.51C51.6005 105.51 66.1157 97.3456 77.4557 83.284C94.2389 91.4488 127.352 105.057 127.352 105.057V105.964C127.352 117.304 118.28 126.376 106.94 126.376H20.3021C8.96214 126.376 -0.109863 117.304 -0.109863 105.964V19.78C-0.109863 8.44004 8.96214 -0.631958 20.3021 -0.631958H106.94C118.28 -0.631958 127.352 8.44004 127.352 19.78V85.552ZM34.3637 96.892C14.4053 96.892 8.50853 81.4696 18.4877 72.8512C21.6629 70.1296 27.5597 68.7688 30.7349 68.3152C42.5285 66.9544 53.4149 71.4904 66.1157 77.8408C57.4973 89.6344 45.7037 96.892 34.3637 96.892Z" fill="#226BF3"/>
</g>
<defs>
<clipPath id="clip0_1116_20">
<rect width="127" height="126" rx="20" fill="white"/>
</clipPath>
</defs>
</svg>
