<svg width="33" height="33" viewBox="0 0 33 33" fill="none" xmlns="http://www.w3.org/2000/svg">
<rect x="0.427734" y="0.788818" width="32" height="32" rx="6" fill="white"/>
<g clip-path="url(#clip0_743_28)">
<path d="M22.4371 20.4203C22.2223 20.4204 22.0122 20.3567 21.8336 20.2374C21.6549 20.1181 21.5156 19.9484 21.4334 19.7499C21.3511 19.5515 21.3296 19.3331 21.3714 19.1223C21.4133 18.9116 21.5167 18.718 21.6686 18.5661C21.8205 18.4141 22.0141 18.3106 22.2248 18.2687C22.4355 18.2267 22.6539 18.2482 22.8524 18.3304C23.0509 18.4126 23.2206 18.5518 23.34 18.7304C23.4594 18.909 23.5231 19.119 23.5232 19.3339C23.5229 19.6218 23.4083 19.8979 23.2047 20.1016C23.0011 20.3053 22.7251 20.4199 22.4371 20.4203ZM10.4313 20.4203C10.2164 20.4204 10.0064 20.3567 9.82773 20.2374C9.64907 20.1181 9.5098 19.9484 9.42755 19.7499C9.34529 19.5515 9.32374 19.3331 9.36561 19.1223C9.40749 18.9116 9.51091 18.718 9.6628 18.5661C9.81469 18.4141 10.0082 18.3106 10.2189 18.2687C10.4296 18.2267 10.6481 18.2482 10.8466 18.3304C11.0451 18.4126 11.2148 18.5518 11.3342 18.7304C11.4536 18.909 11.5173 19.119 11.5173 19.3339C11.5171 19.6219 11.4026 19.898 11.199 20.1017C10.9954 20.3054 10.7193 20.42 10.4313 20.4203ZM22.8266 13.8775L24.9974 10.1177C25.027 10.0664 25.0463 10.0097 25.0541 9.95086C25.0619 9.89206 25.058 9.83229 25.0427 9.77499C25.0274 9.71768 25.0009 9.66395 24.9648 9.61687C24.9287 9.56979 24.8837 9.53028 24.8324 9.50059C24.781 9.4709 24.7243 9.45161 24.6655 9.44384C24.6067 9.43606 24.5469 9.43994 24.4896 9.45526C24.4323 9.47058 24.3786 9.49704 24.3315 9.53312C24.2844 9.56921 24.2449 9.61421 24.2152 9.66557L22.0171 13.4728C20.3362 12.7056 18.4483 12.2784 16.434 12.2784C14.4196 12.2784 12.532 12.7062 10.8511 13.4728L8.65313 9.66557C8.62349 9.6142 8.58401 9.56917 8.53696 9.53306C8.48991 9.49695 8.43621 9.47046 8.37892 9.4551C8.32163 9.43974 8.26188 9.43582 8.20308 9.44355C8.14427 9.45129 8.08757 9.47053 8.0362 9.50018C7.98483 9.52983 7.93981 9.5693 7.9037 9.61635C7.86758 9.6634 7.84109 9.7171 7.82574 9.77439C7.81038 9.83168 7.80645 9.89143 7.81419 9.95023C7.82192 10.009 7.84116 10.0657 7.87081 10.1171L10.0417 13.8775C6.31415 15.9049 3.76455 19.6785 3.3916 24.1371H29.4768C29.1034 19.6785 26.554 15.9049 22.8266 13.8775Z" fill="#3DDC84"/>
</g>
<defs>
<clipPath id="clip0_743_28">
<rect width="26.085" height="14.6967" fill="white" transform="translate(3.38477 9.44043)"/>
</clipPath>
</defs>
</svg>
