<?xml version="1.0" standalone="no"?><!DOCTYPE svg PUBLIC "-//W3C//DTD SVG 1.1//EN" "http://www.w3.org/Graphics/SVG/1.1/DTD/svg11.dtd"><svg t="1676623459255" class="icon" viewBox="0 0 1024 1024" version="1.1" xmlns="http://www.w3.org/2000/svg" p-id="4061" xmlns:xlink="http://www.w3.org/1999/xlink" width="256" height="256"><path d="M905.728 694.272q-22.308571 71.460571-70.290286 142.848-73.728 111.981714-146.870857 111.981714-28.013714 0-80.018286-18.285714-49.152-18.285714-86.308571-18.285714-34.889143 0-81.115429 18.870857-46.299429 19.456-75.410286 19.456-86.820571 0-172.032-147.968-83.968-149.138286-83.968-287.451429 0-130.267429 64.585143-213.723429 64-82.285714 162.304-82.285714 41.179429 0 101.156571 17.115429 59.465143 17.115429 78.848 17.115429 25.746286 0 81.700571-19.456 58.294857-19.456 98.889143-19.456 68.022857 0 121.709714 37.156571 29.696 20.553143 59.465143 57.124571-45.129143 38.253714-65.170286 67.437714-37.156571 53.686857-37.156571 118.272 0 70.875429 39.424 127.414857t90.258286 71.972571zM690.834286 23.990857q0 34.889143-16.603429 77.677714-17.115429 42.861714-53.174857 78.848-30.866286 30.866286-61.732571 41.179429-21.138286 6.290286-59.465143 9.728 1.682286-85.138286 44.544-146.870857 42.276571-61.147429 142.848-84.553143 0.585143 1.682286 1.462857 6.290286t1.462857 6.290286q0 2.267429 0.292571 5.705143t0.292571 5.705143z" fill="#000000" p-id="4062" data-spm-anchor-id="a313x.7781069.0.i10" class="selected"></path></svg>