<svg width="32" height="32" viewBox="0 0 32 32" fill="none" xmlns="http://www.w3.org/2000/svg">
  <g clip-path="url(#clip0_197_13)">
    <path
      d="M32.0129 6.62222C32.0129 4.27557 30.0985 2.35557 27.7587 2.35557C26.3761 2.35557 25.0998 2.99557 24.3553 4.06222C21.9092 2.24888 19.0376 1.28888 15.9533 1.28888C12.869 1.28888 10.1038 2.24888 7.65757 3.95557C6.9131 2.88888 5.63684 2.24888 4.36058 2.24888C2.02075 2.24888 0.106354 4.16888 0.106354 6.51557C0.106354 8.11557 0.957205 9.50222 2.23347 10.2489C1.16993 12.3822 0.63814 14.6222 0.63814 16.9689C0.531795 24.9689 7.44486 30.3022 15.9533 30.3022C24.4617 30.3022 31.3747 24.8622 31.3747 16.9689C31.3747 14.7289 30.843 12.4889 29.7794 10.3556C31.1621 9.60888 32.0129 8.22222 32.0129 6.62222ZM15.9533 25.3956C10.8482 25.3956 5.74318 21.6622 5.74318 16.3289C5.74318 9.82222 11.2736 6.40888 15.9533 6.40888C20.7393 6.40888 26.1634 9.82222 26.1634 16.3289C26.1634 21.6622 21.0583 25.3956 15.9533 25.3956Z"
      fill="#F72F30" />
  </g>
  <defs>
    <clipPath id="clip0_197_13">
      <rect width="32" height="32" fill="white" />
    </clipPath>
  </defs>
</svg>
