<?xml version="1.0" standalone="no"?><!DOCTYPE svg PUBLIC "-//W3C//DTD SVG 1.1//EN" "http://www.w3.org/Graphics/SVG/1.1/DTD/svg11.dtd"><svg t="1634625905765" class="icon" viewBox="0 0 1024 1024" version="1.1" xmlns="http://www.w3.org/2000/svg" p-id="18220" xmlns:xlink="http://www.w3.org/1999/xlink" width="128" height="128"><defs><style type="text/css"></style></defs><path d="M173.037714 768h573.897143c55.405714 0 102.070857-5.174857 135.131429-38.235429 33.060571-33.060571 37.595429-79.067429 37.595428-134.491428v-166.217143c0-55.424-4.534857-101.76-37.595428-134.491429C848.694857 261.485714 802.340571 256 746.934857 256H172.068571c-54.436571 0-101.101714 5.504-134.162285 38.564571C4.864 327.606857 0 373.632 0 428.068571v167.204572c0 55.405714 4.864 101.76 37.906286 134.491428C70.966857 762.825143 117.632 768 173.037714 768z m-9.069714-52.169143c-33.371429 0-68.388571-4.534857-87.808-23.972571-19.785143-19.785143-23.990857-54.125714-23.990857-87.497143V420.937143c0-34.029714 4.205714-69.028571 23.661714-88.484572 19.748571-19.748571 55.094857-24.301714 89.106286-24.301714h591.067428c33.060571 0 68.388571 4.864 87.826286 24.32 19.748571 19.748571 23.661714 54.107429 23.661714 87.478857v184.393143c0 33.371429-4.224 67.712-23.661714 87.497143-19.437714 19.748571-54.765714 23.954286-87.826286 23.954286z m-6.473143-44.068571h85.211429c23.990857 0 37.266286-3.254857 47.652571-13.293715 10.368-10.368 13.275429-23.972571 13.275429-47.634285V413.494857c0-23.990857-2.925714-37.266286-13.275429-47.634286-10.386286-10.368-23.661714-13.293714-47.652571-13.293714h-85.211429c-23.990857 0-37.266286 2.925714-47.634286 13.293714-10.368 10.368-13.293714 23.643429-13.293714 47.634286v197.339429c0 23.661714 2.925714 37.266286 13.293714 47.634285 10.368 10.057143 23.643429 13.293714 47.634286 13.293715z m806.564572-77.787429c25.6-1.609143 59.940571-34.340571 59.940571-83.931428 0-49.243429-34.358857-81.974857-59.940571-83.602286z" p-id="18221"></path></svg>