<?xml version="1.0" standalone="no"?><!DOCTYPE svg PUBLIC "-//W3C//DTD SVG 1.1//EN" "http://www.w3.org/Graphics/SVG/1.1/DTD/svg11.dtd"><svg t="1636351065543" class="icon" viewBox="0 0 1024 1024" version="1.1" xmlns="http://www.w3.org/2000/svg" p-id="2535" width="32" height="32" xmlns:xlink="http://www.w3.org/1999/xlink"><defs><style type="text/css"></style></defs><path d="M873.7792 873.7792C773.5296 973.9264 653.0048 1024 512 1024c-141.0048 0-261.5296-50.0736-361.7792-150.2208C50.0736 773.5296 0 653.0048 0 512c0-140.9024 50.0736-261.5296 150.2208-361.7792C250.4704 50.0736 370.9952 0 512 0c141.0048 0 261.5296 50.0736 361.7792 150.2208C973.9264 250.4704 1024 371.0976 1024 512 1024 653.0048 973.9264 773.5296 873.7792 873.7792zM22.2208 489.7792l979.456 0 0 44.544L22.2208 534.3232 22.2208 489.7792zM843.1616 180.8384C752.2304 90.0096 641.8432 44.544 512 44.544c-129.8432 0-240.2304 45.4656-331.1616 136.2944C90.0096 271.7696 44.544 382.1568 44.544 512c0 129.8432 45.4656 240.3328 136.2944 331.1616C271.7696 933.9904 382.1568 979.456 512 979.456c129.8432 0 240.2304-45.4656 331.1616-136.3968C933.9904 752.3328 979.456 641.8432 979.456 512 979.456 382.1568 933.9904 271.7696 843.1616 180.8384zM136.2944 205.9264l22.2208-38.912C251.392 218.9312 369.152 244.8384 512 244.8384c142.848 0 260.608-26.0096 353.3824-77.9264l22.2208 38.912C787.456 261.5296 662.2208 289.3824 512 289.3824 361.7792 289.3824 236.544 261.5296 136.2944 205.9264zM865.3824 857.088C772.608 805.1712 654.848 779.1616 512 779.1616c-142.848 0-260.608 26.0096-353.3824 77.9264l-22.2208-38.912C238.3872 762.4704 363.6224 734.6176 512 734.6176c150.2208 0 275.456 27.8528 375.7056 83.456L865.3824 857.088zM701.2352 876.544C649.3184 974.848 586.24 1024 512 1024S374.6816 974.336 322.7648 875.1104C270.848 775.9872 244.8384 654.848 244.8384 512c0-142.848 26.0096-263.8848 77.9264-363.1104C374.6816 49.664 437.76 0 512 0s137.3184 49.664 189.2352 148.8896C753.152 248.1152 779.1616 369.152 779.1616 512 779.1616 654.848 753.152 776.2944 701.2352 876.544zM667.8528 183.6032C623.3088 90.9312 571.392 44.544 512 44.544S400.6912 90.9312 356.1472 183.6032C311.6032 276.48 289.3824 385.8432 289.3824 512c0 126.1568 22.2208 235.6224 66.7648 328.2944C400.6912 933.1712 452.608 979.456 512 979.456s111.3088-46.2848 155.8528-139.1616C712.3968 747.6224 734.6176 638.1568 734.6176 512 734.6176 385.8432 712.3968 276.48 667.8528 183.6032zM489.7792 22.2208l44.544 0 0 979.456L489.7792 1001.6768 489.7792 22.2208z" p-id="2536" fill="#1296db"></path></svg>