<svg xmlns="http://www.w3.org/2000/svg" width="32" height="32" viewBox="0 0 48 48"><mask id="ipSBrowser0"><g fill="none"><path stroke="#fff" stroke-linecap="round" stroke-linejoin="round" stroke-width="4" d="M42 18v22a2 2 0 0 1-2 2H8a2 2 0 0 1-2-2V18"/><path fill="#fff" stroke="#fff" stroke-linejoin="round" stroke-width="4" d="M6 8a2 2 0 0 1 2-2h32a2 2 0 0 1 2 2v10H6V8Z"/><path fill="#000" fill-rule="evenodd" d="M12 14a2 2 0 1 0 0-4a2 2 0 0 0 0 4Zm6 0a2 2 0 1 0 0-4a2 2 0 0 0 0 4Zm6 0a2 2 0 1 0 0-4a2 2 0 0 0 0 4Z" clip-rule="evenodd"/></g></mask><path fill="currentColor" d="M0 0h48v48H0z" mask="url(#ipSBrowser0)"/></svg>
