<?xml version="1.0" standalone="no"?><!DOCTYPE svg PUBLIC "-//W3C//DTD SVG 1.1//EN" "http://www.w3.org/Graphics/SVG/1.1/DTD/svg11.dtd"><svg t="1634625975616" class="icon" viewBox="0 0 1024 1024" version="1.1" xmlns="http://www.w3.org/2000/svg" p-id="21904" xmlns:xlink="http://www.w3.org/1999/xlink" width="128" height="128"><defs><style type="text/css"></style></defs><path d="M157.6 880.8H56.4c-1.6 0-3.4 0-5-0.2s-3.2-0.4-5-0.8l-4.8-1.2c-1.6-0.4-3.2-1-4.6-1.6-1.6-0.6-3-1.4-4.4-2.2-1.4-0.8-2.8-1.6-4.2-2.6-1.4-1-2.8-2-4-3-1.2-1-2.6-2.2-3.6-3.4-1.2-1.2-2.2-2.4-3.4-3.6-1-1.2-2-2.6-3-4s-1.8-2.8-2.6-4.2c-0.8-1.4-1.4-3-2.2-4.4-0.6-1.6-1.2-3-1.6-4.6l-1.2-4.8c-0.4-1.6-0.6-3.2-0.8-5-0.2-1.6-0.2-3.4-0.2-5V627.6c0-1.6 0-3.4 0.2-5s0.4-3.2 0.8-5l1.2-4.8c0.4-1.6 1-3.2 1.6-4.6 0.6-1.6 1.4-3 2.2-4.4 0.8-1.4 1.6-2.8 2.6-4.2 1-1.4 2-2.8 3-4 1-1.2 2.2-2.6 3.4-3.6 1.2-1.2 2.4-2.2 3.6-3.4 1.2-1 2.6-2 4-3s2.8-1.8 4.2-2.6c1.4-0.8 3-1.4 4.4-2.2 1.6-0.6 3-1.2 4.6-1.6l4.8-1.2c1.6-0.4 3.2-0.6 5-0.8 1.6-0.2 3.4-0.2 5-0.2h101.2c1.6 0 3.4 0 5 0.2s3.2 0.4 5 0.8l4.8 1.2c1.6 0.4 3.2 1 4.6 1.6 1.6 0.6 3 1.4 4.4 2.2 1.4 0.8 2.8 1.6 4.2 2.6 1.4 1 2.8 2 4 3 1.2 1 2.6 2.2 3.6 3.4 1.2 1.2 2.2 2.4 3.4 3.6 1 1.2 2 2.6 3 4s1.8 2.8 2.6 4.2 1.4 3 2.2 4.4c0.6 1.6 1.2 3 1.6 4.6l1.2 4.8c0.4 1.6 0.6 3.2 0.8 5 0.2 1.6 0.2 3.4 0.2 5V830c0 1.6 0 3.4-0.2 5s-0.4 3.2-0.8 5l-1.2 4.8c-0.4 1.6-1 3.2-1.6 4.6-0.6 1.6-1.4 3-2.2 4.4s-1.6 2.8-2.6 4.2c-1 1.4-2 2.8-3 4-1 1.2-2.2 2.6-3.4 3.6-1.2 1.2-2.4 2.2-3.6 3.4-1.2 1-2.6 2-4 3s-2.8 1.8-4.2 2.6c-1.4 0.8-3 1.4-4.4 2.2-1.6 0.6-3 1.2-4.6 1.6l-4.8 1.2c-1.6 0.4-3.2 0.6-5 0.8-1.6 0.2-3.4 0.4-5 0.4z m270 0h-101.2c-1.6 0-3.4 0-5-0.2s-3.2-0.4-5-0.8l-4.8-1.2c-1.6-0.4-3.2-1-4.6-1.6-1.6-0.6-3-1.4-4.4-2.2-1.4-0.8-2.8-1.6-4.2-2.6-1.4-1-2.8-2-4-3-1.2-1-2.6-2.2-3.6-3.4-1.2-1.2-2.2-2.4-3.4-3.6-1-1.2-2-2.6-3-4s-1.8-2.8-2.6-4.2c-0.8-1.4-1.4-3-2.2-4.4-0.6-1.6-1.2-3-1.6-4.6l-1.2-4.8c-0.4-1.6-0.6-3.2-0.8-5-0.2-1.6-0.2-3.4-0.2-5V492.6c0-1.6 0-3.4 0.2-5s0.4-3.2 0.8-5l1.2-4.8c0.4-1.6 1-3.2 1.6-4.6 0.6-1.6 1.4-3 2.2-4.4 0.8-1.4 1.6-2.8 2.6-4.2 1-1.4 2-2.8 3-4 1-1.2 2.2-2.6 3.4-3.6 1.2-1.2 2.4-2.2 3.6-3.4 1.2-1 2.6-2 4-3s2.8-1.8 4.2-2.6c1.4-0.8 3-1.4 4.4-2.2 1.6-0.6 3-1.2 4.6-1.6l4.8-1.2c1.6-0.4 3.2-0.6 5-0.8 1.6-0.2 3.4-0.2 5-0.2h101.2c1.6 0 3.4 0 5 0.2s3.2 0.4 5 0.8l4.8 1.2c1.6 0.4 3.2 1 4.6 1.6s3 1.4 4.4 2.2c1.4 0.8 2.8 1.6 4.2 2.6 1.4 1 2.8 2 4 3s2.6 2.2 3.6 3.4c1.2 1.2 2.2 2.4 3.4 3.6 1 1.2 2 2.6 3 4s1.8 2.8 2.6 4.2c0.8 1.4 1.4 3 2.2 4.4 0.6 1.6 1.2 3 1.6 4.6l1.2 4.8c0.4 1.6 0.6 3.2 0.8 5 0.2 1.6 0.2 3.4 0.2 5v337.6c0 1.6 0 3.4-0.2 5s-0.4 3.2-0.8 5l-1.2 4.8c-0.4 1.6-1 3.2-1.6 4.6-0.6 1.6-1.4 3-2.2 4.4-0.8 1.4-1.6 2.8-2.6 4.2-1 1.4-2 2.8-3 4-1 1.2-2.2 2.6-3.4 3.6-1.2 1.2-2.4 2.2-3.6 3.4-1.2 1-2.6 2-4 3s-2.8 1.8-4.2 2.6c-1.4 0.8-3 1.4-4.4 2.2s-3 1.2-4.6 1.6l-4.8 1.2c-1.6 0.4-3.2 0.6-5 0.8-1.6 0-3.4 0.2-5 0.2z m270 0h-101.2c-1.6 0-3.4 0-5-0.2s-3.2-0.4-5-0.8l-4.8-1.2c-1.6-0.4-3.2-1-4.6-1.6-1.6-0.6-3-1.4-4.4-2.2-1.4-0.8-2.8-1.6-4.2-2.6-1.4-1-2.8-2-4-3-1.2-1-2.6-2.2-3.6-3.4-1.2-1.2-2.2-2.4-3.4-3.6-1-1.2-2-2.6-3-4s-1.8-2.8-2.6-4.2c-0.8-1.4-1.4-3-2.2-4.4-0.6-1.6-1.2-3-1.6-4.6l-1.2-4.8c-0.4-1.6-0.6-3.2-0.8-5-0.2-1.6-0.2-3.4-0.2-5V357.6c0-1.6 0-3.4 0.2-5s0.4-3.2 0.8-5l1.2-4.8c0.4-1.6 1-3.2 1.6-4.6 0.6-1.6 1.4-3 2.2-4.4 0.8-1.4 1.6-2.8 2.6-4.2 1-1.4 2-2.8 3-4 1-1.2 2.2-2.6 3.4-3.6 1.2-1.2 2.4-2.2 3.6-3.4 1.2-1 2.6-2 4-3s2.8-1.8 4.2-2.6c1.4-0.8 3-1.4 4.4-2.2 1.6-0.6 3-1.2 4.6-1.6l4.8-1.2c1.6-0.4 3.2-0.6 5-0.8 1.6-0.2 3.4-0.2 5-0.2h101.2c1.6 0 3.4 0 5 0.2s3.2 0.4 5 0.8l4.8 1.2c1.6 0.4 3.2 1 4.6 1.6 1.6 0.6 3 1.4 4.4 2.2 1.4 0.8 2.8 1.6 4.2 2.6 1.4 1 2.8 2 4 3 1.2 1 2.6 2.2 3.6 3.4 1.2 1.2 2.2 2.4 3.4 3.6 1 1.2 2 2.6 3 4s1.8 2.8 2.6 4.2c0.8 1.4 1.4 3 2.2 4.4 0.6 1.6 1.2 3 1.6 4.6l1.2 4.8c0.4 1.6 0.6 3.2 0.8 5 0.2 1.6 0.2 3.4 0.2 5V830c0 1.6 0 3.4-0.2 5s-0.4 3.2-0.8 5l-1.2 4.8c-0.4 1.6-1 3.2-1.6 4.6-0.6 1.6-1.4 3-2.2 4.4-0.8 1.4-1.6 2.8-2.6 4.2-1 1.4-2 2.8-3 4-1 1.2-2.2 2.6-3.4 3.6-1.2 1.2-2.4 2.2-3.6 3.4-1.2 1-2.6 2-4 3s-2.8 1.8-4.2 2.6c-1.4 0.8-3 1.4-4.4 2.2-1.6 0.6-3 1.2-4.6 1.6l-4.8 1.2c-1.6 0.4-3.2 0.6-5 0.8-1.6 0.2-3.4 0.4-5 0.4z m270 0h-101.2c-1.6 0-3.4 0-5-0.2s-3.2-0.4-5-0.8l-4.8-1.2c-1.6-0.4-3.2-1-4.6-1.6-1.6-0.6-3-1.4-4.4-2.2-1.4-0.8-2.8-1.6-4.2-2.6-1.4-1-2.8-2-4-3-1.2-1-2.6-2.2-3.6-3.4-1.2-1.2-2.2-2.4-3.4-3.6-1-1.2-2-2.6-3-4s-1.8-2.8-2.6-4.2c-0.8-1.4-1.4-3-2.2-4.4-0.6-1.6-1.2-3-1.6-4.6l-1.2-4.8c-0.4-1.6-0.6-3.2-0.8-5-0.2-1.6-0.2-3.4-0.2-5V188.8c0-1.6 0-3.4 0.2-5s0.4-3.2 0.8-5l1.2-4.8c0.4-1.6 1-3.2 1.6-4.6 0.6-1.6 1.4-3 2.2-4.4 0.8-1.4 1.6-2.8 2.6-4.2s2-2.8 3-4c1-1.2 2.2-2.6 3.4-3.6 1.2-1.2 2.4-2.2 3.6-3.4 1.2-1 2.6-2 4-3s2.8-1.8 4.2-2.6c1.4-0.8 3-1.4 4.4-2.2 1.6-0.6 3-1.2 4.6-1.6l4.8-1.2c1.6-0.4 3.2-0.6 5-0.8 1.6-0.2 3.4-0.2 5-0.2h101.2c1.6 0 3.4 0 5 0.2s3.2 0.4 5 0.8l4.8 1.2c1.6 0.4 3.2 1 4.6 1.6 1.6 0.6 3 1.4 4.4 2.2 1.4 0.8 2.8 1.6 4.2 2.6 1.4 1 2.8 2 4 3 1.2 1 2.6 2.2 3.6 3.4 1.2 1.2 2.2 2.4 3.4 3.6s2 2.6 3 4 1.8 2.8 2.6 4.2 1.4 3 2.2 4.4c0.6 1.6 1.2 3 1.6 4.6l1.2 4.8c0.4 1.6 0.6 3.2 0.8 5 0.2 1.6 0.2 3.4 0.2 5V830c0 1.6 0 3.4-0.2 5s-0.4 3.2-0.8 5l-1.2 4.8c-0.4 1.6-1 3.2-1.6 4.6-0.6 1.6-1.4 3-2.2 4.4-0.8 1.4-1.6 2.8-2.6 4.2-1 1.4-2 2.8-3 4-1 1.2-2.2 2.6-3.4 3.6-1.2 1.2-2.4 2.2-3.6 3.4-1.2 1-2.6 2-4 3s-2.8 1.8-4.2 2.6c-1.4 0.8-3 1.4-4.4 2.2-1.6 0.6-3 1.2-4.6 1.6l-4.8 1.2c-1.6 0.4-3.2 0.6-5 0.8-1.6 0.2-3.4 0.4-5 0.4z" p-id="21905"></path></svg>