<svg width="80" height="80" viewBox="0 0 80 80" fill="none" xmlns="http://www.w3.org/2000/svg">
<path d="M38.6812 0.745213C38.6812 0.745213 61.7429 -0.766608 74.4607 22.1675L37.1823 22.9465C37.1823 22.9465 30.1364 22.8618 24.3141 31.5286C22.657 35.1438 20.889 38.8763 23.1178 46.1023C20.0113 41.0876 6.61428 18.8507 6.61428 18.8507C6.61428 18.8507 15.3874 2.15584 38.6812 0.745213Z" fill="#EA4335"/>
<path d="M74.0327 58.9327C74.0327 58.9327 63.8162 79.6642 37.593 79.2038L55.5568 46.5316C55.5568 46.5316 59.1527 40.4727 54.562 31.0942C52.2601 27.8529 49.9135 24.4544 42.5395 22.7697C48.4366 22.5889 74.3902 22.1042 74.3902 22.1042C74.3902 22.1042 84.4601 38.0548 74.0327 58.9327Z" fill="#FBBC05"/>
<path d="M5.96998 60.5124C5.96998 60.5124 -6.87697 41.2909 6.63911 18.8134L25.9485 50.714C25.9485 50.714 29.3967 56.8576 39.8133 57.571C43.7706 57.1989 47.8869 56.8631 53.034 51.3236C50.2397 56.5209 37.6777 79.2391 37.6777 79.2391C37.6777 79.2391 18.8329 79.9834 5.96998 60.5124Z" fill="#34A853"/>
<path d="M21.947 40.6504C21.8745 37.1955 22.8281 33.7967 24.6872 30.8838C26.5463 27.9708 29.2275 25.6746 32.3916 24.2856C35.5557 22.8965 39.0606 22.4769 42.4632 23.0799C45.8658 23.6829 49.0131 25.2814 51.5072 27.6732C54.0013 30.065 55.7301 33.1428 56.4751 36.5172C57.22 39.8916 56.9476 43.4111 55.6922 46.6307C54.4369 49.8503 52.2551 52.6253 49.4226 54.6048C46.5902 56.5843 43.2343 57.6794 39.7795 57.7516C35.1471 57.8484 30.666 56.1011 27.3219 52.894C23.9777 49.687 22.0443 45.2829 21.947 40.6504Z" fill="white"/>
<path d="M24.8723 40.5894C24.8118 37.7131 25.6056 34.8834 27.1531 32.4581C28.7007 30.0328 30.9326 28.1209 33.5666 26.964C36.2007 25.8071 39.1186 25.4571 41.9515 25.9585C44.7844 26.4598 47.4051 27.7899 49.4821 29.7805C51.5592 31.7711 52.9994 34.3329 53.6207 37.142C54.242 39.9511 54.0165 42.8813 52.9726 45.5622C51.9288 48.2432 50.1135 50.5544 47.7562 52.2037C45.399 53.853 42.6057 54.7663 39.7294 54.8282C37.8189 54.8693 35.9189 54.5335 34.1381 53.8401C32.3574 53.1467 30.7307 52.1092 29.351 50.7869C27.9712 49.4647 26.8656 47.8835 26.0971 46.1338C25.3286 44.384 24.9124 42.5 24.8723 40.5894Z" fill="#4285F4"/>
</svg>
