<svg width="600" height="400" viewBox="0 0 600 400" fill="none" xmlns="http://www.w3.org/2000/svg">
<rect width="600" height="400" rx="8" fill="url(#paint0_linear_122_3)"/>
<rect x="20" y="17" width="560" height="233" rx="8" fill="#D38DFE"/>
<path d="M174.484 138.641V134.844H177.531C178.896 134.844 179.948 134.469 180.688 133.719C181.438 132.969 181.812 131.922 181.812 130.578C181.812 129.307 181.438 128.328 180.688 127.641C179.948 126.953 178.896 126.609 177.531 126.609H174.547V122.812H177.531C180.312 122.812 182.464 123.469 183.984 124.781C185.505 126.083 186.266 127.927 186.266 130.312C186.266 132.958 185.505 135.01 183.984 136.469C182.464 137.917 180.312 138.641 177.531 138.641H174.484ZM170.734 145V122.812H174.859V145H170.734ZM199.672 145.156L199.312 140.25L199.25 138.094V134.859C199.25 133.974 198.87 133.328 198.109 132.922C197.359 132.505 196.24 132.276 194.75 132.234L190.516 132.125L190.828 128.281L194.438 128.328C197.438 128.37 199.667 128.964 201.125 130.109C202.583 131.245 203.312 132.906 203.312 135.094V141.219L205.609 141.562V145L199.672 145.156ZM194.062 145.312C192.302 145.312 190.932 144.88 189.953 144.016C188.974 143.151 188.484 141.922 188.484 140.328C188.484 138.474 189.125 137.052 190.406 136.062C191.688 135.073 193.505 134.578 195.859 134.578C196.766 134.578 197.547 134.625 198.203 134.719C198.87 134.812 199.542 134.958 200.219 135.156L199.531 138.453C198.865 138.297 198.266 138.208 197.734 138.188C197.203 138.156 196.646 138.141 196.062 138.141C193.875 138.141 192.781 138.766 192.781 140.016C192.781 140.578 192.979 141.01 193.375 141.312C193.771 141.604 194.349 141.75 195.109 141.75C196.026 141.75 196.792 141.578 197.406 141.234C198.021 140.891 198.479 140.453 198.781 139.922C199.094 139.391 199.25 138.844 199.25 138.281V137.25L199.844 141.5H198.516L199.062 141C199.031 141.958 198.812 142.76 198.406 143.406C198 144.042 197.427 144.521 196.688 144.844C195.958 145.156 195.083 145.312 194.062 145.312ZM208.844 152.469L208.688 148.781L214 148.625C215.458 148.583 216.516 148.177 217.172 147.406C217.828 146.646 218.156 145.521 218.156 144.031V131.938L218.469 128.438H222.391V143.531C222.391 146.479 221.698 148.651 220.312 150.047C218.927 151.453 216.719 152.208 213.688 152.312L208.844 152.469ZM213.734 145.312C211.682 145.312 210.083 144.573 208.938 143.094C207.802 141.615 207.234 139.495 207.234 136.734C207.234 133.995 207.802 131.875 208.938 130.375C210.083 128.875 211.693 128.125 213.766 128.125C215.026 128.125 215.979 128.401 216.625 128.953C217.281 129.495 217.708 130.323 217.906 131.438H219.125L218.156 136.734C218.156 135.13 217.885 133.958 217.344 133.219C216.812 132.479 216.005 132.109 214.922 132.109C213.849 132.109 213.021 132.516 212.438 133.328C211.854 134.13 211.562 135.266 211.562 136.734C211.562 138.255 211.844 139.401 212.406 140.172C212.979 140.943 213.818 141.328 214.922 141.328C216.13 141.328 216.969 140.964 217.438 140.234C217.917 139.505 218.156 138.339 218.156 136.734L219.281 142H217.812C217.646 143.104 217.214 143.932 216.516 144.484C215.818 145.036 214.891 145.312 213.734 145.312ZM235.438 145.312C232.573 145.312 230.359 144.573 228.797 143.094C227.234 141.604 226.453 139.469 226.453 136.688C226.453 133.979 227.115 131.875 228.438 130.375C229.771 128.875 231.646 128.125 234.062 128.125C236.427 128.125 238.255 128.818 239.547 130.203C240.839 131.589 241.484 133.604 241.484 136.25C241.484 137 241.453 137.714 241.391 138.391H229.234V135.453H237.328C237.328 134.339 237.042 133.484 236.469 132.891C235.906 132.297 235.115 132 234.094 132C232.99 132 232.13 132.396 231.516 133.188C230.911 133.969 230.609 135.083 230.609 136.531C230.609 138.094 231.057 139.281 231.953 140.094C232.859 140.906 234.146 141.312 235.812 141.312C236.562 141.312 237.302 141.276 238.031 141.203C238.76 141.12 239.505 141.01 240.266 140.875L240.672 144.875C239.609 145.062 238.641 145.182 237.766 145.234C236.891 145.286 236.115 145.312 235.438 145.312ZM252.109 145.312C250.849 145.312 249.625 145.208 248.438 145C247.25 144.781 246.188 144.479 245.25 144.094L245.812 139.875C246.958 140.354 248.094 140.724 249.219 140.984C250.354 141.245 251.401 141.375 252.359 141.375C253.474 141.375 254.328 141.177 254.922 140.781C255.516 140.385 255.812 139.818 255.812 139.078C255.812 138.109 255.203 137.339 253.984 136.766L250.797 135.219C249.224 134.448 248.005 133.495 247.141 132.359C246.276 131.224 245.844 129.969 245.844 128.594C245.844 126.656 246.484 125.156 247.766 124.094C249.047 123.031 250.859 122.5 253.203 122.5C254.568 122.5 255.859 122.74 257.078 123.219C258.307 123.698 259.396 124.391 260.344 125.297L257.5 128.562C256.781 127.875 256.057 127.349 255.328 126.984C254.599 126.609 253.896 126.422 253.219 126.422C252.302 126.422 251.589 126.62 251.078 127.016C250.568 127.401 250.312 127.964 250.312 128.703C250.312 129.193 250.49 129.656 250.844 130.094C251.208 130.531 251.724 130.927 252.391 131.281L255.391 132.828C256.953 133.641 258.156 134.589 259 135.672C259.854 136.755 260.281 137.917 260.281 139.156C260.281 141.125 259.573 142.646 258.156 143.719C256.74 144.781 254.724 145.312 252.109 145.312ZM264.609 152.188V128.438H268.531L268.844 131.938V152.188H264.609ZM273.266 145.312C272.109 145.312 271.182 145.036 270.484 144.484C269.786 143.932 269.354 143.104 269.188 142H267.719L268.844 136.734C268.844 138.339 269.083 139.505 269.562 140.234C270.042 140.964 270.88 141.328 272.078 141.328C273.182 141.328 274.016 140.943 274.578 140.172C275.151 139.401 275.438 138.255 275.438 136.734C275.438 135.266 275.146 134.13 274.562 133.328C273.979 132.516 273.151 132.109 272.078 132.109C271.005 132.109 270.198 132.479 269.656 133.219C269.115 133.958 268.844 135.13 268.844 136.734L267.875 131.438H269.094C269.292 130.323 269.714 129.495 270.359 128.953C271.016 128.401 271.974 128.125 273.234 128.125C275.307 128.125 276.911 128.875 278.047 130.375C279.193 131.875 279.766 133.995 279.766 136.734C279.766 139.495 279.193 141.615 278.047 143.094C276.911 144.573 275.318 145.312 273.266 145.312ZM281.906 152.5L281.75 148.828L284.609 148.516C285.589 148.401 286.427 148.141 287.125 147.734C287.823 147.328 288.417 146.719 288.906 145.906C289.406 145.104 289.839 144.052 290.203 142.75L294.203 128.438H298.688L294.031 143.531C293.406 145.521 292.688 147.12 291.875 148.328C291.062 149.547 290.099 150.453 288.984 151.047C287.87 151.651 286.536 152.031 284.984 152.188L281.906 152.5ZM287.156 145L281.594 128.438H286.078L290.188 141.406H290.938V145H287.156ZM330.188 145.312C323.115 145.312 319.578 141.5 319.578 133.875C319.578 130.26 320.469 127.464 322.25 125.484C324.031 123.495 326.552 122.5 329.812 122.5C331.281 122.5 332.583 122.74 333.719 123.219C334.854 123.688 335.714 124.359 336.297 125.234L333.984 128.266C333.516 127.682 332.917 127.234 332.188 126.922C331.469 126.599 330.688 126.438 329.844 126.438C328.052 126.438 326.615 127.073 325.531 128.344C324.458 129.604 323.922 131.396 323.922 133.719C323.922 138.823 326.188 141.375 330.719 141.375C332.229 141.375 333.719 141.062 335.188 140.438L335.906 144.25C334.094 144.958 332.188 145.312 330.188 145.312ZM349.094 145.312C347.01 145.312 345.505 144.74 344.578 143.594C343.661 142.448 343.203 140.615 343.203 138.094V121.562H347.422V137.938C347.422 138.625 347.495 139.188 347.641 139.625C347.786 140.062 348.068 140.385 348.484 140.594C348.901 140.802 349.521 140.906 350.344 140.906C351.26 140.906 352.417 140.708 353.812 140.312L354.297 144.656C353.411 144.885 352.557 145.052 351.734 145.156C350.911 145.26 350.031 145.312 349.094 145.312ZM338.516 125.453V121.562H343.484V125.453H338.516ZM364.359 145V129.375H368.578V145H364.359ZM358.234 145V141.094H364.672V145H358.234ZM368.266 145V141.094H373.484V145H368.266ZM359.172 132.344V128.438H368.578V132.344H359.172ZM366.281 126.203C365.479 126.203 364.828 125.953 364.328 125.453C363.828 124.953 363.578 124.302 363.578 123.5C363.578 122.698 363.828 122.047 364.328 121.547C364.828 121.047 365.479 120.797 366.281 120.797C367.083 120.797 367.734 121.047 368.234 121.547C368.734 122.047 368.984 122.698 368.984 123.5C368.984 124.302 368.734 124.953 368.234 125.453C367.734 125.953 367.083 126.203 366.281 126.203ZM385.438 145.312C382.573 145.312 380.359 144.573 378.797 143.094C377.234 141.604 376.453 139.469 376.453 136.688C376.453 133.979 377.115 131.875 378.438 130.375C379.771 128.875 381.646 128.125 384.062 128.125C386.427 128.125 388.255 128.818 389.547 130.203C390.839 131.589 391.484 133.604 391.484 136.25C391.484 137 391.453 137.714 391.391 138.391H379.234V135.453H387.328C387.328 134.339 387.042 133.484 386.469 132.891C385.906 132.297 385.115 132 384.094 132C382.99 132 382.13 132.396 381.516 133.188C380.911 133.969 380.609 135.083 380.609 136.531C380.609 138.094 381.057 139.281 381.953 140.094C382.859 140.906 384.146 141.312 385.812 141.312C386.562 141.312 387.302 141.276 388.031 141.203C388.76 141.12 389.505 141.01 390.266 140.875L390.672 144.875C389.609 145.062 388.641 145.182 387.766 145.234C386.891 145.286 386.115 145.312 385.438 145.312ZM405.656 145V135.266C405.656 134.266 405.448 133.495 405.031 132.953C404.625 132.411 404.042 132.141 403.281 132.141C401.156 132.141 400.094 133.672 400.094 136.734L399.125 131.438H400.5C400.656 130.323 401.036 129.495 401.641 128.953C402.245 128.401 403.161 128.125 404.391 128.125C406.141 128.125 407.495 128.656 408.453 129.719C409.411 130.781 409.891 132.281 409.891 134.219V145H405.656ZM395.859 145V128.438H399.641L400.094 131.938V145H395.859ZM425.141 145.312C422.286 145.312 420.224 144.74 418.953 143.594C417.682 142.448 417.047 140.615 417.047 138.094V135.938H421.266V137.688C421.266 138.948 421.589 139.865 422.234 140.438C422.891 141.01 423.964 141.297 425.453 141.297C425.932 141.297 426.443 141.271 426.984 141.219C427.536 141.156 428.161 141.078 428.859 140.984L429.234 144.938C428.547 145.062 427.875 145.156 427.219 145.219C426.573 145.281 425.88 145.312 425.141 145.312ZM417.047 136.922V123.438H421.266V136.922H417.047ZM413.078 132.328V128.438H428.609V132.328H413.078Z" fill="white"/>
<rect width="265" height="32" transform="translate(20 262)" fill="#F7A4A4"/>
<path d="M89.8438 282.156C86.3073 282.156 84.5391 280.25 84.5391 276.438C84.5391 274.63 84.9844 273.232 85.875 272.242C86.7656 271.247 88.026 270.75 89.6562 270.75C90.3906 270.75 91.0417 270.87 91.6094 271.109C92.1771 271.344 92.6068 271.68 92.8984 272.117L91.7422 273.633C91.5078 273.341 91.2083 273.117 90.8438 272.961C90.4844 272.799 90.0938 272.719 89.6719 272.719C88.776 272.719 88.0573 273.036 87.5156 273.672C86.9792 274.302 86.7109 275.198 86.7109 276.359C86.7109 278.911 87.8438 280.188 90.1094 280.188C90.8646 280.188 91.6094 280.031 92.3438 279.719L92.7031 281.625C91.7969 281.979 90.8438 282.156 89.8438 282.156ZM98.0625 282.156C96.8698 282.156 95.9453 281.781 95.2891 281.031C94.6328 280.281 94.3047 279.224 94.3047 277.859C94.3047 276.49 94.6328 275.432 95.2891 274.688C95.9453 273.938 96.8698 273.562 98.0625 273.562C99.2552 273.562 100.18 273.938 100.836 274.688C101.492 275.432 101.82 276.49 101.82 277.859C101.82 279.224 101.492 280.281 100.836 281.031C100.18 281.781 99.2552 282.156 98.0625 282.156ZM98.0625 280.148C98.5729 280.148 98.9661 279.951 99.2422 279.555C99.5182 279.154 99.6562 278.589 99.6562 277.859C99.6562 277.125 99.5182 276.56 99.2422 276.164C98.9661 275.768 98.5729 275.57 98.0625 275.57C97.5573 275.57 97.1641 275.768 96.8828 276.164C96.6068 276.56 96.4688 277.125 96.4688 277.859C96.4688 278.589 96.6068 279.154 96.8828 279.555C97.1641 279.951 97.5573 280.148 98.0625 280.148ZM108.828 282V277.133C108.828 276.633 108.724 276.247 108.516 275.977C108.312 275.706 108.021 275.57 107.641 275.57C106.578 275.57 106.047 276.336 106.047 277.867L105.562 275.219H106.25C106.328 274.661 106.518 274.247 106.82 273.977C107.122 273.701 107.581 273.562 108.195 273.562C109.07 273.562 109.747 273.828 110.227 274.359C110.706 274.891 110.945 275.641 110.945 276.609V282H108.828ZM103.93 282V273.719H105.82L106.047 275.469V282H103.93ZM116.172 282.156C115.542 282.156 114.982 282.135 114.492 282.094C114.008 282.057 113.581 282 113.211 281.922L113.461 279.898C114.117 279.982 114.669 280.044 115.117 280.086C115.565 280.128 115.917 280.148 116.172 280.148C116.88 280.148 117.393 280.102 117.711 280.008C118.029 279.909 118.188 279.753 118.188 279.539C118.188 279.414 118.148 279.315 118.07 279.242C117.992 279.169 117.867 279.107 117.695 279.055L115 278.273C114.448 278.112 114.031 277.867 113.75 277.539C113.474 277.206 113.336 276.76 113.336 276.203C113.336 275.312 113.711 274.651 114.461 274.219C115.211 273.781 116.349 273.562 117.875 273.562C118.229 273.562 118.596 273.576 118.977 273.602C119.362 273.628 119.768 273.667 120.195 273.719L119.969 275.68C119.495 275.638 119.081 275.609 118.727 275.594C118.372 275.578 118.073 275.57 117.828 275.57C117.01 275.57 116.417 275.617 116.047 275.711C115.682 275.799 115.5 275.948 115.5 276.156C115.5 276.286 115.536 276.388 115.609 276.461C115.688 276.529 115.807 276.586 115.969 276.633L118.289 277.273C119.003 277.466 119.534 277.747 119.883 278.117C120.237 278.482 120.414 278.958 120.414 279.547C120.414 280.427 120.065 281.083 119.367 281.516C118.669 281.943 117.604 282.156 116.172 282.156ZM126.188 282.156C124.995 282.156 124.07 281.781 123.414 281.031C122.758 280.281 122.43 279.224 122.43 277.859C122.43 276.49 122.758 275.432 123.414 274.688C124.07 273.938 124.995 273.562 126.188 273.562C127.38 273.562 128.305 273.938 128.961 274.688C129.617 275.432 129.945 276.49 129.945 277.859C129.945 279.224 129.617 280.281 128.961 281.031C128.305 281.781 127.38 282.156 126.188 282.156ZM126.188 280.148C126.698 280.148 127.091 279.951 127.367 279.555C127.643 279.154 127.781 278.589 127.781 277.859C127.781 277.125 127.643 276.56 127.367 276.164C127.091 275.768 126.698 275.57 126.188 275.57C125.682 275.57 125.289 275.768 125.008 276.164C124.732 276.56 124.594 277.125 124.594 277.859C124.594 278.589 124.732 279.154 125.008 279.555C125.289 279.951 125.682 280.148 126.188 280.148ZM136.797 282.156C135.755 282.156 135.003 281.87 134.539 281.297C134.081 280.724 133.852 279.807 133.852 278.547V270.281H135.961V278.469C135.961 278.812 135.997 279.094 136.07 279.312C136.143 279.531 136.284 279.693 136.492 279.797C136.701 279.901 137.01 279.953 137.422 279.953C137.88 279.953 138.458 279.854 139.156 279.656L139.398 281.828C138.956 281.943 138.529 282.026 138.117 282.078C137.706 282.13 137.266 282.156 136.797 282.156ZM131.508 272.227V270.281H133.992V272.227H131.508ZM145.594 282.156C144.161 282.156 143.055 281.786 142.273 281.047C141.492 280.302 141.102 279.234 141.102 277.844C141.102 276.49 141.432 275.438 142.094 274.688C142.76 273.938 143.698 273.562 144.906 273.562C146.089 273.562 147.003 273.909 147.648 274.602C148.294 275.294 148.617 276.302 148.617 277.625C148.617 278 148.602 278.357 148.57 278.695H142.492V277.227H146.539C146.539 276.669 146.396 276.242 146.109 275.945C145.828 275.648 145.432 275.5 144.922 275.5C144.37 275.5 143.94 275.698 143.633 276.094C143.331 276.484 143.18 277.042 143.18 277.766C143.18 278.547 143.404 279.141 143.852 279.547C144.305 279.953 144.948 280.156 145.781 280.156C146.156 280.156 146.526 280.138 146.891 280.102C147.255 280.06 147.628 280.005 148.008 279.938L148.211 281.938C147.68 282.031 147.195 282.091 146.758 282.117C146.32 282.143 145.932 282.156 145.594 282.156ZM161.992 278.82V276.922H163.516C164.198 276.922 164.724 276.734 165.094 276.359C165.469 275.984 165.656 275.461 165.656 274.789C165.656 274.154 165.469 273.664 165.094 273.32C164.724 272.977 164.198 272.805 163.516 272.805H162.023V270.906H163.516C164.906 270.906 165.982 271.234 166.742 271.891C167.503 272.542 167.883 273.464 167.883 274.656C167.883 275.979 167.503 277.005 166.742 277.734C165.982 278.458 164.906 278.82 163.516 278.82H161.992ZM160.117 282V270.906H162.18V282H160.117ZM174.586 282.078L174.406 279.625L174.375 278.547V276.93C174.375 276.487 174.185 276.164 173.805 275.961C173.43 275.753 172.87 275.638 172.125 275.617L170.008 275.562L170.164 273.641L171.969 273.664C173.469 273.685 174.583 273.982 175.312 274.555C176.042 275.122 176.406 275.953 176.406 277.047V280.109L177.555 280.281V282L174.586 282.078ZM171.781 282.156C170.901 282.156 170.216 281.94 169.727 281.508C169.237 281.076 168.992 280.461 168.992 279.664C168.992 278.737 169.312 278.026 169.953 277.531C170.594 277.036 171.503 276.789 172.68 276.789C173.133 276.789 173.523 276.812 173.852 276.859C174.185 276.906 174.521 276.979 174.859 277.078L174.516 278.727C174.182 278.648 173.883 278.604 173.617 278.594C173.352 278.578 173.073 278.57 172.781 278.57C171.688 278.57 171.141 278.883 171.141 279.508C171.141 279.789 171.24 280.005 171.438 280.156C171.635 280.302 171.924 280.375 172.305 280.375C172.763 280.375 173.146 280.289 173.453 280.117C173.76 279.945 173.99 279.727 174.141 279.461C174.297 279.195 174.375 278.922 174.375 278.641V278.125L174.672 280.25H174.008L174.281 280C174.266 280.479 174.156 280.88 173.953 281.203C173.75 281.521 173.464 281.76 173.094 281.922C172.729 282.078 172.292 282.156 171.781 282.156ZM183.828 282V277.133C183.828 276.633 183.724 276.247 183.516 275.977C183.312 275.706 183.021 275.57 182.641 275.57C181.578 275.57 181.047 276.336 181.047 277.867L180.562 275.219H181.25C181.328 274.661 181.518 274.247 181.82 273.977C182.122 273.701 182.581 273.562 183.195 273.562C184.07 273.562 184.747 273.828 185.227 274.359C185.706 274.891 185.945 275.641 185.945 276.609V282H183.828ZM178.93 282V273.719H180.82L181.047 275.469V282H178.93ZM192.469 282.156C191.036 282.156 189.93 281.786 189.148 281.047C188.367 280.302 187.977 279.234 187.977 277.844C187.977 276.49 188.307 275.438 188.969 274.688C189.635 273.938 190.573 273.562 191.781 273.562C192.964 273.562 193.878 273.909 194.523 274.602C195.169 275.294 195.492 276.302 195.492 277.625C195.492 278 195.477 278.357 195.445 278.695H189.367V277.227H193.414C193.414 276.669 193.271 276.242 192.984 275.945C192.703 275.648 192.307 275.5 191.797 275.5C191.245 275.5 190.815 275.698 190.508 276.094C190.206 276.484 190.055 277.042 190.055 277.766C190.055 278.547 190.279 279.141 190.727 279.547C191.18 279.953 191.823 280.156 192.656 280.156C193.031 280.156 193.401 280.138 193.766 280.102C194.13 280.06 194.503 280.005 194.883 279.938L195.086 281.938C194.555 282.031 194.07 282.091 193.633 282.117C193.195 282.143 192.807 282.156 192.469 282.156ZM202.422 282.156C201.38 282.156 200.628 281.87 200.164 281.297C199.706 280.724 199.477 279.807 199.477 278.547V270.281H201.586V278.469C201.586 278.812 201.622 279.094 201.695 279.312C201.768 279.531 201.909 279.693 202.117 279.797C202.326 279.901 202.635 279.953 203.047 279.953C203.505 279.953 204.083 279.854 204.781 279.656L205.023 281.828C204.581 281.943 204.154 282.026 203.742 282.078C203.331 282.13 202.891 282.156 202.422 282.156ZM197.133 272.227V270.281H199.617V272.227H197.133Z" fill="white"/>
<rect width="265" height="32" transform="translate(315 262)" fill="#FEBE8C"/>
<path d="M384.25 282L382.297 273.328H381.445V270.906H383.125L385.078 279.578H385.602V282H384.25ZM380.023 282V270.906H382.008V282H380.023ZM385.367 282V270.906H387.352V282H385.367ZM393.719 282.156C392.286 282.156 391.18 281.786 390.398 281.047C389.617 280.302 389.227 279.234 389.227 277.844C389.227 276.49 389.557 275.438 390.219 274.688C390.885 273.938 391.823 273.562 393.031 273.562C394.214 273.562 395.128 273.909 395.773 274.602C396.419 275.294 396.742 276.302 396.742 277.625C396.742 278 396.727 278.357 396.695 278.695H390.617V277.227H394.664C394.664 276.669 394.521 276.242 394.234 275.945C393.953 275.648 393.557 275.5 393.047 275.5C392.495 275.5 392.065 275.698 391.758 276.094C391.456 276.484 391.305 277.042 391.305 277.766C391.305 278.547 391.529 279.141 391.977 279.547C392.43 279.953 393.073 280.156 393.906 280.156C394.281 280.156 394.651 280.138 395.016 280.102C395.38 280.06 395.753 280.005 396.133 279.938L396.336 281.938C395.805 282.031 395.32 282.091 394.883 282.117C394.445 282.143 394.057 282.156 393.719 282.156ZM404.195 282.156C402.768 282.156 401.737 281.87 401.102 281.297C400.466 280.724 400.148 279.807 400.148 278.547V277.469H402.258V278.344C402.258 278.974 402.419 279.432 402.742 279.719C403.07 280.005 403.607 280.148 404.352 280.148C404.591 280.148 404.846 280.135 405.117 280.109C405.393 280.078 405.706 280.039 406.055 279.992L406.242 281.969C405.898 282.031 405.562 282.078 405.234 282.109C404.911 282.141 404.565 282.156 404.195 282.156ZM400.148 277.961V271.219H402.258V277.961H400.148ZM398.164 275.664V273.719H405.93V275.664H398.164ZM412.617 282L411.781 275.758H411.656L410.977 273.719H412.492L413.438 280.031H413.578L414.086 273.719H416.086L415.305 282H412.617ZM408.086 282L407.539 273.719H409.594L409.891 280.031H410.031L410.977 273.719H412.492L411.797 275.758H411.688L410.852 282H408.086ZM421.188 282.156C419.995 282.156 419.07 281.781 418.414 281.031C417.758 280.281 417.43 279.224 417.43 277.859C417.43 276.49 417.758 275.432 418.414 274.688C419.07 273.938 419.995 273.562 421.188 273.562C422.38 273.562 423.305 273.938 423.961 274.688C424.617 275.432 424.945 276.49 424.945 277.859C424.945 279.224 424.617 280.281 423.961 281.031C423.305 281.781 422.38 282.156 421.188 282.156ZM421.188 280.148C421.698 280.148 422.091 279.951 422.367 279.555C422.643 279.154 422.781 278.589 422.781 277.859C422.781 277.125 422.643 276.56 422.367 276.164C422.091 275.768 421.698 275.57 421.188 275.57C420.682 275.57 420.289 275.768 420.008 276.164C419.732 276.56 419.594 277.125 419.594 277.859C419.594 278.589 419.732 279.154 420.008 279.555C420.289 279.951 420.682 280.148 421.188 280.148ZM430.227 278.438L429.742 275.586H430.453C430.536 274.237 431.242 273.562 432.57 273.562C433.357 273.562 433.958 273.852 434.375 274.43C434.797 275.008 435.008 275.841 435.008 276.93H432.898C432.898 276.44 432.807 276.089 432.625 275.875C432.448 275.661 432.161 275.555 431.766 275.555C431.25 275.555 430.865 275.805 430.609 276.305C430.354 276.805 430.227 277.516 430.227 278.438ZM426.367 282V280.188H432.164V282H426.367ZM428.117 282V273.719H429.914L430.227 276.094V282H428.117ZM426.68 275.531V273.719H429.805L429.961 275.531H426.68ZM437.672 279.055V277.047H438.609C439.229 277.047 439.737 276.94 440.133 276.727C440.534 276.508 440.849 276.156 441.078 275.672C441.307 275.182 441.474 274.531 441.578 273.719H443.758C443.534 275.51 443.029 276.849 442.242 277.734C441.456 278.615 440.375 279.055 439 279.055H437.672ZM436.367 282V270.281H438.484V282H436.367ZM441.781 282L439.75 277.969L441.641 277.328L444.289 282H441.781ZM456.992 278.82V276.922H458.516C459.198 276.922 459.724 276.734 460.094 276.359C460.469 275.984 460.656 275.461 460.656 274.789C460.656 274.154 460.469 273.664 460.094 273.32C459.724 272.977 459.198 272.805 458.516 272.805H457.023V270.906H458.516C459.906 270.906 460.982 271.234 461.742 271.891C462.503 272.542 462.883 273.464 462.883 274.656C462.883 275.979 462.503 277.005 461.742 277.734C460.982 278.458 459.906 278.82 458.516 278.82H456.992ZM455.117 282V270.906H457.18V282H455.117ZM469.586 282.078L469.406 279.625L469.375 278.547V276.93C469.375 276.487 469.185 276.164 468.805 275.961C468.43 275.753 467.87 275.638 467.125 275.617L465.008 275.562L465.164 273.641L466.969 273.664C468.469 273.685 469.583 273.982 470.312 274.555C471.042 275.122 471.406 275.953 471.406 277.047V280.109L472.555 280.281V282L469.586 282.078ZM466.781 282.156C465.901 282.156 465.216 281.94 464.727 281.508C464.237 281.076 463.992 280.461 463.992 279.664C463.992 278.737 464.312 278.026 464.953 277.531C465.594 277.036 466.503 276.789 467.68 276.789C468.133 276.789 468.523 276.812 468.852 276.859C469.185 276.906 469.521 276.979 469.859 277.078L469.516 278.727C469.182 278.648 468.883 278.604 468.617 278.594C468.352 278.578 468.073 278.57 467.781 278.57C466.688 278.57 466.141 278.883 466.141 279.508C466.141 279.789 466.24 280.005 466.438 280.156C466.635 280.302 466.924 280.375 467.305 280.375C467.763 280.375 468.146 280.289 468.453 280.117C468.76 279.945 468.99 279.727 469.141 279.461C469.297 279.195 469.375 278.922 469.375 278.641V278.125L469.672 280.25H469.008L469.281 280C469.266 280.479 469.156 280.88 468.953 281.203C468.75 281.521 468.464 281.76 468.094 281.922C467.729 282.078 467.292 282.156 466.781 282.156ZM478.828 282V277.133C478.828 276.633 478.724 276.247 478.516 275.977C478.312 275.706 478.021 275.57 477.641 275.57C476.578 275.57 476.047 276.336 476.047 277.867L475.562 275.219H476.25C476.328 274.661 476.518 274.247 476.82 273.977C477.122 273.701 477.581 273.562 478.195 273.562C479.07 273.562 479.747 273.828 480.227 274.359C480.706 274.891 480.945 275.641 480.945 276.609V282H478.828ZM473.93 282V273.719H475.82L476.047 275.469V282H473.93ZM487.469 282.156C486.036 282.156 484.93 281.786 484.148 281.047C483.367 280.302 482.977 279.234 482.977 277.844C482.977 276.49 483.307 275.438 483.969 274.688C484.635 273.938 485.573 273.562 486.781 273.562C487.964 273.562 488.878 273.909 489.523 274.602C490.169 275.294 490.492 276.302 490.492 277.625C490.492 278 490.477 278.357 490.445 278.695H484.367V277.227H488.414C488.414 276.669 488.271 276.242 487.984 275.945C487.703 275.648 487.307 275.5 486.797 275.5C486.245 275.5 485.815 275.698 485.508 276.094C485.206 276.484 485.055 277.042 485.055 277.766C485.055 278.547 485.279 279.141 485.727 279.547C486.18 279.953 486.823 280.156 487.656 280.156C488.031 280.156 488.401 280.138 488.766 280.102C489.13 280.06 489.503 280.005 489.883 279.938L490.086 281.938C489.555 282.031 489.07 282.091 488.633 282.117C488.195 282.143 487.807 282.156 487.469 282.156ZM497.422 282.156C496.38 282.156 495.628 281.87 495.164 281.297C494.706 280.724 494.477 279.807 494.477 278.547V270.281H496.586V278.469C496.586 278.812 496.622 279.094 496.695 279.312C496.768 279.531 496.909 279.693 497.117 279.797C497.326 279.901 497.635 279.953 498.047 279.953C498.505 279.953 499.083 279.854 499.781 279.656L500.023 281.828C499.581 281.943 499.154 282.026 498.742 282.078C498.331 282.13 497.891 282.156 497.422 282.156ZM492.133 272.227V270.281H494.617V272.227H492.133Z" fill="white"/>
<rect width="265" height="32" transform="translate(315 308)" fill="#B6E2A1"/>
<path d="M383.305 328.156C382.674 328.156 382.062 328.104 381.469 328C380.875 327.891 380.344 327.74 379.875 327.547L380.156 325.438C380.729 325.677 381.297 325.862 381.859 325.992C382.427 326.122 382.951 326.188 383.43 326.188C383.987 326.188 384.414 326.089 384.711 325.891C385.008 325.693 385.156 325.409 385.156 325.039C385.156 324.555 384.852 324.169 384.242 323.883L382.648 323.109C381.862 322.724 381.253 322.247 380.82 321.68C380.388 321.112 380.172 320.484 380.172 319.797C380.172 318.828 380.492 318.078 381.133 317.547C381.773 317.016 382.68 316.75 383.852 316.75C384.534 316.75 385.18 316.87 385.789 317.109C386.404 317.349 386.948 317.695 387.422 318.148L386 319.781C385.641 319.438 385.279 319.174 384.914 318.992C384.549 318.805 384.198 318.711 383.859 318.711C383.401 318.711 383.044 318.81 382.789 319.008C382.534 319.201 382.406 319.482 382.406 319.852C382.406 320.096 382.495 320.328 382.672 320.547C382.854 320.766 383.112 320.964 383.445 321.141L384.945 321.914C385.727 322.32 386.328 322.794 386.75 323.336C387.177 323.878 387.391 324.458 387.391 325.078C387.391 326.062 387.036 326.823 386.328 327.359C385.62 327.891 384.612 328.156 383.305 328.156ZM394.82 328.156C393.393 328.156 392.362 327.87 391.727 327.297C391.091 326.724 390.773 325.807 390.773 324.547V323.469H392.883V324.344C392.883 324.974 393.044 325.432 393.367 325.719C393.695 326.005 394.232 326.148 394.977 326.148C395.216 326.148 395.471 326.135 395.742 326.109C396.018 326.078 396.331 326.039 396.68 325.992L396.867 327.969C396.523 328.031 396.188 328.078 395.859 328.109C395.536 328.141 395.19 328.156 394.82 328.156ZM390.773 323.961V317.219H392.883V323.961H390.773ZM388.789 321.664V319.719H396.555V321.664H388.789ZM402.438 328.156C401.245 328.156 400.32 327.781 399.664 327.031C399.008 326.281 398.68 325.224 398.68 323.859C398.68 322.49 399.008 321.432 399.664 320.688C400.32 319.938 401.245 319.562 402.438 319.562C403.63 319.562 404.555 319.938 405.211 320.688C405.867 321.432 406.195 322.49 406.195 323.859C406.195 325.224 405.867 326.281 405.211 327.031C404.555 327.781 403.63 328.156 402.438 328.156ZM402.438 326.148C402.948 326.148 403.341 325.951 403.617 325.555C403.893 325.154 404.031 324.589 404.031 323.859C404.031 323.125 403.893 322.56 403.617 322.164C403.341 321.768 402.948 321.57 402.438 321.57C401.932 321.57 401.539 321.768 401.258 322.164C400.982 322.56 400.844 323.125 400.844 323.859C400.844 324.589 400.982 325.154 401.258 325.555C401.539 325.951 401.932 326.148 402.438 326.148ZM411.477 324.438L410.992 321.586H411.703C411.786 320.237 412.492 319.562 413.82 319.562C414.607 319.562 415.208 319.852 415.625 320.43C416.047 321.008 416.258 321.841 416.258 322.93H414.148C414.148 322.44 414.057 322.089 413.875 321.875C413.698 321.661 413.411 321.555 413.016 321.555C412.5 321.555 412.115 321.805 411.859 322.305C411.604 322.805 411.477 323.516 411.477 324.438ZM407.617 328V326.188H413.414V328H407.617ZM409.367 328V319.719H411.164L411.477 322.094V328H409.367ZM407.93 321.531V319.719H411.055L411.211 321.531H407.93ZM422.711 328.078L422.531 325.625L422.5 324.547V322.93C422.5 322.487 422.31 322.164 421.93 321.961C421.555 321.753 420.995 321.638 420.25 321.617L418.133 321.562L418.289 319.641L420.094 319.664C421.594 319.685 422.708 319.982 423.438 320.555C424.167 321.122 424.531 321.953 424.531 323.047V326.109L425.68 326.281V328L422.711 328.078ZM419.906 328.156C419.026 328.156 418.341 327.94 417.852 327.508C417.362 327.076 417.117 326.461 417.117 325.664C417.117 324.737 417.438 324.026 418.078 323.531C418.719 323.036 419.628 322.789 420.805 322.789C421.258 322.789 421.648 322.812 421.977 322.859C422.31 322.906 422.646 322.979 422.984 323.078L422.641 324.727C422.307 324.648 422.008 324.604 421.742 324.594C421.477 324.578 421.198 324.57 420.906 324.57C419.812 324.57 419.266 324.883 419.266 325.508C419.266 325.789 419.365 326.005 419.562 326.156C419.76 326.302 420.049 326.375 420.43 326.375C420.888 326.375 421.271 326.289 421.578 326.117C421.885 325.945 422.115 325.727 422.266 325.461C422.422 325.195 422.5 324.922 422.5 324.641V324.125L422.797 326.25H422.133L422.406 326C422.391 326.479 422.281 326.88 422.078 327.203C421.875 327.521 421.589 327.76 421.219 327.922C420.854 328.078 420.417 328.156 419.906 328.156ZM427.297 331.734L427.219 329.891L429.875 329.812C430.604 329.792 431.133 329.589 431.461 329.203C431.789 328.823 431.953 328.26 431.953 327.516V321.469L432.109 319.719H434.07V327.266C434.07 328.74 433.724 329.826 433.031 330.523C432.339 331.227 431.234 331.604 429.719 331.656L427.297 331.734ZM429.742 328.156C428.716 328.156 427.917 327.786 427.344 327.047C426.776 326.307 426.492 325.247 426.492 323.867C426.492 322.497 426.776 321.438 427.344 320.688C427.917 319.938 428.721 319.562 429.758 319.562C430.388 319.562 430.865 319.701 431.188 319.977C431.516 320.247 431.729 320.661 431.828 321.219H432.438L431.953 323.867C431.953 323.065 431.818 322.479 431.547 322.109C431.281 321.74 430.878 321.555 430.336 321.555C429.799 321.555 429.385 321.758 429.094 322.164C428.802 322.565 428.656 323.133 428.656 323.867C428.656 324.628 428.797 325.201 429.078 325.586C429.365 325.971 429.784 326.164 430.336 326.164C430.94 326.164 431.359 325.982 431.594 325.617C431.833 325.253 431.953 324.669 431.953 323.867L432.516 326.5H431.781C431.698 327.052 431.482 327.466 431.133 327.742C430.784 328.018 430.32 328.156 429.742 328.156ZM440.594 328.156C439.161 328.156 438.055 327.786 437.273 327.047C436.492 326.302 436.102 325.234 436.102 323.844C436.102 322.49 436.432 321.438 437.094 320.688C437.76 319.938 438.698 319.562 439.906 319.562C441.089 319.562 442.003 319.909 442.648 320.602C443.294 321.294 443.617 322.302 443.617 323.625C443.617 324 443.602 324.357 443.57 324.695H437.492V323.227H441.539C441.539 322.669 441.396 322.242 441.109 321.945C440.828 321.648 440.432 321.5 439.922 321.5C439.37 321.5 438.94 321.698 438.633 322.094C438.331 322.484 438.18 323.042 438.18 323.766C438.18 324.547 438.404 325.141 438.852 325.547C439.305 325.953 439.948 326.156 440.781 326.156C441.156 326.156 441.526 326.138 441.891 326.102C442.255 326.06 442.628 326.005 443.008 325.938L443.211 327.938C442.68 328.031 442.195 328.091 441.758 328.117C441.32 328.143 440.932 328.156 440.594 328.156ZM456.992 324.82V322.922H458.516C459.198 322.922 459.724 322.734 460.094 322.359C460.469 321.984 460.656 321.461 460.656 320.789C460.656 320.154 460.469 319.664 460.094 319.32C459.724 318.977 459.198 318.805 458.516 318.805H457.023V316.906H458.516C459.906 316.906 460.982 317.234 461.742 317.891C462.503 318.542 462.883 319.464 462.883 320.656C462.883 321.979 462.503 323.005 461.742 323.734C460.982 324.458 459.906 324.82 458.516 324.82H456.992ZM455.117 328V316.906H457.18V328H455.117ZM469.586 328.078L469.406 325.625L469.375 324.547V322.93C469.375 322.487 469.185 322.164 468.805 321.961C468.43 321.753 467.87 321.638 467.125 321.617L465.008 321.562L465.164 319.641L466.969 319.664C468.469 319.685 469.583 319.982 470.312 320.555C471.042 321.122 471.406 321.953 471.406 323.047V326.109L472.555 326.281V328L469.586 328.078ZM466.781 328.156C465.901 328.156 465.216 327.94 464.727 327.508C464.237 327.076 463.992 326.461 463.992 325.664C463.992 324.737 464.312 324.026 464.953 323.531C465.594 323.036 466.503 322.789 467.68 322.789C468.133 322.789 468.523 322.812 468.852 322.859C469.185 322.906 469.521 322.979 469.859 323.078L469.516 324.727C469.182 324.648 468.883 324.604 468.617 324.594C468.352 324.578 468.073 324.57 467.781 324.57C466.688 324.57 466.141 324.883 466.141 325.508C466.141 325.789 466.24 326.005 466.438 326.156C466.635 326.302 466.924 326.375 467.305 326.375C467.763 326.375 468.146 326.289 468.453 326.117C468.76 325.945 468.99 325.727 469.141 325.461C469.297 325.195 469.375 324.922 469.375 324.641V324.125L469.672 326.25H469.008L469.281 326C469.266 326.479 469.156 326.88 468.953 327.203C468.75 327.521 468.464 327.76 468.094 327.922C467.729 328.078 467.292 328.156 466.781 328.156ZM478.828 328V323.133C478.828 322.633 478.724 322.247 478.516 321.977C478.312 321.706 478.021 321.57 477.641 321.57C476.578 321.57 476.047 322.336 476.047 323.867L475.562 321.219H476.25C476.328 320.661 476.518 320.247 476.82 319.977C477.122 319.701 477.581 319.562 478.195 319.562C479.07 319.562 479.747 319.828 480.227 320.359C480.706 320.891 480.945 321.641 480.945 322.609V328H478.828ZM473.93 328V319.719H475.82L476.047 321.469V328H473.93ZM487.469 328.156C486.036 328.156 484.93 327.786 484.148 327.047C483.367 326.302 482.977 325.234 482.977 323.844C482.977 322.49 483.307 321.438 483.969 320.688C484.635 319.938 485.573 319.562 486.781 319.562C487.964 319.562 488.878 319.909 489.523 320.602C490.169 321.294 490.492 322.302 490.492 323.625C490.492 324 490.477 324.357 490.445 324.695H484.367V323.227H488.414C488.414 322.669 488.271 322.242 487.984 321.945C487.703 321.648 487.307 321.5 486.797 321.5C486.245 321.5 485.815 321.698 485.508 322.094C485.206 322.484 485.055 323.042 485.055 323.766C485.055 324.547 485.279 325.141 485.727 325.547C486.18 325.953 486.823 326.156 487.656 326.156C488.031 326.156 488.401 326.138 488.766 326.102C489.13 326.06 489.503 326.005 489.883 325.938L490.086 327.938C489.555 328.031 489.07 328.091 488.633 328.117C488.195 328.143 487.807 328.156 487.469 328.156ZM497.422 328.156C496.38 328.156 495.628 327.87 495.164 327.297C494.706 326.724 494.477 325.807 494.477 324.547V316.281H496.586V324.469C496.586 324.812 496.622 325.094 496.695 325.312C496.768 325.531 496.909 325.693 497.117 325.797C497.326 325.901 497.635 325.953 498.047 325.953C498.505 325.953 499.083 325.854 499.781 325.656L500.023 327.828C499.581 327.943 499.154 328.026 498.742 328.078C498.331 328.13 497.891 328.156 497.422 328.156ZM492.133 318.227V316.281H494.617V318.227H492.133Z" fill="white"/>
<rect width="265" height="32" transform="translate(20 308)" fill="#C689C6"/>
<path d="M108.492 326.32V324.422H110.016C110.698 324.422 111.224 324.234 111.594 323.859C111.969 323.484 112.156 322.961 112.156 322.289C112.156 321.654 111.969 321.164 111.594 320.82C111.224 320.477 110.698 320.305 110.016 320.305H108.523V318.406H110.016C111.406 318.406 112.482 318.734 113.242 319.391C114.003 320.042 114.383 320.964 114.383 322.156C114.383 323.479 114.003 324.505 113.242 325.234C112.482 325.958 111.406 326.32 110.016 326.32H108.492ZM106.617 329.5V318.406H108.68V329.5H106.617ZM121.086 329.578L120.906 327.125L120.875 326.047V324.43C120.875 323.987 120.685 323.664 120.305 323.461C119.93 323.253 119.37 323.138 118.625 323.117L116.508 323.062L116.664 321.141L118.469 321.164C119.969 321.185 121.083 321.482 121.812 322.055C122.542 322.622 122.906 323.453 122.906 324.547V327.609L124.055 327.781V329.5L121.086 329.578ZM118.281 329.656C117.401 329.656 116.716 329.44 116.227 329.008C115.737 328.576 115.492 327.961 115.492 327.164C115.492 326.237 115.812 325.526 116.453 325.031C117.094 324.536 118.003 324.289 119.18 324.289C119.633 324.289 120.023 324.312 120.352 324.359C120.685 324.406 121.021 324.479 121.359 324.578L121.016 326.227C120.682 326.148 120.383 326.104 120.117 326.094C119.852 326.078 119.573 326.07 119.281 326.07C118.188 326.07 117.641 326.383 117.641 327.008C117.641 327.289 117.74 327.505 117.938 327.656C118.135 327.802 118.424 327.875 118.805 327.875C119.263 327.875 119.646 327.789 119.953 327.617C120.26 327.445 120.49 327.227 120.641 326.961C120.797 326.695 120.875 326.422 120.875 326.141V325.625L121.172 327.75H120.508L120.781 327.5C120.766 327.979 120.656 328.38 120.453 328.703C120.25 329.021 119.964 329.26 119.594 329.422C119.229 329.578 118.792 329.656 118.281 329.656ZM125.672 333.234L125.594 331.391L128.25 331.312C128.979 331.292 129.508 331.089 129.836 330.703C130.164 330.323 130.328 329.76 130.328 329.016V322.969L130.484 321.219H132.445V328.766C132.445 330.24 132.099 331.326 131.406 332.023C130.714 332.727 129.609 333.104 128.094 333.156L125.672 333.234ZM128.117 329.656C127.091 329.656 126.292 329.286 125.719 328.547C125.151 327.807 124.867 326.747 124.867 325.367C124.867 323.997 125.151 322.938 125.719 322.188C126.292 321.438 127.096 321.062 128.133 321.062C128.763 321.062 129.24 321.201 129.562 321.477C129.891 321.747 130.104 322.161 130.203 322.719H130.812L130.328 325.367C130.328 324.565 130.193 323.979 129.922 323.609C129.656 323.24 129.253 323.055 128.711 323.055C128.174 323.055 127.76 323.258 127.469 323.664C127.177 324.065 127.031 324.633 127.031 325.367C127.031 326.128 127.172 326.701 127.453 327.086C127.74 327.471 128.159 327.664 128.711 327.664C129.315 327.664 129.734 327.482 129.969 327.117C130.208 326.753 130.328 326.169 130.328 325.367L130.891 328H130.156C130.073 328.552 129.857 328.966 129.508 329.242C129.159 329.518 128.695 329.656 128.117 329.656ZM138.969 329.656C137.536 329.656 136.43 329.286 135.648 328.547C134.867 327.802 134.477 326.734 134.477 325.344C134.477 323.99 134.807 322.938 135.469 322.188C136.135 321.438 137.073 321.062 138.281 321.062C139.464 321.062 140.378 321.409 141.023 322.102C141.669 322.794 141.992 323.802 141.992 325.125C141.992 325.5 141.977 325.857 141.945 326.195H135.867V324.727H139.914C139.914 324.169 139.771 323.742 139.484 323.445C139.203 323.148 138.807 323 138.297 323C137.745 323 137.315 323.198 137.008 323.594C136.706 323.984 136.555 324.542 136.555 325.266C136.555 326.047 136.779 326.641 137.227 327.047C137.68 327.453 138.323 327.656 139.156 327.656C139.531 327.656 139.901 327.638 140.266 327.602C140.63 327.56 141.003 327.505 141.383 327.438L141.586 329.438C141.055 329.531 140.57 329.591 140.133 329.617C139.695 329.643 139.307 329.656 138.969 329.656ZM155.367 326.32V324.422H156.891C157.573 324.422 158.099 324.234 158.469 323.859C158.844 323.484 159.031 322.961 159.031 322.289C159.031 321.654 158.844 321.164 158.469 320.82C158.099 320.477 157.573 320.305 156.891 320.305H155.398V318.406H156.891C158.281 318.406 159.357 318.734 160.117 319.391C160.878 320.042 161.258 320.964 161.258 322.156C161.258 323.479 160.878 324.505 160.117 325.234C159.357 325.958 158.281 326.32 156.891 326.32H155.367ZM153.492 329.5V318.406H155.555V329.5H153.492ZM167.961 329.578L167.781 327.125L167.75 326.047V324.43C167.75 323.987 167.56 323.664 167.18 323.461C166.805 323.253 166.245 323.138 165.5 323.117L163.383 323.062L163.539 321.141L165.344 321.164C166.844 321.185 167.958 321.482 168.688 322.055C169.417 322.622 169.781 323.453 169.781 324.547V327.609L170.93 327.781V329.5L167.961 329.578ZM165.156 329.656C164.276 329.656 163.591 329.44 163.102 329.008C162.612 328.576 162.367 327.961 162.367 327.164C162.367 326.237 162.688 325.526 163.328 325.031C163.969 324.536 164.878 324.289 166.055 324.289C166.508 324.289 166.898 324.312 167.227 324.359C167.56 324.406 167.896 324.479 168.234 324.578L167.891 326.227C167.557 326.148 167.258 326.104 166.992 326.094C166.727 326.078 166.448 326.07 166.156 326.07C165.062 326.07 164.516 326.383 164.516 327.008C164.516 327.289 164.615 327.505 164.812 327.656C165.01 327.802 165.299 327.875 165.68 327.875C166.138 327.875 166.521 327.789 166.828 327.617C167.135 327.445 167.365 327.227 167.516 326.961C167.672 326.695 167.75 326.422 167.75 326.141V325.625L168.047 327.75H167.383L167.656 327.5C167.641 327.979 167.531 328.38 167.328 328.703C167.125 329.021 166.839 329.26 166.469 329.422C166.104 329.578 165.667 329.656 165.156 329.656ZM177.203 329.5V324.633C177.203 324.133 177.099 323.747 176.891 323.477C176.688 323.206 176.396 323.07 176.016 323.07C174.953 323.07 174.422 323.836 174.422 325.367L173.938 322.719H174.625C174.703 322.161 174.893 321.747 175.195 321.477C175.497 321.201 175.956 321.062 176.57 321.062C177.445 321.062 178.122 321.328 178.602 321.859C179.081 322.391 179.32 323.141 179.32 324.109V329.5H177.203ZM172.305 329.5V321.219H174.195L174.422 322.969V329.5H172.305ZM185.844 329.656C184.411 329.656 183.305 329.286 182.523 328.547C181.742 327.802 181.352 326.734 181.352 325.344C181.352 323.99 181.682 322.938 182.344 322.188C183.01 321.438 183.948 321.062 185.156 321.062C186.339 321.062 187.253 321.409 187.898 322.102C188.544 322.794 188.867 323.802 188.867 325.125C188.867 325.5 188.852 325.857 188.82 326.195H182.742V324.727H186.789C186.789 324.169 186.646 323.742 186.359 323.445C186.078 323.148 185.682 323 185.172 323C184.62 323 184.19 323.198 183.883 323.594C183.581 323.984 183.43 324.542 183.43 325.266C183.43 326.047 183.654 326.641 184.102 327.047C184.555 327.453 185.198 327.656 186.031 327.656C186.406 327.656 186.776 327.638 187.141 327.602C187.505 327.56 187.878 327.505 188.258 327.438L188.461 329.438C187.93 329.531 187.445 329.591 187.008 329.617C186.57 329.643 186.182 329.656 185.844 329.656ZM195.797 329.656C194.755 329.656 194.003 329.37 193.539 328.797C193.081 328.224 192.852 327.307 192.852 326.047V317.781H194.961V325.969C194.961 326.312 194.997 326.594 195.07 326.812C195.143 327.031 195.284 327.193 195.492 327.297C195.701 327.401 196.01 327.453 196.422 327.453C196.88 327.453 197.458 327.354 198.156 327.156L198.398 329.328C197.956 329.443 197.529 329.526 197.117 329.578C196.706 329.63 196.266 329.656 195.797 329.656ZM190.508 319.727V317.781H192.992V319.727H190.508Z" fill="white"/>
<rect width="560" height="29" transform="translate(20 354)" fill="#FF7396"/>
<path d="M247.805 374.156C247.174 374.156 246.562 374.104 245.969 374C245.375 373.891 244.844 373.74 244.375 373.547L244.656 371.438C245.229 371.677 245.797 371.862 246.359 371.992C246.927 372.122 247.451 372.188 247.93 372.188C248.487 372.188 248.914 372.089 249.211 371.891C249.508 371.693 249.656 371.409 249.656 371.039C249.656 370.555 249.352 370.169 248.742 369.883L247.148 369.109C246.362 368.724 245.753 368.247 245.32 367.68C244.888 367.112 244.672 366.484 244.672 365.797C244.672 364.828 244.992 364.078 245.633 363.547C246.273 363.016 247.18 362.75 248.352 362.75C249.034 362.75 249.68 362.87 250.289 363.109C250.904 363.349 251.448 363.695 251.922 364.148L250.5 365.781C250.141 365.438 249.779 365.174 249.414 364.992C249.049 364.805 248.698 364.711 248.359 364.711C247.901 364.711 247.544 364.81 247.289 365.008C247.034 365.201 246.906 365.482 246.906 365.852C246.906 366.096 246.995 366.328 247.172 366.547C247.354 366.766 247.612 366.964 247.945 367.141L249.445 367.914C250.227 368.32 250.828 368.794 251.25 369.336C251.677 369.878 251.891 370.458 251.891 371.078C251.891 372.062 251.536 372.823 250.828 373.359C250.12 373.891 249.112 374.156 247.805 374.156ZM253.328 377.75L253.25 375.914L254.68 375.758C255.169 375.701 255.589 375.57 255.938 375.367C256.286 375.164 256.583 374.859 256.828 374.453C257.078 374.052 257.294 373.526 257.477 372.875L259.477 365.719H261.719L259.391 373.266C259.078 374.26 258.719 375.06 258.312 375.664C257.906 376.273 257.424 376.727 256.867 377.023C256.31 377.326 255.643 377.516 254.867 377.594L253.328 377.75ZM255.953 374L253.172 365.719H255.414L257.469 372.203H257.844V374H255.953ZM266.297 374.156C265.667 374.156 265.107 374.135 264.617 374.094C264.133 374.057 263.706 374 263.336 373.922L263.586 371.898C264.242 371.982 264.794 372.044 265.242 372.086C265.69 372.128 266.042 372.148 266.297 372.148C267.005 372.148 267.518 372.102 267.836 372.008C268.154 371.909 268.312 371.753 268.312 371.539C268.312 371.414 268.273 371.315 268.195 371.242C268.117 371.169 267.992 371.107 267.82 371.055L265.125 370.273C264.573 370.112 264.156 369.867 263.875 369.539C263.599 369.206 263.461 368.76 263.461 368.203C263.461 367.312 263.836 366.651 264.586 366.219C265.336 365.781 266.474 365.562 268 365.562C268.354 365.562 268.721 365.576 269.102 365.602C269.487 365.628 269.893 365.667 270.32 365.719L270.094 367.68C269.62 367.638 269.206 367.609 268.852 367.594C268.497 367.578 268.198 367.57 267.953 367.57C267.135 367.57 266.542 367.617 266.172 367.711C265.807 367.799 265.625 367.948 265.625 368.156C265.625 368.286 265.661 368.388 265.734 368.461C265.812 368.529 265.932 368.586 266.094 368.633L268.414 369.273C269.128 369.466 269.659 369.747 270.008 370.117C270.362 370.482 270.539 370.958 270.539 371.547C270.539 372.427 270.19 373.083 269.492 373.516C268.794 373.943 267.729 374.156 266.297 374.156ZM278.07 374.156C276.643 374.156 275.612 373.87 274.977 373.297C274.341 372.724 274.023 371.807 274.023 370.547V369.469H276.133V370.344C276.133 370.974 276.294 371.432 276.617 371.719C276.945 372.005 277.482 372.148 278.227 372.148C278.466 372.148 278.721 372.135 278.992 372.109C279.268 372.078 279.581 372.039 279.93 371.992L280.117 373.969C279.773 374.031 279.438 374.078 279.109 374.109C278.786 374.141 278.44 374.156 278.07 374.156ZM274.023 369.961V363.219H276.133V369.961H274.023ZM272.039 367.664V365.719H279.805V367.664H272.039ZM286.344 374.156C284.911 374.156 283.805 373.786 283.023 373.047C282.242 372.302 281.852 371.234 281.852 369.844C281.852 368.49 282.182 367.438 282.844 366.688C283.51 365.938 284.448 365.562 285.656 365.562C286.839 365.562 287.753 365.909 288.398 366.602C289.044 367.294 289.367 368.302 289.367 369.625C289.367 370 289.352 370.357 289.32 370.695H283.242V369.227H287.289C287.289 368.669 287.146 368.242 286.859 367.945C286.578 367.648 286.182 367.5 285.672 367.5C285.12 367.5 284.69 367.698 284.383 368.094C284.081 368.484 283.93 369.042 283.93 369.766C283.93 370.547 284.154 371.141 284.602 371.547C285.055 371.953 285.698 372.156 286.531 372.156C286.906 372.156 287.276 372.138 287.641 372.102C288.005 372.06 288.378 372.005 288.758 371.938L288.961 373.938C288.43 374.031 287.945 374.091 287.508 374.117C287.07 374.143 286.682 374.156 286.344 374.156ZM296.93 374V368.391C296.93 367.818 296.763 367.531 296.43 367.531C296.055 367.531 295.867 367.841 295.867 368.461L295.305 366.75H296.008C296.055 366.38 296.198 366.091 296.438 365.883C296.682 365.669 297.003 365.562 297.398 365.562C297.956 365.562 298.362 365.716 298.617 366.023C298.878 366.331 299.008 366.828 299.008 367.516V374H296.93ZM291.117 374V365.719H293.016L293.203 367.469V374H291.117ZM294.297 374V368.234C294.297 367.766 294.13 367.531 293.797 367.531C293.401 367.531 293.203 367.841 293.203 368.461L292.719 366.75H293.312C293.427 365.958 293.846 365.562 294.57 365.562C294.971 365.562 295.286 365.711 295.516 366.008C295.75 366.305 295.867 366.755 295.867 367.359V374H294.297ZM312.117 370.82V368.922H313.641C314.323 368.922 314.849 368.734 315.219 368.359C315.594 367.984 315.781 367.461 315.781 366.789C315.781 366.154 315.594 365.664 315.219 365.32C314.849 364.977 314.323 364.805 313.641 364.805H312.148V362.906H313.641C315.031 362.906 316.107 363.234 316.867 363.891C317.628 364.542 318.008 365.464 318.008 366.656C318.008 367.979 317.628 369.005 316.867 369.734C316.107 370.458 315.031 370.82 313.641 370.82H312.117ZM310.242 374V362.906H312.305V374H310.242ZM324.711 374.078L324.531 371.625L324.5 370.547V368.93C324.5 368.487 324.31 368.164 323.93 367.961C323.555 367.753 322.995 367.638 322.25 367.617L320.133 367.562L320.289 365.641L322.094 365.664C323.594 365.685 324.708 365.982 325.438 366.555C326.167 367.122 326.531 367.953 326.531 369.047V372.109L327.68 372.281V374L324.711 374.078ZM321.906 374.156C321.026 374.156 320.341 373.94 319.852 373.508C319.362 373.076 319.117 372.461 319.117 371.664C319.117 370.737 319.438 370.026 320.078 369.531C320.719 369.036 321.628 368.789 322.805 368.789C323.258 368.789 323.648 368.812 323.977 368.859C324.31 368.906 324.646 368.979 324.984 369.078L324.641 370.727C324.307 370.648 324.008 370.604 323.742 370.594C323.477 370.578 323.198 370.57 322.906 370.57C321.812 370.57 321.266 370.883 321.266 371.508C321.266 371.789 321.365 372.005 321.562 372.156C321.76 372.302 322.049 372.375 322.43 372.375C322.888 372.375 323.271 372.289 323.578 372.117C323.885 371.945 324.115 371.727 324.266 371.461C324.422 371.195 324.5 370.922 324.5 370.641V370.125L324.797 372.25H324.133L324.406 372C324.391 372.479 324.281 372.88 324.078 373.203C323.875 373.521 323.589 373.76 323.219 373.922C322.854 374.078 322.417 374.156 321.906 374.156ZM333.953 374V369.133C333.953 368.633 333.849 368.247 333.641 367.977C333.438 367.706 333.146 367.57 332.766 367.57C331.703 367.57 331.172 368.336 331.172 369.867L330.688 367.219H331.375C331.453 366.661 331.643 366.247 331.945 365.977C332.247 365.701 332.706 365.562 333.32 365.562C334.195 365.562 334.872 365.828 335.352 366.359C335.831 366.891 336.07 367.641 336.07 368.609V374H333.953ZM329.055 374V365.719H330.945L331.172 367.469V374H329.055ZM342.594 374.156C341.161 374.156 340.055 373.786 339.273 373.047C338.492 372.302 338.102 371.234 338.102 369.844C338.102 368.49 338.432 367.438 339.094 366.688C339.76 365.938 340.698 365.562 341.906 365.562C343.089 365.562 344.003 365.909 344.648 366.602C345.294 367.294 345.617 368.302 345.617 369.625C345.617 370 345.602 370.357 345.57 370.695H339.492V369.227H343.539C343.539 368.669 343.396 368.242 343.109 367.945C342.828 367.648 342.432 367.5 341.922 367.5C341.37 367.5 340.94 367.698 340.633 368.094C340.331 368.484 340.18 369.042 340.18 369.766C340.18 370.547 340.404 371.141 340.852 371.547C341.305 371.953 341.948 372.156 342.781 372.156C343.156 372.156 343.526 372.138 343.891 372.102C344.255 372.06 344.628 372.005 345.008 371.938L345.211 373.938C344.68 374.031 344.195 374.091 343.758 374.117C343.32 374.143 342.932 374.156 342.594 374.156ZM352.547 374.156C351.505 374.156 350.753 373.87 350.289 373.297C349.831 372.724 349.602 371.807 349.602 370.547V362.281H351.711V370.469C351.711 370.812 351.747 371.094 351.82 371.312C351.893 371.531 352.034 371.693 352.242 371.797C352.451 371.901 352.76 371.953 353.172 371.953C353.63 371.953 354.208 371.854 354.906 371.656L355.148 373.828C354.706 373.943 354.279 374.026 353.867 374.078C353.456 374.13 353.016 374.156 352.547 374.156ZM347.258 364.227V362.281H349.742V364.227H347.258Z" fill="white"/>
<defs>
<linearGradient id="paint0_linear_122_3" x1="600" y1="0" x2="5.5631e-05" y2="400" gradientUnits="userSpaceOnUse">
<stop stop-color="#3D008C" stop-opacity="0.9"/>
<stop offset="0.522843" stop-color="#8C32FF"/>
<stop offset="1" stop-color="#EFDFFF"/>
</linearGradient>
</defs>
</svg>
