<svg viewBox="0 0 600 400" fill="none" xmlns="http://www.w3.org/2000/svg">
<rect width="600" height="400" rx="8" fill="#91A891"/>
<rect x="20" y="17" width="560" height="233" rx="8" fill="#CEF3FF"/>
<path d="M185.312 145V122.812H189.438V145H185.312ZM178.984 126.609V122.812H195.766V126.609H178.984ZM203.719 145.312C202.146 145.312 200.927 144.797 200.062 143.766C199.198 142.724 198.766 141.26 198.766 139.375V128.438H203V138.328C203 139.276 203.214 140.01 203.641 140.531C204.078 141.042 204.677 141.297 205.438 141.297C206.427 141.297 207.172 140.917 207.672 140.156C208.182 139.385 208.438 138.099 208.438 136.297L209.281 141.812H208C207.74 142.938 207.234 143.802 206.484 144.406C205.734 145.01 204.812 145.312 203.719 145.312ZM208.719 145.156L208.438 141.188V138.281H212.672V141.219L214.953 141.562V145L208.719 145.156ZM208.438 140.312V128.438H212.672V139.375L208.438 140.312ZM227.656 145V135.266C227.656 134.266 227.448 133.495 227.031 132.953C226.625 132.411 226.042 132.141 225.281 132.141C223.156 132.141 222.094 133.672 222.094 136.734L221.125 131.438H222.5C222.656 130.323 223.036 129.495 223.641 128.953C224.245 128.401 225.161 128.125 226.391 128.125C228.141 128.125 229.495 128.656 230.453 129.719C231.411 130.781 231.891 132.281 231.891 134.219V145H227.656ZM217.859 145V128.438H221.641L222.094 131.938V145H217.859ZM246.406 145V135.266C246.406 134.266 246.198 133.495 245.781 132.953C245.375 132.411 244.792 132.141 244.031 132.141C241.906 132.141 240.844 133.672 240.844 136.734L239.875 131.438H241.25C241.406 130.323 241.786 129.495 242.391 128.953C242.995 128.401 243.911 128.125 245.141 128.125C246.891 128.125 248.245 128.656 249.203 129.719C250.161 130.781 250.641 132.281 250.641 134.219V145H246.406ZM236.609 145V128.438H240.391L240.844 131.938V145H236.609ZM263.688 145.312C260.823 145.312 258.609 144.573 257.047 143.094C255.484 141.604 254.703 139.469 254.703 136.688C254.703 133.979 255.365 131.875 256.688 130.375C258.021 128.875 259.896 128.125 262.312 128.125C264.677 128.125 266.505 128.818 267.797 130.203C269.089 131.589 269.734 133.604 269.734 136.25C269.734 137 269.703 137.714 269.641 138.391H257.484V135.453H265.578C265.578 134.339 265.292 133.484 264.719 132.891C264.156 132.297 263.365 132 262.344 132C261.24 132 260.38 132.396 259.766 133.188C259.161 133.969 258.859 135.083 258.859 136.531C258.859 138.094 259.307 139.281 260.203 140.094C261.109 140.906 262.396 141.312 264.062 141.312C264.812 141.312 265.552 141.276 266.281 141.203C267.01 141.12 267.755 141.01 268.516 140.875L268.922 144.875C267.859 145.062 266.891 145.182 266.016 145.234C265.141 145.286 264.365 145.312 263.688 145.312ZM283.594 145.312C281.51 145.312 280.005 144.74 279.078 143.594C278.161 142.448 277.703 140.615 277.703 138.094V121.562H281.922V137.938C281.922 138.625 281.995 139.188 282.141 139.625C282.286 140.062 282.568 140.385 282.984 140.594C283.401 140.802 284.021 140.906 284.844 140.906C285.76 140.906 286.917 140.708 288.312 140.312L288.797 144.656C287.911 144.885 287.057 145.052 286.234 145.156C285.411 145.26 284.531 145.312 283.594 145.312ZM273.016 125.453V121.562H277.984V125.453H273.016ZM320.938 145.312C313.865 145.312 310.328 141.5 310.328 133.875C310.328 130.26 311.219 127.464 313 125.484C314.781 123.495 317.302 122.5 320.562 122.5C322.031 122.5 323.333 122.74 324.469 123.219C325.604 123.688 326.464 124.359 327.047 125.234L324.734 128.266C324.266 127.682 323.667 127.234 322.938 126.922C322.219 126.599 321.438 126.438 320.594 126.438C318.802 126.438 317.365 127.073 316.281 128.344C315.208 129.604 314.672 131.396 314.672 133.719C314.672 138.823 316.938 141.375 321.469 141.375C322.979 141.375 324.469 141.062 325.938 140.438L326.656 144.25C324.844 144.958 322.938 145.312 320.938 145.312ZM339.844 145.312C337.76 145.312 336.255 144.74 335.328 143.594C334.411 142.448 333.953 140.615 333.953 138.094V121.562H338.172V137.938C338.172 138.625 338.245 139.188 338.391 139.625C338.536 140.062 338.818 140.385 339.234 140.594C339.651 140.802 340.271 140.906 341.094 140.906C342.01 140.906 343.167 140.708 344.562 140.312L345.047 144.656C344.161 144.885 343.307 145.052 342.484 145.156C341.661 145.26 340.781 145.312 339.844 145.312ZM329.266 125.453V121.562H334.234V125.453H329.266ZM355.109 145V129.375H359.328V145H355.109ZM348.984 145V141.094H355.422V145H348.984ZM359.016 145V141.094H364.234V145H359.016ZM349.922 132.344V128.438H359.328V132.344H349.922ZM357.031 126.203C356.229 126.203 355.578 125.953 355.078 125.453C354.578 124.953 354.328 124.302 354.328 123.5C354.328 122.698 354.578 122.047 355.078 121.547C355.578 121.047 356.229 120.797 357.031 120.797C357.833 120.797 358.484 121.047 358.984 121.547C359.484 122.047 359.734 122.698 359.734 123.5C359.734 124.302 359.484 124.953 358.984 125.453C358.484 125.953 357.833 126.203 357.031 126.203ZM376.188 145.312C373.323 145.312 371.109 144.573 369.547 143.094C367.984 141.604 367.203 139.469 367.203 136.688C367.203 133.979 367.865 131.875 369.188 130.375C370.521 128.875 372.396 128.125 374.812 128.125C377.177 128.125 379.005 128.818 380.297 130.203C381.589 131.589 382.234 133.604 382.234 136.25C382.234 137 382.203 137.714 382.141 138.391H369.984V135.453H378.078C378.078 134.339 377.792 133.484 377.219 132.891C376.656 132.297 375.865 132 374.844 132C373.74 132 372.88 132.396 372.266 133.188C371.661 133.969 371.359 135.083 371.359 136.531C371.359 138.094 371.807 139.281 372.703 140.094C373.609 140.906 374.896 141.312 376.562 141.312C377.312 141.312 378.052 141.276 378.781 141.203C379.51 141.12 380.255 141.01 381.016 140.875L381.422 144.875C380.359 145.062 379.391 145.182 378.516 145.234C377.641 145.286 376.865 145.312 376.188 145.312ZM396.406 145V135.266C396.406 134.266 396.198 133.495 395.781 132.953C395.375 132.411 394.792 132.141 394.031 132.141C391.906 132.141 390.844 133.672 390.844 136.734L389.875 131.438H391.25C391.406 130.323 391.786 129.495 392.391 128.953C392.995 128.401 393.911 128.125 395.141 128.125C396.891 128.125 398.245 128.656 399.203 129.719C400.161 130.781 400.641 132.281 400.641 134.219V145H396.406ZM386.609 145V128.438H390.391L390.844 131.938V145H386.609ZM415.891 145.312C413.036 145.312 410.974 144.74 409.703 143.594C408.432 142.448 407.797 140.615 407.797 138.094V135.938H412.016V137.688C412.016 138.948 412.339 139.865 412.984 140.438C413.641 141.01 414.714 141.297 416.203 141.297C416.682 141.297 417.193 141.271 417.734 141.219C418.286 141.156 418.911 141.078 419.609 140.984L419.984 144.938C419.297 145.062 418.625 145.156 417.969 145.219C417.323 145.281 416.63 145.312 415.891 145.312ZM407.797 136.922V123.438H412.016V136.922H407.797ZM403.828 132.328V128.438H419.359V132.328H403.828Z" fill="#705EA7"/>
<rect x="20" y="262" width="265" height="32" fill="#F7A4A4"/>
<rect x="20" y="308" width="265" height="32" fill="#FFFBC1"/>
<rect x="20" y="354" width="560" height="32" fill="#E5BA73"/>
<rect x="315" y="262" width="265" height="32" fill="#FEBE8C"/>
<rect x="315" y="308" width="265" height="32" fill="#B6E2A1"/>
<path d="M89.8438 284.156C86.3073 284.156 84.5391 282.25 84.5391 278.438C84.5391 276.63 84.9844 275.232 85.875 274.242C86.7656 273.247 88.026 272.75 89.6562 272.75C90.3906 272.75 91.0417 272.87 91.6094 273.109C92.1771 273.344 92.6068 273.68 92.8984 274.117L91.7422 275.633C91.5078 275.341 91.2083 275.117 90.8438 274.961C90.4844 274.799 90.0938 274.719 89.6719 274.719C88.776 274.719 88.0573 275.036 87.5156 275.672C86.9792 276.302 86.7109 277.198 86.7109 278.359C86.7109 280.911 87.8438 282.188 90.1094 282.188C90.8646 282.188 91.6094 282.031 92.3438 281.719L92.7031 283.625C91.7969 283.979 90.8438 284.156 89.8438 284.156ZM98.0625 284.156C96.8698 284.156 95.9453 283.781 95.2891 283.031C94.6328 282.281 94.3047 281.224 94.3047 279.859C94.3047 278.49 94.6328 277.432 95.2891 276.688C95.9453 275.938 96.8698 275.562 98.0625 275.562C99.2552 275.562 100.18 275.938 100.836 276.688C101.492 277.432 101.82 278.49 101.82 279.859C101.82 281.224 101.492 282.281 100.836 283.031C100.18 283.781 99.2552 284.156 98.0625 284.156ZM98.0625 282.148C98.5729 282.148 98.9661 281.951 99.2422 281.555C99.5182 281.154 99.6562 280.589 99.6562 279.859C99.6562 279.125 99.5182 278.56 99.2422 278.164C98.9661 277.768 98.5729 277.57 98.0625 277.57C97.5573 277.57 97.1641 277.768 96.8828 278.164C96.6068 278.56 96.4688 279.125 96.4688 279.859C96.4688 280.589 96.6068 281.154 96.8828 281.555C97.1641 281.951 97.5573 282.148 98.0625 282.148ZM108.828 284V279.133C108.828 278.633 108.724 278.247 108.516 277.977C108.312 277.706 108.021 277.57 107.641 277.57C106.578 277.57 106.047 278.336 106.047 279.867L105.562 277.219H106.25C106.328 276.661 106.518 276.247 106.82 275.977C107.122 275.701 107.581 275.562 108.195 275.562C109.07 275.562 109.747 275.828 110.227 276.359C110.706 276.891 110.945 277.641 110.945 278.609V284H108.828ZM103.93 284V275.719H105.82L106.047 277.469V284H103.93ZM116.172 284.156C115.542 284.156 114.982 284.135 114.492 284.094C114.008 284.057 113.581 284 113.211 283.922L113.461 281.898C114.117 281.982 114.669 282.044 115.117 282.086C115.565 282.128 115.917 282.148 116.172 282.148C116.88 282.148 117.393 282.102 117.711 282.008C118.029 281.909 118.188 281.753 118.188 281.539C118.188 281.414 118.148 281.315 118.07 281.242C117.992 281.169 117.867 281.107 117.695 281.055L115 280.273C114.448 280.112 114.031 279.867 113.75 279.539C113.474 279.206 113.336 278.76 113.336 278.203C113.336 277.312 113.711 276.651 114.461 276.219C115.211 275.781 116.349 275.562 117.875 275.562C118.229 275.562 118.596 275.576 118.977 275.602C119.362 275.628 119.768 275.667 120.195 275.719L119.969 277.68C119.495 277.638 119.081 277.609 118.727 277.594C118.372 277.578 118.073 277.57 117.828 277.57C117.01 277.57 116.417 277.617 116.047 277.711C115.682 277.799 115.5 277.948 115.5 278.156C115.5 278.286 115.536 278.388 115.609 278.461C115.688 278.529 115.807 278.586 115.969 278.633L118.289 279.273C119.003 279.466 119.534 279.747 119.883 280.117C120.237 280.482 120.414 280.958 120.414 281.547C120.414 282.427 120.065 283.083 119.367 283.516C118.669 283.943 117.604 284.156 116.172 284.156ZM126.188 284.156C124.995 284.156 124.07 283.781 123.414 283.031C122.758 282.281 122.43 281.224 122.43 279.859C122.43 278.49 122.758 277.432 123.414 276.688C124.07 275.938 124.995 275.562 126.188 275.562C127.38 275.562 128.305 275.938 128.961 276.688C129.617 277.432 129.945 278.49 129.945 279.859C129.945 281.224 129.617 282.281 128.961 283.031C128.305 283.781 127.38 284.156 126.188 284.156ZM126.188 282.148C126.698 282.148 127.091 281.951 127.367 281.555C127.643 281.154 127.781 280.589 127.781 279.859C127.781 279.125 127.643 278.56 127.367 278.164C127.091 277.768 126.698 277.57 126.188 277.57C125.682 277.57 125.289 277.768 125.008 278.164C124.732 278.56 124.594 279.125 124.594 279.859C124.594 280.589 124.732 281.154 125.008 281.555C125.289 281.951 125.682 282.148 126.188 282.148ZM136.797 284.156C135.755 284.156 135.003 283.87 134.539 283.297C134.081 282.724 133.852 281.807 133.852 280.547V272.281H135.961V280.469C135.961 280.812 135.997 281.094 136.07 281.312C136.143 281.531 136.284 281.693 136.492 281.797C136.701 281.901 137.01 281.953 137.422 281.953C137.88 281.953 138.458 281.854 139.156 281.656L139.398 283.828C138.956 283.943 138.529 284.026 138.117 284.078C137.706 284.13 137.266 284.156 136.797 284.156ZM131.508 274.227V272.281H133.992V274.227H131.508ZM145.594 284.156C144.161 284.156 143.055 283.786 142.273 283.047C141.492 282.302 141.102 281.234 141.102 279.844C141.102 278.49 141.432 277.438 142.094 276.688C142.76 275.938 143.698 275.562 144.906 275.562C146.089 275.562 147.003 275.909 147.648 276.602C148.294 277.294 148.617 278.302 148.617 279.625C148.617 280 148.602 280.357 148.57 280.695H142.492V279.227H146.539C146.539 278.669 146.396 278.242 146.109 277.945C145.828 277.648 145.432 277.5 144.922 277.5C144.37 277.5 143.94 277.698 143.633 278.094C143.331 278.484 143.18 279.042 143.18 279.766C143.18 280.547 143.404 281.141 143.852 281.547C144.305 281.953 144.948 282.156 145.781 282.156C146.156 282.156 146.526 282.138 146.891 282.102C147.255 282.06 147.628 282.005 148.008 281.938L148.211 283.938C147.68 284.031 147.195 284.091 146.758 284.117C146.32 284.143 145.932 284.156 145.594 284.156ZM161.992 280.82V278.922H163.516C164.198 278.922 164.724 278.734 165.094 278.359C165.469 277.984 165.656 277.461 165.656 276.789C165.656 276.154 165.469 275.664 165.094 275.32C164.724 274.977 164.198 274.805 163.516 274.805H162.023V272.906H163.516C164.906 272.906 165.982 273.234 166.742 273.891C167.503 274.542 167.883 275.464 167.883 276.656C167.883 277.979 167.503 279.005 166.742 279.734C165.982 280.458 164.906 280.82 163.516 280.82H161.992ZM160.117 284V272.906H162.18V284H160.117ZM174.586 284.078L174.406 281.625L174.375 280.547V278.93C174.375 278.487 174.185 278.164 173.805 277.961C173.43 277.753 172.87 277.638 172.125 277.617L170.008 277.562L170.164 275.641L171.969 275.664C173.469 275.685 174.583 275.982 175.312 276.555C176.042 277.122 176.406 277.953 176.406 279.047V282.109L177.555 282.281V284L174.586 284.078ZM171.781 284.156C170.901 284.156 170.216 283.94 169.727 283.508C169.237 283.076 168.992 282.461 168.992 281.664C168.992 280.737 169.312 280.026 169.953 279.531C170.594 279.036 171.503 278.789 172.68 278.789C173.133 278.789 173.523 278.812 173.852 278.859C174.185 278.906 174.521 278.979 174.859 279.078L174.516 280.727C174.182 280.648 173.883 280.604 173.617 280.594C173.352 280.578 173.073 280.57 172.781 280.57C171.688 280.57 171.141 280.883 171.141 281.508C171.141 281.789 171.24 282.005 171.438 282.156C171.635 282.302 171.924 282.375 172.305 282.375C172.763 282.375 173.146 282.289 173.453 282.117C173.76 281.945 173.99 281.727 174.141 281.461C174.297 281.195 174.375 280.922 174.375 280.641V280.125L174.672 282.25H174.008L174.281 282C174.266 282.479 174.156 282.88 173.953 283.203C173.75 283.521 173.464 283.76 173.094 283.922C172.729 284.078 172.292 284.156 171.781 284.156ZM183.828 284V279.133C183.828 278.633 183.724 278.247 183.516 277.977C183.312 277.706 183.021 277.57 182.641 277.57C181.578 277.57 181.047 278.336 181.047 279.867L180.562 277.219H181.25C181.328 276.661 181.518 276.247 181.82 275.977C182.122 275.701 182.581 275.562 183.195 275.562C184.07 275.562 184.747 275.828 185.227 276.359C185.706 276.891 185.945 277.641 185.945 278.609V284H183.828ZM178.93 284V275.719H180.82L181.047 277.469V284H178.93ZM192.469 284.156C191.036 284.156 189.93 283.786 189.148 283.047C188.367 282.302 187.977 281.234 187.977 279.844C187.977 278.49 188.307 277.438 188.969 276.688C189.635 275.938 190.573 275.562 191.781 275.562C192.964 275.562 193.878 275.909 194.523 276.602C195.169 277.294 195.492 278.302 195.492 279.625C195.492 280 195.477 280.357 195.445 280.695H189.367V279.227H193.414C193.414 278.669 193.271 278.242 192.984 277.945C192.703 277.648 192.307 277.5 191.797 277.5C191.245 277.5 190.815 277.698 190.508 278.094C190.206 278.484 190.055 279.042 190.055 279.766C190.055 280.547 190.279 281.141 190.727 281.547C191.18 281.953 191.823 282.156 192.656 282.156C193.031 282.156 193.401 282.138 193.766 282.102C194.13 282.06 194.503 282.005 194.883 281.938L195.086 283.938C194.555 284.031 194.07 284.091 193.633 284.117C193.195 284.143 192.807 284.156 192.469 284.156ZM202.422 284.156C201.38 284.156 200.628 283.87 200.164 283.297C199.706 282.724 199.477 281.807 199.477 280.547V272.281H201.586V280.469C201.586 280.812 201.622 281.094 201.695 281.312C201.768 281.531 201.909 281.693 202.117 281.797C202.326 281.901 202.635 281.953 203.047 281.953C203.505 281.953 204.083 281.854 204.781 281.656L205.023 283.828C204.581 283.943 204.154 284.026 203.742 284.078C203.331 284.13 202.891 284.156 202.422 284.156ZM197.133 274.227V272.281H199.617V274.227H197.133Z" fill="#333333"/>
<path d="M384.25 284L382.297 275.328H381.445V272.906H383.125L385.078 281.578H385.602V284H384.25ZM380.023 284V272.906H382.008V284H380.023ZM385.367 284V272.906H387.352V284H385.367ZM393.719 284.156C392.286 284.156 391.18 283.786 390.398 283.047C389.617 282.302 389.227 281.234 389.227 279.844C389.227 278.49 389.557 277.438 390.219 276.688C390.885 275.938 391.823 275.562 393.031 275.562C394.214 275.562 395.128 275.909 395.773 276.602C396.419 277.294 396.742 278.302 396.742 279.625C396.742 280 396.727 280.357 396.695 280.695H390.617V279.227H394.664C394.664 278.669 394.521 278.242 394.234 277.945C393.953 277.648 393.557 277.5 393.047 277.5C392.495 277.5 392.065 277.698 391.758 278.094C391.456 278.484 391.305 279.042 391.305 279.766C391.305 280.547 391.529 281.141 391.977 281.547C392.43 281.953 393.073 282.156 393.906 282.156C394.281 282.156 394.651 282.138 395.016 282.102C395.38 282.06 395.753 282.005 396.133 281.938L396.336 283.938C395.805 284.031 395.32 284.091 394.883 284.117C394.445 284.143 394.057 284.156 393.719 284.156ZM404.195 284.156C402.768 284.156 401.737 283.87 401.102 283.297C400.466 282.724 400.148 281.807 400.148 280.547V279.469H402.258V280.344C402.258 280.974 402.419 281.432 402.742 281.719C403.07 282.005 403.607 282.148 404.352 282.148C404.591 282.148 404.846 282.135 405.117 282.109C405.393 282.078 405.706 282.039 406.055 281.992L406.242 283.969C405.898 284.031 405.562 284.078 405.234 284.109C404.911 284.141 404.565 284.156 404.195 284.156ZM400.148 279.961V273.219H402.258V279.961H400.148ZM398.164 277.664V275.719H405.93V277.664H398.164ZM412.617 284L411.781 277.758H411.656L410.977 275.719H412.492L413.438 282.031H413.578L414.086 275.719H416.086L415.305 284H412.617ZM408.086 284L407.539 275.719H409.594L409.891 282.031H410.031L410.977 275.719H412.492L411.797 277.758H411.688L410.852 284H408.086ZM421.188 284.156C419.995 284.156 419.07 283.781 418.414 283.031C417.758 282.281 417.43 281.224 417.43 279.859C417.43 278.49 417.758 277.432 418.414 276.688C419.07 275.938 419.995 275.562 421.188 275.562C422.38 275.562 423.305 275.938 423.961 276.688C424.617 277.432 424.945 278.49 424.945 279.859C424.945 281.224 424.617 282.281 423.961 283.031C423.305 283.781 422.38 284.156 421.188 284.156ZM421.188 282.148C421.698 282.148 422.091 281.951 422.367 281.555C422.643 281.154 422.781 280.589 422.781 279.859C422.781 279.125 422.643 278.56 422.367 278.164C422.091 277.768 421.698 277.57 421.188 277.57C420.682 277.57 420.289 277.768 420.008 278.164C419.732 278.56 419.594 279.125 419.594 279.859C419.594 280.589 419.732 281.154 420.008 281.555C420.289 281.951 420.682 282.148 421.188 282.148ZM430.227 280.438L429.742 277.586H430.453C430.536 276.237 431.242 275.562 432.57 275.562C433.357 275.562 433.958 275.852 434.375 276.43C434.797 277.008 435.008 277.841 435.008 278.93H432.898C432.898 278.44 432.807 278.089 432.625 277.875C432.448 277.661 432.161 277.555 431.766 277.555C431.25 277.555 430.865 277.805 430.609 278.305C430.354 278.805 430.227 279.516 430.227 280.438ZM426.367 284V282.188H432.164V284H426.367ZM428.117 284V275.719H429.914L430.227 278.094V284H428.117ZM426.68 277.531V275.719H429.805L429.961 277.531H426.68ZM437.672 281.055V279.047H438.609C439.229 279.047 439.737 278.94 440.133 278.727C440.534 278.508 440.849 278.156 441.078 277.672C441.307 277.182 441.474 276.531 441.578 275.719H443.758C443.534 277.51 443.029 278.849 442.242 279.734C441.456 280.615 440.375 281.055 439 281.055H437.672ZM436.367 284V272.281H438.484V284H436.367ZM441.781 284L439.75 279.969L441.641 279.328L444.289 284H441.781ZM456.992 280.82V278.922H458.516C459.198 278.922 459.724 278.734 460.094 278.359C460.469 277.984 460.656 277.461 460.656 276.789C460.656 276.154 460.469 275.664 460.094 275.32C459.724 274.977 459.198 274.805 458.516 274.805H457.023V272.906H458.516C459.906 272.906 460.982 273.234 461.742 273.891C462.503 274.542 462.883 275.464 462.883 276.656C462.883 277.979 462.503 279.005 461.742 279.734C460.982 280.458 459.906 280.82 458.516 280.82H456.992ZM455.117 284V272.906H457.18V284H455.117ZM469.586 284.078L469.406 281.625L469.375 280.547V278.93C469.375 278.487 469.185 278.164 468.805 277.961C468.43 277.753 467.87 277.638 467.125 277.617L465.008 277.562L465.164 275.641L466.969 275.664C468.469 275.685 469.583 275.982 470.312 276.555C471.042 277.122 471.406 277.953 471.406 279.047V282.109L472.555 282.281V284L469.586 284.078ZM466.781 284.156C465.901 284.156 465.216 283.94 464.727 283.508C464.237 283.076 463.992 282.461 463.992 281.664C463.992 280.737 464.312 280.026 464.953 279.531C465.594 279.036 466.503 278.789 467.68 278.789C468.133 278.789 468.523 278.812 468.852 278.859C469.185 278.906 469.521 278.979 469.859 279.078L469.516 280.727C469.182 280.648 468.883 280.604 468.617 280.594C468.352 280.578 468.073 280.57 467.781 280.57C466.688 280.57 466.141 280.883 466.141 281.508C466.141 281.789 466.24 282.005 466.438 282.156C466.635 282.302 466.924 282.375 467.305 282.375C467.763 282.375 468.146 282.289 468.453 282.117C468.76 281.945 468.99 281.727 469.141 281.461C469.297 281.195 469.375 280.922 469.375 280.641V280.125L469.672 282.25H469.008L469.281 282C469.266 282.479 469.156 282.88 468.953 283.203C468.75 283.521 468.464 283.76 468.094 283.922C467.729 284.078 467.292 284.156 466.781 284.156ZM478.828 284V279.133C478.828 278.633 478.724 278.247 478.516 277.977C478.312 277.706 478.021 277.57 477.641 277.57C476.578 277.57 476.047 278.336 476.047 279.867L475.562 277.219H476.25C476.328 276.661 476.518 276.247 476.82 275.977C477.122 275.701 477.581 275.562 478.195 275.562C479.07 275.562 479.747 275.828 480.227 276.359C480.706 276.891 480.945 277.641 480.945 278.609V284H478.828ZM473.93 284V275.719H475.82L476.047 277.469V284H473.93ZM487.469 284.156C486.036 284.156 484.93 283.786 484.148 283.047C483.367 282.302 482.977 281.234 482.977 279.844C482.977 278.49 483.307 277.438 483.969 276.688C484.635 275.938 485.573 275.562 486.781 275.562C487.964 275.562 488.878 275.909 489.523 276.602C490.169 277.294 490.492 278.302 490.492 279.625C490.492 280 490.477 280.357 490.445 280.695H484.367V279.227H488.414C488.414 278.669 488.271 278.242 487.984 277.945C487.703 277.648 487.307 277.5 486.797 277.5C486.245 277.5 485.815 277.698 485.508 278.094C485.206 278.484 485.055 279.042 485.055 279.766C485.055 280.547 485.279 281.141 485.727 281.547C486.18 281.953 486.823 282.156 487.656 282.156C488.031 282.156 488.401 282.138 488.766 282.102C489.13 282.06 489.503 282.005 489.883 281.938L490.086 283.938C489.555 284.031 489.07 284.091 488.633 284.117C488.195 284.143 487.807 284.156 487.469 284.156ZM497.422 284.156C496.38 284.156 495.628 283.87 495.164 283.297C494.706 282.724 494.477 281.807 494.477 280.547V272.281H496.586V280.469C496.586 280.812 496.622 281.094 496.695 281.312C496.768 281.531 496.909 281.693 497.117 281.797C497.326 281.901 497.635 281.953 498.047 281.953C498.505 281.953 499.083 281.854 499.781 281.656L500.023 283.828C499.581 283.943 499.154 284.026 498.742 284.078C498.331 284.13 497.891 284.156 497.422 284.156ZM492.133 274.227V272.281H494.617V274.227H492.133Z" fill="#333333"/>
<path d="M383.305 330.156C382.674 330.156 382.062 330.104 381.469 330C380.875 329.891 380.344 329.74 379.875 329.547L380.156 327.438C380.729 327.677 381.297 327.862 381.859 327.992C382.427 328.122 382.951 328.188 383.43 328.188C383.987 328.188 384.414 328.089 384.711 327.891C385.008 327.693 385.156 327.409 385.156 327.039C385.156 326.555 384.852 326.169 384.242 325.883L382.648 325.109C381.862 324.724 381.253 324.247 380.82 323.68C380.388 323.112 380.172 322.484 380.172 321.797C380.172 320.828 380.492 320.078 381.133 319.547C381.773 319.016 382.68 318.75 383.852 318.75C384.534 318.75 385.18 318.87 385.789 319.109C386.404 319.349 386.948 319.695 387.422 320.148L386 321.781C385.641 321.438 385.279 321.174 384.914 320.992C384.549 320.805 384.198 320.711 383.859 320.711C383.401 320.711 383.044 320.81 382.789 321.008C382.534 321.201 382.406 321.482 382.406 321.852C382.406 322.096 382.495 322.328 382.672 322.547C382.854 322.766 383.112 322.964 383.445 323.141L384.945 323.914C385.727 324.32 386.328 324.794 386.75 325.336C387.177 325.878 387.391 326.458 387.391 327.078C387.391 328.062 387.036 328.823 386.328 329.359C385.62 329.891 384.612 330.156 383.305 330.156ZM394.82 330.156C393.393 330.156 392.362 329.87 391.727 329.297C391.091 328.724 390.773 327.807 390.773 326.547V325.469H392.883V326.344C392.883 326.974 393.044 327.432 393.367 327.719C393.695 328.005 394.232 328.148 394.977 328.148C395.216 328.148 395.471 328.135 395.742 328.109C396.018 328.078 396.331 328.039 396.68 327.992L396.867 329.969C396.523 330.031 396.188 330.078 395.859 330.109C395.536 330.141 395.19 330.156 394.82 330.156ZM390.773 325.961V319.219H392.883V325.961H390.773ZM388.789 323.664V321.719H396.555V323.664H388.789ZM402.438 330.156C401.245 330.156 400.32 329.781 399.664 329.031C399.008 328.281 398.68 327.224 398.68 325.859C398.68 324.49 399.008 323.432 399.664 322.688C400.32 321.938 401.245 321.562 402.438 321.562C403.63 321.562 404.555 321.938 405.211 322.688C405.867 323.432 406.195 324.49 406.195 325.859C406.195 327.224 405.867 328.281 405.211 329.031C404.555 329.781 403.63 330.156 402.438 330.156ZM402.438 328.148C402.948 328.148 403.341 327.951 403.617 327.555C403.893 327.154 404.031 326.589 404.031 325.859C404.031 325.125 403.893 324.56 403.617 324.164C403.341 323.768 402.948 323.57 402.438 323.57C401.932 323.57 401.539 323.768 401.258 324.164C400.982 324.56 400.844 325.125 400.844 325.859C400.844 326.589 400.982 327.154 401.258 327.555C401.539 327.951 401.932 328.148 402.438 328.148ZM411.477 326.438L410.992 323.586H411.703C411.786 322.237 412.492 321.562 413.82 321.562C414.607 321.562 415.208 321.852 415.625 322.43C416.047 323.008 416.258 323.841 416.258 324.93H414.148C414.148 324.44 414.057 324.089 413.875 323.875C413.698 323.661 413.411 323.555 413.016 323.555C412.5 323.555 412.115 323.805 411.859 324.305C411.604 324.805 411.477 325.516 411.477 326.438ZM407.617 330V328.188H413.414V330H407.617ZM409.367 330V321.719H411.164L411.477 324.094V330H409.367ZM407.93 323.531V321.719H411.055L411.211 323.531H407.93ZM422.711 330.078L422.531 327.625L422.5 326.547V324.93C422.5 324.487 422.31 324.164 421.93 323.961C421.555 323.753 420.995 323.638 420.25 323.617L418.133 323.562L418.289 321.641L420.094 321.664C421.594 321.685 422.708 321.982 423.438 322.555C424.167 323.122 424.531 323.953 424.531 325.047V328.109L425.68 328.281V330L422.711 330.078ZM419.906 330.156C419.026 330.156 418.341 329.94 417.852 329.508C417.362 329.076 417.117 328.461 417.117 327.664C417.117 326.737 417.438 326.026 418.078 325.531C418.719 325.036 419.628 324.789 420.805 324.789C421.258 324.789 421.648 324.812 421.977 324.859C422.31 324.906 422.646 324.979 422.984 325.078L422.641 326.727C422.307 326.648 422.008 326.604 421.742 326.594C421.477 326.578 421.198 326.57 420.906 326.57C419.812 326.57 419.266 326.883 419.266 327.508C419.266 327.789 419.365 328.005 419.562 328.156C419.76 328.302 420.049 328.375 420.43 328.375C420.888 328.375 421.271 328.289 421.578 328.117C421.885 327.945 422.115 327.727 422.266 327.461C422.422 327.195 422.5 326.922 422.5 326.641V326.125L422.797 328.25H422.133L422.406 328C422.391 328.479 422.281 328.88 422.078 329.203C421.875 329.521 421.589 329.76 421.219 329.922C420.854 330.078 420.417 330.156 419.906 330.156ZM427.297 333.734L427.219 331.891L429.875 331.812C430.604 331.792 431.133 331.589 431.461 331.203C431.789 330.823 431.953 330.26 431.953 329.516V323.469L432.109 321.719H434.07V329.266C434.07 330.74 433.724 331.826 433.031 332.523C432.339 333.227 431.234 333.604 429.719 333.656L427.297 333.734ZM429.742 330.156C428.716 330.156 427.917 329.786 427.344 329.047C426.776 328.307 426.492 327.247 426.492 325.867C426.492 324.497 426.776 323.438 427.344 322.688C427.917 321.938 428.721 321.562 429.758 321.562C430.388 321.562 430.865 321.701 431.188 321.977C431.516 322.247 431.729 322.661 431.828 323.219H432.438L431.953 325.867C431.953 325.065 431.818 324.479 431.547 324.109C431.281 323.74 430.878 323.555 430.336 323.555C429.799 323.555 429.385 323.758 429.094 324.164C428.802 324.565 428.656 325.133 428.656 325.867C428.656 326.628 428.797 327.201 429.078 327.586C429.365 327.971 429.784 328.164 430.336 328.164C430.94 328.164 431.359 327.982 431.594 327.617C431.833 327.253 431.953 326.669 431.953 325.867L432.516 328.5H431.781C431.698 329.052 431.482 329.466 431.133 329.742C430.784 330.018 430.32 330.156 429.742 330.156ZM440.594 330.156C439.161 330.156 438.055 329.786 437.273 329.047C436.492 328.302 436.102 327.234 436.102 325.844C436.102 324.49 436.432 323.438 437.094 322.688C437.76 321.938 438.698 321.562 439.906 321.562C441.089 321.562 442.003 321.909 442.648 322.602C443.294 323.294 443.617 324.302 443.617 325.625C443.617 326 443.602 326.357 443.57 326.695H437.492V325.227H441.539C441.539 324.669 441.396 324.242 441.109 323.945C440.828 323.648 440.432 323.5 439.922 323.5C439.37 323.5 438.94 323.698 438.633 324.094C438.331 324.484 438.18 325.042 438.18 325.766C438.18 326.547 438.404 327.141 438.852 327.547C439.305 327.953 439.948 328.156 440.781 328.156C441.156 328.156 441.526 328.138 441.891 328.102C442.255 328.06 442.628 328.005 443.008 327.938L443.211 329.938C442.68 330.031 442.195 330.091 441.758 330.117C441.32 330.143 440.932 330.156 440.594 330.156ZM456.992 326.82V324.922H458.516C459.198 324.922 459.724 324.734 460.094 324.359C460.469 323.984 460.656 323.461 460.656 322.789C460.656 322.154 460.469 321.664 460.094 321.32C459.724 320.977 459.198 320.805 458.516 320.805H457.023V318.906H458.516C459.906 318.906 460.982 319.234 461.742 319.891C462.503 320.542 462.883 321.464 462.883 322.656C462.883 323.979 462.503 325.005 461.742 325.734C460.982 326.458 459.906 326.82 458.516 326.82H456.992ZM455.117 330V318.906H457.18V330H455.117ZM469.586 330.078L469.406 327.625L469.375 326.547V324.93C469.375 324.487 469.185 324.164 468.805 323.961C468.43 323.753 467.87 323.638 467.125 323.617L465.008 323.562L465.164 321.641L466.969 321.664C468.469 321.685 469.583 321.982 470.312 322.555C471.042 323.122 471.406 323.953 471.406 325.047V328.109L472.555 328.281V330L469.586 330.078ZM466.781 330.156C465.901 330.156 465.216 329.94 464.727 329.508C464.237 329.076 463.992 328.461 463.992 327.664C463.992 326.737 464.312 326.026 464.953 325.531C465.594 325.036 466.503 324.789 467.68 324.789C468.133 324.789 468.523 324.812 468.852 324.859C469.185 324.906 469.521 324.979 469.859 325.078L469.516 326.727C469.182 326.648 468.883 326.604 468.617 326.594C468.352 326.578 468.073 326.57 467.781 326.57C466.688 326.57 466.141 326.883 466.141 327.508C466.141 327.789 466.24 328.005 466.438 328.156C466.635 328.302 466.924 328.375 467.305 328.375C467.763 328.375 468.146 328.289 468.453 328.117C468.76 327.945 468.99 327.727 469.141 327.461C469.297 327.195 469.375 326.922 469.375 326.641V326.125L469.672 328.25H469.008L469.281 328C469.266 328.479 469.156 328.88 468.953 329.203C468.75 329.521 468.464 329.76 468.094 329.922C467.729 330.078 467.292 330.156 466.781 330.156ZM478.828 330V325.133C478.828 324.633 478.724 324.247 478.516 323.977C478.312 323.706 478.021 323.57 477.641 323.57C476.578 323.57 476.047 324.336 476.047 325.867L475.562 323.219H476.25C476.328 322.661 476.518 322.247 476.82 321.977C477.122 321.701 477.581 321.562 478.195 321.562C479.07 321.562 479.747 321.828 480.227 322.359C480.706 322.891 480.945 323.641 480.945 324.609V330H478.828ZM473.93 330V321.719H475.82L476.047 323.469V330H473.93ZM487.469 330.156C486.036 330.156 484.93 329.786 484.148 329.047C483.367 328.302 482.977 327.234 482.977 325.844C482.977 324.49 483.307 323.438 483.969 322.688C484.635 321.938 485.573 321.562 486.781 321.562C487.964 321.562 488.878 321.909 489.523 322.602C490.169 323.294 490.492 324.302 490.492 325.625C490.492 326 490.477 326.357 490.445 326.695H484.367V325.227H488.414C488.414 324.669 488.271 324.242 487.984 323.945C487.703 323.648 487.307 323.5 486.797 323.5C486.245 323.5 485.815 323.698 485.508 324.094C485.206 324.484 485.055 325.042 485.055 325.766C485.055 326.547 485.279 327.141 485.727 327.547C486.18 327.953 486.823 328.156 487.656 328.156C488.031 328.156 488.401 328.138 488.766 328.102C489.13 328.06 489.503 328.005 489.883 327.938L490.086 329.938C489.555 330.031 489.07 330.091 488.633 330.117C488.195 330.143 487.807 330.156 487.469 330.156ZM497.422 330.156C496.38 330.156 495.628 329.87 495.164 329.297C494.706 328.724 494.477 327.807 494.477 326.547V318.281H496.586V326.469C496.586 326.812 496.622 327.094 496.695 327.312C496.768 327.531 496.909 327.693 497.117 327.797C497.326 327.901 497.635 327.953 498.047 327.953C498.505 327.953 499.083 327.854 499.781 327.656L500.023 329.828C499.581 329.943 499.154 330.026 498.742 330.078C498.331 330.13 497.891 330.156 497.422 330.156ZM492.133 320.227V318.281H494.617V320.227H492.133Z" fill="#333333"/>
<path d="M85.1172 328V316.906H87.1797V328H85.1172ZM85.1172 328V326.102H92.7266V328H85.1172ZM85.1172 323.398V321.492H91.3203V323.398H85.1172ZM85.1172 318.805V316.906H92.7266V318.805H85.1172ZM99.2969 328.156C98.2552 328.156 97.5026 327.87 97.0391 327.297C96.5807 326.724 96.3516 325.807 96.3516 324.547V316.281H98.4609V324.469C98.4609 324.812 98.4974 325.094 98.5703 325.312C98.6432 325.531 98.7839 325.693 98.9922 325.797C99.2005 325.901 99.5104 325.953 99.9219 325.953C100.38 325.953 100.958 325.854 101.656 325.656L101.898 327.828C101.456 327.943 101.029 328.026 100.617 328.078C100.206 328.13 99.7656 328.156 99.2969 328.156ZM94.0078 318.227V316.281H96.4922V318.227H94.0078ZM108.094 328.156C106.661 328.156 105.555 327.786 104.773 327.047C103.992 326.302 103.602 325.234 103.602 323.844C103.602 322.49 103.932 321.438 104.594 320.688C105.26 319.938 106.198 319.562 107.406 319.562C108.589 319.562 109.503 319.909 110.148 320.602C110.794 321.294 111.117 322.302 111.117 323.625C111.117 324 111.102 324.357 111.07 324.695H104.992V323.227H109.039C109.039 322.669 108.896 322.242 108.609 321.945C108.328 321.648 107.932 321.5 107.422 321.5C106.87 321.5 106.44 321.698 106.133 322.094C105.831 322.484 105.68 323.042 105.68 323.766C105.68 324.547 105.904 325.141 106.352 325.547C106.805 325.953 107.448 326.156 108.281 326.156C108.656 326.156 109.026 326.138 109.391 326.102C109.755 326.06 110.128 326.005 110.508 325.938L110.711 327.938C110.18 328.031 109.695 328.091 109.258 328.117C108.82 328.143 108.432 328.156 108.094 328.156ZM118.68 328V322.391C118.68 321.818 118.513 321.531 118.18 321.531C117.805 321.531 117.617 321.841 117.617 322.461L117.055 320.75H117.758C117.805 320.38 117.948 320.091 118.188 319.883C118.432 319.669 118.753 319.562 119.148 319.562C119.706 319.562 120.112 319.716 120.367 320.023C120.628 320.331 120.758 320.828 120.758 321.516V328H118.68ZM112.867 328V319.719H114.766L114.953 321.469V328H112.867ZM116.047 328V322.234C116.047 321.766 115.88 321.531 115.547 321.531C115.151 321.531 114.953 321.841 114.953 322.461L114.469 320.75H115.062C115.177 319.958 115.596 319.562 116.32 319.562C116.721 319.562 117.036 319.711 117.266 320.008C117.5 320.305 117.617 320.755 117.617 321.359V328H116.047ZM126.844 328.156C125.411 328.156 124.305 327.786 123.523 327.047C122.742 326.302 122.352 325.234 122.352 323.844C122.352 322.49 122.682 321.438 123.344 320.688C124.01 319.938 124.948 319.562 126.156 319.562C127.339 319.562 128.253 319.909 128.898 320.602C129.544 321.294 129.867 322.302 129.867 323.625C129.867 324 129.852 324.357 129.82 324.695H123.742V323.227H127.789C127.789 322.669 127.646 322.242 127.359 321.945C127.078 321.648 126.682 321.5 126.172 321.5C125.62 321.5 125.19 321.698 124.883 322.094C124.581 322.484 124.43 323.042 124.43 323.766C124.43 324.547 124.654 325.141 125.102 325.547C125.555 325.953 126.198 326.156 127.031 326.156C127.406 326.156 127.776 326.138 128.141 326.102C128.505 326.06 128.878 326.005 129.258 325.938L129.461 327.938C128.93 328.031 128.445 328.091 128.008 328.117C127.57 328.143 127.182 328.156 126.844 328.156ZM136.953 328V323.133C136.953 322.633 136.849 322.247 136.641 321.977C136.438 321.706 136.146 321.57 135.766 321.57C134.703 321.57 134.172 322.336 134.172 323.867L133.688 321.219H134.375C134.453 320.661 134.643 320.247 134.945 319.977C135.247 319.701 135.706 319.562 136.32 319.562C137.195 319.562 137.872 319.828 138.352 320.359C138.831 320.891 139.07 321.641 139.07 322.609V328H136.953ZM132.055 328V319.719H133.945L134.172 321.469V328H132.055ZM146.695 328.156C145.268 328.156 144.237 327.87 143.602 327.297C142.966 326.724 142.648 325.807 142.648 324.547V323.469H144.758V324.344C144.758 324.974 144.919 325.432 145.242 325.719C145.57 326.005 146.107 326.148 146.852 326.148C147.091 326.148 147.346 326.135 147.617 326.109C147.893 326.078 148.206 326.039 148.555 325.992L148.742 327.969C148.398 328.031 148.062 328.078 147.734 328.109C147.411 328.141 147.065 328.156 146.695 328.156ZM142.648 323.961V317.219H144.758V323.961H142.648ZM140.664 321.664V319.719H148.43V321.664H140.664ZM161.992 324.82V322.922H163.516C164.198 322.922 164.724 322.734 165.094 322.359C165.469 321.984 165.656 321.461 165.656 320.789C165.656 320.154 165.469 319.664 165.094 319.32C164.724 318.977 164.198 318.805 163.516 318.805H162.023V316.906H163.516C164.906 316.906 165.982 317.234 166.742 317.891C167.503 318.542 167.883 319.464 167.883 320.656C167.883 321.979 167.503 323.005 166.742 323.734C165.982 324.458 164.906 324.82 163.516 324.82H161.992ZM160.117 328V316.906H162.18V328H160.117ZM174.586 328.078L174.406 325.625L174.375 324.547V322.93C174.375 322.487 174.185 322.164 173.805 321.961C173.43 321.753 172.87 321.638 172.125 321.617L170.008 321.562L170.164 319.641L171.969 319.664C173.469 319.685 174.583 319.982 175.312 320.555C176.042 321.122 176.406 321.953 176.406 323.047V326.109L177.555 326.281V328L174.586 328.078ZM171.781 328.156C170.901 328.156 170.216 327.94 169.727 327.508C169.237 327.076 168.992 326.461 168.992 325.664C168.992 324.737 169.312 324.026 169.953 323.531C170.594 323.036 171.503 322.789 172.68 322.789C173.133 322.789 173.523 322.812 173.852 322.859C174.185 322.906 174.521 322.979 174.859 323.078L174.516 324.727C174.182 324.648 173.883 324.604 173.617 324.594C173.352 324.578 173.073 324.57 172.781 324.57C171.688 324.57 171.141 324.883 171.141 325.508C171.141 325.789 171.24 326.005 171.438 326.156C171.635 326.302 171.924 326.375 172.305 326.375C172.763 326.375 173.146 326.289 173.453 326.117C173.76 325.945 173.99 325.727 174.141 325.461C174.297 325.195 174.375 324.922 174.375 324.641V324.125L174.672 326.25H174.008L174.281 326C174.266 326.479 174.156 326.88 173.953 327.203C173.75 327.521 173.464 327.76 173.094 327.922C172.729 328.078 172.292 328.156 171.781 328.156ZM183.828 328V323.133C183.828 322.633 183.724 322.247 183.516 321.977C183.312 321.706 183.021 321.57 182.641 321.57C181.578 321.57 181.047 322.336 181.047 323.867L180.562 321.219H181.25C181.328 320.661 181.518 320.247 181.82 319.977C182.122 319.701 182.581 319.562 183.195 319.562C184.07 319.562 184.747 319.828 185.227 320.359C185.706 320.891 185.945 321.641 185.945 322.609V328H183.828ZM178.93 328V319.719H180.82L181.047 321.469V328H178.93ZM192.469 328.156C191.036 328.156 189.93 327.786 189.148 327.047C188.367 326.302 187.977 325.234 187.977 323.844C187.977 322.49 188.307 321.438 188.969 320.688C189.635 319.938 190.573 319.562 191.781 319.562C192.964 319.562 193.878 319.909 194.523 320.602C195.169 321.294 195.492 322.302 195.492 323.625C195.492 324 195.477 324.357 195.445 324.695H189.367V323.227H193.414C193.414 322.669 193.271 322.242 192.984 321.945C192.703 321.648 192.307 321.5 191.797 321.5C191.245 321.5 190.815 321.698 190.508 322.094C190.206 322.484 190.055 323.042 190.055 323.766C190.055 324.547 190.279 325.141 190.727 325.547C191.18 325.953 191.823 326.156 192.656 326.156C193.031 326.156 193.401 326.138 193.766 326.102C194.13 326.06 194.503 326.005 194.883 325.938L195.086 327.938C194.555 328.031 194.07 328.091 193.633 328.117C193.195 328.143 192.807 328.156 192.469 328.156ZM202.422 328.156C201.38 328.156 200.628 327.87 200.164 327.297C199.706 326.724 199.477 325.807 199.477 324.547V316.281H201.586V324.469C201.586 324.812 201.622 325.094 201.695 325.312C201.768 325.531 201.909 325.693 202.117 325.797C202.326 325.901 202.635 325.953 203.047 325.953C203.505 325.953 204.083 325.854 204.781 325.656L205.023 327.828C204.581 327.943 204.154 328.026 203.742 328.078C203.331 328.13 202.891 328.156 202.422 328.156ZM197.133 318.227V316.281H199.617V318.227H197.133Z" fill="#333333"/>
<path d="M235.305 376.156C234.674 376.156 234.062 376.104 233.469 376C232.875 375.891 232.344 375.74 231.875 375.547L232.156 373.438C232.729 373.677 233.297 373.862 233.859 373.992C234.427 374.122 234.951 374.188 235.43 374.188C235.987 374.188 236.414 374.089 236.711 373.891C237.008 373.693 237.156 373.409 237.156 373.039C237.156 372.555 236.852 372.169 236.242 371.883L234.648 371.109C233.862 370.724 233.253 370.247 232.82 369.68C232.388 369.112 232.172 368.484 232.172 367.797C232.172 366.828 232.492 366.078 233.133 365.547C233.773 365.016 234.68 364.75 235.852 364.75C236.534 364.75 237.18 364.87 237.789 365.109C238.404 365.349 238.948 365.695 239.422 366.148L238 367.781C237.641 367.438 237.279 367.174 236.914 366.992C236.549 366.805 236.198 366.711 235.859 366.711C235.401 366.711 235.044 366.81 234.789 367.008C234.534 367.201 234.406 367.482 234.406 367.852C234.406 368.096 234.495 368.328 234.672 368.547C234.854 368.766 235.112 368.964 235.445 369.141L236.945 369.914C237.727 370.32 238.328 370.794 238.75 371.336C239.177 371.878 239.391 372.458 239.391 373.078C239.391 374.062 239.036 374.823 238.328 375.359C237.62 375.891 236.612 376.156 235.305 376.156ZM240.828 379.75L240.75 377.914L242.18 377.758C242.669 377.701 243.089 377.57 243.438 377.367C243.786 377.164 244.083 376.859 244.328 376.453C244.578 376.052 244.794 375.526 244.977 374.875L246.977 367.719H249.219L246.891 375.266C246.578 376.26 246.219 377.06 245.812 377.664C245.406 378.273 244.924 378.727 244.367 379.023C243.81 379.326 243.143 379.516 242.367 379.594L240.828 379.75ZM243.453 376L240.672 367.719H242.914L244.969 374.203H245.344V376H243.453ZM253.797 376.156C253.167 376.156 252.607 376.135 252.117 376.094C251.633 376.057 251.206 376 250.836 375.922L251.086 373.898C251.742 373.982 252.294 374.044 252.742 374.086C253.19 374.128 253.542 374.148 253.797 374.148C254.505 374.148 255.018 374.102 255.336 374.008C255.654 373.909 255.812 373.753 255.812 373.539C255.812 373.414 255.773 373.315 255.695 373.242C255.617 373.169 255.492 373.107 255.32 373.055L252.625 372.273C252.073 372.112 251.656 371.867 251.375 371.539C251.099 371.206 250.961 370.76 250.961 370.203C250.961 369.312 251.336 368.651 252.086 368.219C252.836 367.781 253.974 367.562 255.5 367.562C255.854 367.562 256.221 367.576 256.602 367.602C256.987 367.628 257.393 367.667 257.82 367.719L257.594 369.68C257.12 369.638 256.706 369.609 256.352 369.594C255.997 369.578 255.698 369.57 255.453 369.57C254.635 369.57 254.042 369.617 253.672 369.711C253.307 369.799 253.125 369.948 253.125 370.156C253.125 370.286 253.161 370.388 253.234 370.461C253.312 370.529 253.432 370.586 253.594 370.633L255.914 371.273C256.628 371.466 257.159 371.747 257.508 372.117C257.862 372.482 258.039 372.958 258.039 373.547C258.039 374.427 257.69 375.083 256.992 375.516C256.294 375.943 255.229 376.156 253.797 376.156ZM265.57 376.156C264.143 376.156 263.112 375.87 262.477 375.297C261.841 374.724 261.523 373.807 261.523 372.547V371.469H263.633V372.344C263.633 372.974 263.794 373.432 264.117 373.719C264.445 374.005 264.982 374.148 265.727 374.148C265.966 374.148 266.221 374.135 266.492 374.109C266.768 374.078 267.081 374.039 267.43 373.992L267.617 375.969C267.273 376.031 266.938 376.078 266.609 376.109C266.286 376.141 265.94 376.156 265.57 376.156ZM261.523 371.961V365.219H263.633V371.961H261.523ZM259.539 369.664V367.719H267.305V369.664H259.539ZM273.844 376.156C272.411 376.156 271.305 375.786 270.523 375.047C269.742 374.302 269.352 373.234 269.352 371.844C269.352 370.49 269.682 369.438 270.344 368.688C271.01 367.938 271.948 367.562 273.156 367.562C274.339 367.562 275.253 367.909 275.898 368.602C276.544 369.294 276.867 370.302 276.867 371.625C276.867 372 276.852 372.357 276.82 372.695H270.742V371.227H274.789C274.789 370.669 274.646 370.242 274.359 369.945C274.078 369.648 273.682 369.5 273.172 369.5C272.62 369.5 272.19 369.698 271.883 370.094C271.581 370.484 271.43 371.042 271.43 371.766C271.43 372.547 271.654 373.141 272.102 373.547C272.555 373.953 273.198 374.156 274.031 374.156C274.406 374.156 274.776 374.138 275.141 374.102C275.505 374.06 275.878 374.005 276.258 373.938L276.461 375.938C275.93 376.031 275.445 376.091 275.008 376.117C274.57 376.143 274.182 376.156 273.844 376.156ZM284.43 376V370.391C284.43 369.818 284.263 369.531 283.93 369.531C283.555 369.531 283.367 369.841 283.367 370.461L282.805 368.75H283.508C283.555 368.38 283.698 368.091 283.938 367.883C284.182 367.669 284.503 367.562 284.898 367.562C285.456 367.562 285.862 367.716 286.117 368.023C286.378 368.331 286.508 368.828 286.508 369.516V376H284.43ZM278.617 376V367.719H280.516L280.703 369.469V376H278.617ZM281.797 376V370.234C281.797 369.766 281.63 369.531 281.297 369.531C280.901 369.531 280.703 369.841 280.703 370.461L280.219 368.75H280.812C280.927 367.958 281.346 367.562 282.07 367.562C282.471 367.562 282.786 367.711 283.016 368.008C283.25 368.305 283.367 368.755 283.367 369.359V376H281.797ZM299.617 372.82V370.922H301.141C301.823 370.922 302.349 370.734 302.719 370.359C303.094 369.984 303.281 369.461 303.281 368.789C303.281 368.154 303.094 367.664 302.719 367.32C302.349 366.977 301.823 366.805 301.141 366.805H299.648V364.906H301.141C302.531 364.906 303.607 365.234 304.367 365.891C305.128 366.542 305.508 367.464 305.508 368.656C305.508 369.979 305.128 371.005 304.367 371.734C303.607 372.458 302.531 372.82 301.141 372.82H299.617ZM297.742 376V364.906H299.805V376H297.742ZM312.211 376.078L312.031 373.625L312 372.547V370.93C312 370.487 311.81 370.164 311.43 369.961C311.055 369.753 310.495 369.638 309.75 369.617L307.633 369.562L307.789 367.641L309.594 367.664C311.094 367.685 312.208 367.982 312.938 368.555C313.667 369.122 314.031 369.953 314.031 371.047V374.109L315.18 374.281V376L312.211 376.078ZM309.406 376.156C308.526 376.156 307.841 375.94 307.352 375.508C306.862 375.076 306.617 374.461 306.617 373.664C306.617 372.737 306.938 372.026 307.578 371.531C308.219 371.036 309.128 370.789 310.305 370.789C310.758 370.789 311.148 370.812 311.477 370.859C311.81 370.906 312.146 370.979 312.484 371.078L312.141 372.727C311.807 372.648 311.508 372.604 311.242 372.594C310.977 372.578 310.698 372.57 310.406 372.57C309.312 372.57 308.766 372.883 308.766 373.508C308.766 373.789 308.865 374.005 309.062 374.156C309.26 374.302 309.549 374.375 309.93 374.375C310.388 374.375 310.771 374.289 311.078 374.117C311.385 373.945 311.615 373.727 311.766 373.461C311.922 373.195 312 372.922 312 372.641V372.125L312.297 374.25H311.633L311.906 374C311.891 374.479 311.781 374.88 311.578 375.203C311.375 375.521 311.089 375.76 310.719 375.922C310.354 376.078 309.917 376.156 309.406 376.156ZM321.453 376V371.133C321.453 370.633 321.349 370.247 321.141 369.977C320.938 369.706 320.646 369.57 320.266 369.57C319.203 369.57 318.672 370.336 318.672 371.867L318.188 369.219H318.875C318.953 368.661 319.143 368.247 319.445 367.977C319.747 367.701 320.206 367.562 320.82 367.562C321.695 367.562 322.372 367.828 322.852 368.359C323.331 368.891 323.57 369.641 323.57 370.609V376H321.453ZM316.555 376V367.719H318.445L318.672 369.469V376H316.555ZM330.094 376.156C328.661 376.156 327.555 375.786 326.773 375.047C325.992 374.302 325.602 373.234 325.602 371.844C325.602 370.49 325.932 369.438 326.594 368.688C327.26 367.938 328.198 367.562 329.406 367.562C330.589 367.562 331.503 367.909 332.148 368.602C332.794 369.294 333.117 370.302 333.117 371.625C333.117 372 333.102 372.357 333.07 372.695H326.992V371.227H331.039C331.039 370.669 330.896 370.242 330.609 369.945C330.328 369.648 329.932 369.5 329.422 369.5C328.87 369.5 328.44 369.698 328.133 370.094C327.831 370.484 327.68 371.042 327.68 371.766C327.68 372.547 327.904 373.141 328.352 373.547C328.805 373.953 329.448 374.156 330.281 374.156C330.656 374.156 331.026 374.138 331.391 374.102C331.755 374.06 332.128 374.005 332.508 373.938L332.711 375.938C332.18 376.031 331.695 376.091 331.258 376.117C330.82 376.143 330.432 376.156 330.094 376.156ZM340.047 376.156C339.005 376.156 338.253 375.87 337.789 375.297C337.331 374.724 337.102 373.807 337.102 372.547V364.281H339.211V372.469C339.211 372.812 339.247 373.094 339.32 373.312C339.393 373.531 339.534 373.693 339.742 373.797C339.951 373.901 340.26 373.953 340.672 373.953C341.13 373.953 341.708 373.854 342.406 373.656L342.648 375.828C342.206 375.943 341.779 376.026 341.367 376.078C340.956 376.13 340.516 376.156 340.047 376.156ZM334.758 366.227V364.281H337.242V366.227H334.758Z" fill="#333333"/>
</svg>
