<svg width="28" height="22" viewBox="0 0 28 22" xmlns="http://www.w3.org/2000/svg">

  <path
    d="M2.66667 21.6667C2.11111 21.6667 1.63867 21.472 1.24933 21.0827C0.860001 20.6933 0.665778 20.2213 0.666667 19.6667C0.666667 19.1111 0.861334 18.6387 1.25067 18.2493C1.64 17.86 2.112 17.6658 2.66667 17.6667H3.33333V3.00001C3.33333 2.26668 3.59467 1.63868 4.11733 1.11601C4.64 0.593346 5.26756 0.332457 6 0.333346H24.6667C25.0444 0.333346 25.3613 0.461346 25.6173 0.717346C25.8733 0.973346 26.0009 1.28979 26 1.66668C26 2.04446 25.872 2.36135 25.616 2.61735C25.36 2.87335 25.0436 3.0009 24.6667 3.00001H6V17.6667H12C12.5556 17.6667 13.028 17.8613 13.4173 18.2507C13.8067 18.64 14.0009 19.112 14 19.6667C14 20.2222 13.8053 20.6947 13.416 21.084C13.0267 21.4733 12.5547 21.6676 12 21.6667H2.66667ZM18 21.6667C17.6222 21.6667 17.3053 21.5387 17.0493 21.2827C16.7933 21.0267 16.6658 20.7102 16.6667 20.3333V7.00001C16.6667 6.62224 16.7947 6.30535 17.0507 6.04935C17.3067 5.79335 17.6231 5.66579 18 5.66668H26C26.3778 5.66668 26.6947 5.79468 26.9507 6.05068C27.2067 6.30668 27.3342 6.62312 27.3333 7.00001V20.3333C27.3333 20.7111 27.2053 21.028 26.9493 21.284C26.6933 21.54 26.3769 21.6676 26 21.6667H18ZM19.3333 17.6667H24.6667V8.33335H19.3333V17.6667Z"
    fill="currentColor" />
</svg>
