<svg xmlns="http://www.w3.org/2000/svg" width="1em" height="1em" viewBox="0 0 256 256"><defs><radialGradient id="logosMicrosoftEdge0" cx="161.83" cy="788.401" r="95.38" gradientTransform="matrix(.9999 0 0 .9498 -4.622 -570.387)" gradientUnits="userSpaceOnUse"><stop offset=".72" stop-opacity="0"/><stop offset=".95" stop-opacity=".53"/><stop offset="1"/></radialGradient><radialGradient id="logosMicrosoftEdge1" cx="-773.636" cy="746.715" r="143.24" gradientTransform="matrix(.15 -.9898 .8 .12 -410.718 -656.341)" gradientUnits="userSpaceOnUse"><stop offset=".76" stop-opacity="0"/><stop offset=".95" stop-opacity=".5"/><stop offset="1"/></radialGradient><radialGradient id="logosMicrosoftEdge2" cx="230.593" cy="-106.038" r="202.43" gradientTransform="matrix(-.04 .9998 -2.1299 -.07998 -190.775 -191.635)" gradientUnits="userSpaceOnUse"><stop offset="0" stop-color="#35C1F1"/><stop offset=".11" stop-color="#34C1ED"/><stop offset=".23" stop-color="#2FC2DF"/><stop offset=".31" stop-color="#2BC3D2"/><stop offset=".67" stop-color="#36C752"/></radialGradient><radialGradient id="logosMicrosoftEdge3" cx="536.357" cy="-117.703" r="97.34" gradientTransform="matrix(.28 .9598 -.78 .23 -1.928 -410.318)" gradientUnits="userSpaceOnUse"><stop offset="0" stop-color="#66EB6E"/><stop offset="1" stop-color="#66EB6E" stop-opacity="0"/></radialGradient><linearGradient id="logosMicrosoftEdge4" x1="63.334" x2="241.617" y1="757.83" y2="757.83" gradientTransform="translate(-4.63 -580.81)" gradientUnits="userSpaceOnUse"><stop offset="0" stop-color="#0C59A4"/><stop offset="1" stop-color="#114A8B"/></linearGradient><linearGradient id="logosMicrosoftEdge5" x1="157.401" x2="46.028" y1="680.556" y2="801.868" gradientTransform="translate(-4.63 -580.81)" gradientUnits="userSpaceOnUse"><stop offset="0" stop-color="#1B9DE2"/><stop offset=".16" stop-color="#1595DF"/><stop offset=".67" stop-color="#0680D7"/><stop offset="1" stop-color="#0078D4"/></linearGradient></defs><path fill="url(#logosMicrosoftEdge4)" d="M231 190.5c-3.4 1.8-6.9 3.4-10.5 4.7c-11.5 4.3-23.6 6.5-35.9 6.5c-47.3 0-88.5-32.5-88.5-74.3c.1-11.4 6.4-21.9 16.4-27.3c-42.8 1.8-53.8 46.4-53.8 72.5c0 73.9 68.1 81.4 82.8 81.4c7.9 0 19.8-2.3 27-4.6l1.3-.4c27.6-9.5 51-28.1 66.6-52.8c1.2-1.9.6-4.3-1.2-5.5c-1.3-.8-2.9-.9-4.2-.2z"/><path fill="url(#logosMicrosoftEdge0)" d="M231 190.5c-3.4 1.8-6.9 3.4-10.5 4.7c-11.5 4.3-23.6 6.5-35.9 6.5c-47.3 0-88.5-32.5-88.5-74.3c.1-11.4 6.4-21.9 16.4-27.3c-42.8 1.8-53.8 46.4-53.8 72.5c0 73.9 68.1 81.4 82.8 81.4c7.9 0 19.8-2.3 27-4.6l1.3-.4c27.6-9.5 51-28.1 66.6-52.8c1.2-1.9.6-4.3-1.2-5.5c-1.3-.8-2.9-.9-4.2-.2z" opacity=".35"/><path fill="url(#logosMicrosoftEdge5)" d="M105.7 241.4c-8.9-5.5-16.6-12.8-22.7-21.3c-26.3-36-18.4-86.5 17.6-112.8c3.8-2.7 7.7-5.2 11.9-7.2c3.1-1.5 8.4-4.1 15.5-4c10.1.1 19.6 4.9 25.7 13c4 5.4 6.3 11.9 6.4 18.7c0-.2 24.5-79.6-80-79.6c-43.9 0-80 41.7-80 78.2c-.2 19.3 4 38.5 12.1 56c27.6 58.8 94.8 87.6 156.4 67.1c-21.1 6.6-44.1 3.7-62.9-8.1z"/><path fill="url(#logosMicrosoftEdge1)" d="M105.7 241.4c-8.9-5.5-16.6-12.8-22.7-21.3c-26.3-36-18.4-86.5 17.6-112.8c3.8-2.7 7.7-5.2 11.9-7.2c3.1-1.5 8.4-4.1 15.5-4c10.1.1 19.6 4.9 25.7 13c4 5.4 6.3 11.9 6.4 18.7c0-.2 24.5-79.6-80-79.6c-43.9 0-80 41.7-80 78.2c-.2 19.3 4 38.5 12.1 56c27.6 58.8 94.8 87.6 156.4 67.1c-21.1 6.6-44.1 3.7-62.9-8.1z" opacity=".41"/><path fill="url(#logosMicrosoftEdge2)" d="M152.3 148.9c-.8 1-3.3 2.5-3.3 5.7c0 2.6 1.7 5.1 4.7 7.2c14.4 10 41.5 8.7 41.6 8.7c10.7 0 21.1-2.9 30.3-8.3c18.8-11 30.4-31.1 30.4-52.9c.3-22.4-8-37.3-11.3-43.9C223.5 23.9 177.7 0 128 0C58 0 1 56.2 0 126.2c.5-36.5 36.8-66 80-66c3.5 0 23.5.3 42 10.1c16.3 8.6 24.9 18.9 30.8 29.2c6.2 10.7 7.3 24.1 7.3 29.5c0 5.3-2.7 13.3-7.8 19.9z"/><path fill="url(#logosMicrosoftEdge3)" d="M152.3 148.9c-.8 1-3.3 2.5-3.3 5.7c0 2.6 1.7 5.1 4.7 7.2c14.4 10 41.5 8.7 41.6 8.7c10.7 0 21.1-2.9 30.3-8.3c18.8-11 30.4-31.1 30.4-52.9c.3-22.4-8-37.3-11.3-43.9C223.5 23.9 177.7 0 128 0C58 0 1 56.2 0 126.2c.5-36.5 36.8-66 80-66c3.5 0 23.5.3 42 10.1c16.3 8.6 24.9 18.9 30.8 29.2c6.2 10.7 7.3 24.1 7.3 29.5c0 5.3-2.7 13.3-7.8 19.9z"/></svg>