<svg width="160" height="152" viewBox="0 0 160 152" fill="none" xmlns="http://www.w3.org/2000/svg">
  <path
    d="M67.797 151.228C105.24 151.228 135.594 145.556 135.594 138.56C135.594 131.564 105.24 125.892 67.797 125.892C30.3537 125.892 0 131.564 0 138.56C0 145.556 30.3537 151.228 67.797 151.228Z"
    fill="#2D2D2D" fill-opacity="0.8" />
  <path fill-rule="evenodd" clip-rule="evenodd"
    d="M122.034 101.344L98.1091 71.8991C96.9611 70.5131 95.2831 69.6741 93.5161 69.6741H42.0761C40.3101 69.6741 38.6321 70.5131 37.4841 71.8991L13.5601 101.344V116.727H122.035V101.344H122.034Z"
    fill="#3D4044" />
  <path fill-rule="evenodd" clip-rule="evenodd"
    d="M33.8301 31.67H101.763C102.824 31.67 103.841 32.0915 104.592 32.8416C105.342 33.5918 105.763 34.6092 105.763 35.67V129.014C105.763 130.075 105.342 131.092 104.592 131.842C103.841 132.593 102.824 133.014 101.763 133.014H33.8301C32.7692 133.014 31.7518 132.593 31.0017 131.842C30.2515 131.092 29.8301 130.075 29.8301 129.014V35.67C29.8301 34.6092 30.2515 33.5918 31.0017 32.8416C31.7518 32.0915 32.7692 31.67 33.8301 31.67Z"
    fill="#272727" />
  <path fill-rule="evenodd" clip-rule="evenodd"
    d="M42.6781 41.623H92.9151C93.4455 41.623 93.9542 41.8338 94.3293 42.2088C94.7044 42.5839 94.9151 43.0926 94.9151 43.623V68.58C94.9151 69.1105 94.7044 69.6192 94.3293 69.9943C93.9542 70.3693 93.4455 70.58 92.9151 70.58H42.6781C42.1477 70.58 41.6389 70.3693 41.2639 69.9943C40.8888 69.6192 40.6781 69.1105 40.6781 68.58V43.623C40.6781 43.0926 40.8888 42.5839 41.2639 42.2088C41.6389 41.8338 42.1477 41.623 42.6781 41.623ZM42.9401 81.437H92.6531C93.253 81.437 93.8283 81.6754 94.2526 82.0996C94.6768 82.5238 94.9151 83.0991 94.9151 83.699C94.9151 84.299 94.6768 84.8743 94.2526 85.2985C93.8283 85.7227 93.253 85.961 92.6531 85.961H42.9401C42.3402 85.961 41.7648 85.7227 41.3406 85.2985C40.9164 84.8743 40.6781 84.299 40.6781 83.699C40.6781 83.0991 40.9164 82.5238 41.3406 82.0996C41.7648 81.6754 42.3402 81.437 42.9401 81.437ZM42.9401 93.2H92.6531C93.2531 93.2 93.8286 93.4384 94.2529 93.8627C94.6772 94.287 94.9156 94.8625 94.9156 95.4625C94.9156 96.0626 94.6772 96.6381 94.2529 97.0624C93.8286 97.4867 93.2531 97.725 92.6531 97.725H42.9401C42.34 97.725 41.7646 97.4867 41.3403 97.0624C40.916 96.6381 40.6776 96.0626 40.6776 95.4625C40.6776 94.8625 40.916 94.287 41.3403 93.8627C41.7646 93.4384 42.34 93.2 42.9401 93.2ZM121.813 136.702C121.038 139.773 118.316 142.062 115.078 142.062H20.5151C17.2771 142.062 14.5551 139.772 13.7811 136.702C13.6335 136.117 13.5589 135.516 13.5591 134.912V101.345H39.8771C42.7841 101.345 45.1271 103.793 45.1271 106.765V106.805C45.1271 109.776 47.4971 112.175 50.4041 112.175H85.1891C88.0961 112.175 90.4661 109.754 90.4661 106.782V106.77C90.4661 103.798 92.8091 101.344 95.7161 101.344H122.034V134.913C122.034 135.53 121.957 136.129 121.813 136.702Z"
    fill="#37393A" />
  <path fill-rule="evenodd" clip-rule="evenodd"
    d="M125.121 33.292L118.291 35.942C118.115 36.0102 117.924 36.0275 117.739 35.992C117.554 35.9564 117.383 35.8693 117.246 35.7408C117.108 35.6123 117.01 35.4476 116.962 35.2656C116.913 35.0836 116.918 34.8917 116.974 34.712L118.911 28.505C116.322 25.561 114.802 21.971 114.802 18.097C114.802 8.102 124.92 0 137.402 0C149.881 0 160 8.102 160 18.097C160 28.092 149.882 36.194 137.401 36.194C132.873 36.194 128.657 35.128 125.121 33.292Z"
    fill="#2A2B2D" />
  <path
    d="M146.304 21.365C147.878 21.365 149.153 20.1047 149.153 18.55C149.153 16.9953 147.878 15.735 146.304 15.735C144.731 15.735 143.455 16.9953 143.455 18.55C143.455 20.1047 144.731 21.365 146.304 21.365Z"
    fill="black" />
  <path fill-rule="evenodd" clip-rule="evenodd"
    d="M131.348 21.013H125.65L128.548 16.087L131.348 21.013ZM134.909 16.087H139.894V21.013H134.909V16.087Z"
    fill="black" />
</svg>