<?xml version="1.0" standalone="no"?><!DOCTYPE svg PUBLIC "-//W3C//DTD SVG 1.1//EN" "http://www.w3.org/Graphics/SVG/1.1/DTD/svg11.dtd"><svg t="1705549453118" class="icon" viewBox="0 0 1024 1024" version="1.1" xmlns="http://www.w3.org/2000/svg" p-id="2746" xmlns:xlink="http://www.w3.org/1999/xlink" width="48" height="48"><path d="M207.872 613.376a137.728 137.728 0 1 0 275.456-0.0512 137.728 137.728 0 0 0-275.456 0z" fill="#212A40" p-id="2747"></path><path d="M832 0H192C86.016 0 0 86.016 0 192v640C0 937.984 86.016 1024 192 1024h640c105.984 0 192-86.016 192-192V192C1024 86.016 937.984 0 832 0z m-134.656 268.8h16.896v10.24a30.464 30.464 0 0 1 10.752-9.216 30.464 30.464 0 0 1 13.824-3.072c20.48 0 30.72 11.264 30.72 33.792v50.688h-16.896V302.08c0-13.824-6.656-20.992-19.456-20.992a15.2064 15.2064 0 0 0-12.288 5.12 23.7056 23.7056 0 0 0-6.656 15.872v49.152h-16.896V268.8z m-87.04 10.24a38.6048 38.6048 0 0 1 29.696-12.288c12.288 0 22.528 4.096 29.696 12.288 7.4752 8.4992 11.4688 19.456 11.264 30.72a45.0048 45.0048 0 0 1-10.752 30.72 39.7312 39.7312 0 0 1-30.208 12.288 39.7312 39.7312 0 0 1-30.208-12.288 44.0832 44.0832 0 0 1-10.752-30.72c0-12.288 4.096-22.528 11.264-30.72z m-206.336-10.24h16.896v12.288a31.6928 31.6928 0 0 1 7.68-10.24 20.0192 20.0192 0 0 1 13.312-4.608c4.096 0 7.68 0.512 10.752 2.048v16.896a43.6736 43.6736 0 0 0-11.776-1.536 19.0976 19.0976 0 0 0-13.824 6.144 24.064 24.064 0 0 0-6.144 17.408v43.52h-16.896v-81.92z m-54.272 11.776a24.3712 24.3712 0 0 0-13.312 3.072 16.9472 16.9472 0 0 0-6.656 10.752h-16.896a28.7744 28.7744 0 0 1 12.288-21.504 44.3392 44.3392 0 0 1 25.088-6.144c12.288 0 20.992 3.072 26.624 9.216 5.12 5.12 7.68 12.8 7.68 23.04v52.224h-15.36v-11.776a40.96 40.96 0 0 1-12.288 10.24 44.6464 44.6464 0 0 1-18.944 3.584c-8.704 0-15.36-2.048-19.968-6.656a22.1184 22.1184 0 0 1-7.68-17.408c0-10.24 4.096-17.92 12.288-23.04 8.2944-4.4544 17.7152-6.6048 27.136-6.144h18.432v-2.048c0-11.776-6.144-17.408-18.432-17.408z m-150.528-43.008h17.408v47.616h59.392v-47.616h17.408v113.152h-17.408v-50.688H216.576v50.688h-17.408V237.568z m301.056 621.056H201.216v-38.912h299.52v38.912h-0.512z m-154.624-64a181.248 181.248 0 1 1 0-362.496 181.248 181.248 0 0 1 0 362.496z m202.752-514.048a14.848 14.848 0 0 0-11.776 5.12 20.992 20.992 0 0 0-4.608 14.336v50.688h-16.896v-50.688c0-12.8-5.632-19.456-16.896-19.456a14.8992 14.8992 0 0 0-12.8 6.144c-3.584 3.584-5.12 8.704-5.12 14.848v49.152h-16.896v-81.92h16.896v9.216a28.5696 28.5696 0 0 1 22.528-11.264c12.288 0 20.992 4.608 26.112 13.824a32.768 32.768 0 0 1 11.776-10.752 27.648 27.648 0 0 1 13.824-3.072 27.7504 27.7504 0 0 1 27.3408 18.3808c1.3824 3.7888 2.048 7.7824 1.8432 11.8272v53.76h-16.896v-51.2c0-6.656-1.536-11.776-4.096-14.848-3.072-2.56-7.68-4.096-14.336-4.096z m247.296 488.96c-22.528 17.92-53.76 26.624-94.208 26.624-38.912 0-69.12-8.704-91.648-26.112-26.624-20.992-40.96-53.76-43.52-98.304h48.64c3.584 28.16 12.8 48.128 27.136 60.416 13.312 10.752 33.28 16.384 59.904 16.384 23.552 0 43.008-4.608 57.856-13.824a41.728 41.728 0 0 0 21.504-37.376c0-19.456-10.24-35.328-30.72-46.592-7.68-4.096-28.672-11.776-64-24.064-39.936-14.336-64.512-24.064-73.728-29.184-24.576-16.384-36.864-39.936-36.864-71.168 0-31.232 11.776-55.808 35.328-73.728 22.528-16.896 50.688-25.6 84.992-25.6 37.888 0 67.072 8.704 87.552 26.624 22.528 18.432 35.328 46.592 38.4 85.504h-48.64c-4.608-23.552-12.8-39.936-25.088-49.664-12.288-10.24-30.72-15.36-54.784-15.36-20.992 0-37.376 3.584-48.64 10.24-13.824 8.192-20.48 20.992-20.48 38.912 0 15.872 8.192 28.672 24.064 37.888 7.68 5.12 26.624 12.288 55.808 22.016 44.544 15.36 72.192 26.624 83.968 34.816 27.648 18.432 41.472 44.032 41.472 76.8-0.512 30.72-11.776 55.808-34.304 74.752z m20.48-387.072h-17.92l14.336-33.28-32.768-80.384h18.432l22.528 59.904 21.504-59.904h18.432l-44.544 113.664z" fill="#212A40" p-id="2748"></path><path d="M328.192 328.704a10.24 10.24 0 0 0 3.584 8.192c2.56 2.048 6.144 3.072 10.752 3.072 7.68 0 13.824-2.048 18.944-6.144a21.6064 21.6064 0 0 0 7.168-16.896V312.32h-17.408c-15.36 0-23.04 5.632-23.04 16.384z m311.808 10.752c7.68 0 13.824-3.072 18.432-9.216a36.4544 36.4544 0 0 0 5.632-19.968 35.84 35.84 0 0 0-5.632-20.48 21.8624 21.8624 0 0 0-18.432-9.216 20.3776 20.3776 0 0 0-17.92 9.216 34.7136 34.7136 0 0 0-5.632 20.48c0 8.192 2.048 14.848 5.632 19.968 4.096 6.144 10.24 9.216 17.92 9.216z" fill="#212A40" p-id="2749"></path></svg>