<?xml version="1.0" standalone="no"?><!DOCTYPE svg PUBLIC "-//W3C//DTD SVG 1.1//EN" "http://www.w3.org/Graphics/SVG/1.1/DTD/svg11.dtd"><svg class="icon" width="128px" height="128.00px" viewBox="0 0 1024 1024" version="1.1" xmlns="http://www.w3.org/2000/svg"><path fill="#3683F9" d="M512 39.384615C250.092308 39.384615 39.384615 250.092308 39.384615 512s210.707692 472.615385 472.615385 472.615385 472.615385-210.707692 472.615385-472.615385S773.907692 39.384615 512 39.384615z m0 238.276923c33.476923 0 59.076923 25.6 59.076923 59.076924s-25.6 59.076923-59.076923 59.076923-59.076923-25.6-59.076923-59.076923 25.6-59.076923 59.076923-59.076924z m98.461538 413.538462c0 9.846154-7.876923 17.723077-19.692307 17.723077h-157.538462c-9.846154 0-19.692308-5.907692-19.692307-17.723077v-39.384615c0-9.846154 7.876923-21.661538 19.692307-21.661539 9.846154 0 19.692308-5.907692 19.692308-17.723077v-78.769231c0-9.846154-7.876923-21.661538-19.692308-21.661538-9.846154 0-19.692308-5.907692-19.692307-17.723077v-39.384615c0-9.846154 7.876923-21.661538 19.692307-21.661539h118.153846c9.846154 0 19.692308 9.846154 19.692308 21.661539v157.538461c0 9.846154 7.876923 17.723077 19.692308 17.723077 9.846154 0 19.692308 9.846154 19.692307 21.661539v39.384615z" /></svg>
