<svg xmlns="http://www.w3.org/2000/svg" width="30.01" height="32" viewBox="0 0 256 273">
  <path fill="#E14337" d="M126.517 0L256 45.398l-19.667 167.398l-109.816 60.021l-108.811-60.102L0 45.422z" />
  <path fill="#F9BD3E"
    d="M174.235 140.62a7.467 7.467 0 0 1-7.467 7.466a7.467 7.467 0 1 1 7.467-7.466M129.68 93.85a7.466 7.466 0 1 1-14.933 0a7.466 7.466 0 0 1 14.933 0m-1.969-12.639c9.104-9.002 19.144-16.759 29.379-22.47a76.8 76.8 0 0 0-30.323-6.205c-5.039 0-9.961.5-14.731 1.424c.863 7.608 3.7 16.714 8.198 26.263a14 14 0 0 1 1.98-.158c1.955 0 3.812.412 5.497 1.146M88.907 151.76c.711-5.656 2.044-11.461 4.049-17.382c3.799-11.214 9.948-22.554 17.618-33.165a13.73 13.73 0 0 1 1.733-16.936c-4.688-9.881-7.802-19.551-8.936-28.113C72.26 66.071 49.72 95.19 49.72 129.583c0 2.254.118 4.479.307 6.684c9.542 11.564 20.334 18.108 31.005 21.5a13.8 13.8 0 0 1 7.875-6.007m43.017-36.592a159 159 0 0 1-6.096-8.029a13.7 13.7 0 0 1-3.614.495c-1.689 0-3.3-.318-4.796-.874c-6.98 9.76-12.581 20.166-16.069 30.461c-1.487 4.391-2.809 9.473-3.555 14.946a13.81 13.81 0 0 1 8.097 8.637a84 84 0 0 0 8.135-.801c13.701-2.017 27.372-7.369 39.685-14.988a13.8 13.8 0 0 1-.728-4.396c0-1.294.192-2.542.525-3.73c-7.1-5.738-14.378-12.859-21.584-21.721m1.245-12.976c7.042 9.891 15.605 19.4 25.364 27.392a13.7 13.7 0 0 1 8.235-2.749c2.729 0 5.266.803 7.406 2.171c9.813-9.608 17.616-20.733 22.215-32.446a77.4 77.4 0 0 0-29.64-32.85c-11.275 5.353-22.49 13.561-32.515 23.403a13.7 13.7 0 0 1 1.764 6.737c0 3.139-1.061 6.024-2.829 8.342m47.07 41.338c6.597 3.143 13.523 5.5 20.722 6.818a77 77 0 0 0 2.854-20.765a77 77 0 0 0-3.029-21.38c-5.209 9.957-12.464 19.349-21.092 27.664c.546 1.483.859 3.079.859 4.752c0 1-.112 1.972-.314 2.911M79.041 166.35c-9.512-2.946-18.26-7.782-26.015-14.413c7.526 24.86 27.276 44.393 52.259 51.636c-3.462-3.402-6.25-6.861-8.375-10.409a59.6 59.6 0 0 1-6.266-14.569c-6.167-.951-10.988-5.973-11.603-12.245m79.999-14.316c-13.536 8.524-28.616 14.512-43.724 16.736a92 92 0 0 1-9.61.907a13.8 13.8 0 0 1-6.288 7.378a50.7 50.7 0 0 0 5.094 11.555c3.637 6.071 9.755 11.978 18.568 17.927c1.222.058 2.451.094 3.687.094c32.212 0 59.793-19.775 71.302-47.841c-6.279-1.28-13.928-3.591-22.368-7.683a13.72 13.72 0 0 1-8.933 3.297c-2.864 0-5.524-.874-7.728-2.37m-58.816 12.955a7.467 7.467 0 1 1-14.934 0a7.467 7.467 0 0 1 14.934 0" />
  <path fill="#440401" fill-opacity=".3" d="M256 45.398L126.517 0v272.817l109.816-60.021z" />
</svg>