<svg xmlns="http://www.w3.org/2000/svg" width="24" height="24" viewBox="0 0 24 24">
  <path fill="currentColor"
    d="M4 17q-.825 0-1.413-.588T2 15V5q0-.825.588-1.413T4 3h16q.825 0 1.413.588T22 5v10q0 .825-.588 1.413T20 17H4Zm7-9h2V6h-2v2Zm0 3h2V9h-2v2ZM8 8h2V6H8v2Zm0 3h2V9H8v2Zm-3 0h2V9H5v2Zm0-3h2V6H5v2Zm4 6h6q.425 0 .713-.288T16 13q0-.425-.288-.713T15 12H9q-.425 0-.713.288T8 13q0 .425.288.713T9 14Zm5-3h2V9h-2v2Zm0-3h2V6h-2v2Zm3 3h2V9h-2v2Zm0-3h2V6h-2v2Zm-5 14.8q-.05 0-.35-.15l-2.8-2.8q-.25-.25-.125-.55T9.2 19h5.6q.35 0 .475.3t-.125.55l-2.8 2.8q-.05.05-.35.15Z" />
</svg>
