<svg xmlns="http://www.w3.org/2000/svg" width="32" height="32" viewBox="0 0 24 24">
  <g fill="none" fill-rule="evenodd">
    <path
      d="M24 0v24H0V0zM12.594 23.258l-.012.002l-.071.035l-.02.004l-.014-.004l-.071-.036c-.01-.003-.019 0-.024.006l-.004.01l-.017.428l.005.02l.01.013l.104.074l.015.004l.012-.004l.104-.074l.012-.016l.004-.017l-.017-.427c-.002-.01-.009-.017-.016-.018m.264-.113l-.014.002l-.184.093l-.01.01l-.003.011l.018.43l.005.012l.008.008l.201.092c.012.004.023 0 .029-.008l.004-.014l-.034-.614c-.003-.012-.01-.02-.02-.022m-.715.002a.023.023 0 0 0-.027.006l-.006.014l-.034.614c0 .012.007.02.017.024l.015-.002l.201-.093l.01-.008l.003-.011l.018-.43l-.003-.012l-.01-.01z" />
    <path fill="#0CC160"
      d="M12 22c5.523 0 10-4.477 10-10S17.523 2 12 2S2 6.477 2 12s4.477 10 10 10m5.165-14.735a3.437 3.437 0 0 0-3.104-.94l-.118.024A3.661 3.661 0 0 0 11 9.939v4.122a1.66 1.66 0 0 1-1.335 1.629l-.118.023a1.437 1.437 0 0 1-.815-2.743l.104-.042a1 1 0 0 0-.743-1.857l-.104.042c-2.291.917-2.899 3.877-1.154 5.622a3.437 3.437 0 0 0 3.104.94l.118-.024A3.661 3.661 0 0 0 13 14.061V9.94a1.66 1.66 0 0 1 1.335-1.629l.118-.023a1.437 1.437 0 0 1 .815 2.743l-.104.042a1 1 0 0 0 .743 1.857l.104-.042c2.291-.917 2.899-3.877 1.154-5.622" />
  </g>
</svg>
