<svg width="33" height="33" viewBox="0 0 33 33" fill="none" xmlns="http://www.w3.org/2000/svg">
<g clip-path="url(#clip0_737_9)">
<rect x="0.666992" y="0.666687" width="32" height="32" rx="16" fill="white"/>
<path fill-rule="evenodd" clip-rule="evenodd" d="M16.667 32.6667C25.5038 32.6667 32.667 25.5035 32.667 16.6667C32.667 7.82989 25.5038 0.666687 16.667 0.666687C7.83019 0.666687 0.666992 7.82989 0.666992 16.6667C0.666992 25.5035 7.83019 32.6667 16.667 32.6667ZM24.931 9.09069C24.2909 8.4506 23.5027 7.97843 22.6363 7.71606C21.77 7.4537 20.8523 7.40926 19.9646 7.58669L19.7758 7.62509C18.4479 7.89067 17.2531 8.60811 16.3946 9.65535C15.5361 10.7026 15.067 12.0149 15.067 13.3691V19.9643C15.0674 20.5788 14.8548 21.1744 14.4653 21.6496C14.0758 22.1249 13.5336 22.4504 12.931 22.5707L12.7422 22.6075C12.1804 22.7188 11.5973 22.6164 11.107 22.3204C10.6167 22.0243 10.2545 21.556 10.0914 21.007C9.9283 20.458 9.97595 19.8678 10.2251 19.3521C10.4742 18.8364 10.9068 18.4322 11.4382 18.2187L11.6046 18.1515C11.9986 17.9938 12.3138 17.6861 12.481 17.2961C12.6481 16.906 12.6534 16.4655 12.4958 16.0715C12.3381 15.6775 12.0304 15.3622 11.6404 15.1951C11.2503 15.028 10.8098 15.0226 10.4158 15.1803L10.2494 15.2475C6.58379 16.7147 5.61099 21.4507 8.40299 24.2427C9.04308 24.8828 9.83128 25.3549 10.6976 25.6173C11.564 25.8797 12.4817 25.9241 13.3694 25.7467L13.5582 25.7083C14.8861 25.4427 16.0809 24.7253 16.9394 23.678C17.7979 22.6308 18.267 21.3184 18.267 19.9643V13.3707C18.2666 12.7562 18.4792 12.1606 18.8687 11.6854C19.2582 11.2101 19.8004 10.8846 20.403 10.7643L20.5918 10.7275C21.1536 10.6162 21.7367 10.7186 22.227 11.0146C22.7173 11.3106 23.0794 11.779 23.2426 12.328C23.4057 12.877 23.358 13.4671 23.1089 13.9829C22.8598 14.4986 22.4272 14.9028 21.8958 15.1163L21.7294 15.1835C21.3354 15.3411 21.0201 15.6488 20.853 16.0389C20.6859 16.429 20.6805 16.8695 20.8382 17.2635C20.9958 17.6575 21.3035 17.9727 21.6936 18.1399C22.0837 18.307 22.5242 18.3123 22.9182 18.1547L23.0846 18.0875C26.7502 16.6203 27.723 11.8827 24.931 9.09069Z" fill="#0CC160"/>
</g>
<defs>
<clipPath id="clip0_737_9">
<rect x="0.666992" y="0.666687" width="32" height="32" rx="16" fill="white"/>
</clipPath>
</defs>
</svg>
