<svg width="32" height="28" viewBox="0 0 32 28" fill="none" xmlns="http://www.w3.org/2000/svg">
  <g filter="url(#filter0_d_1624_32)">
    <path
      d="M10.5393 19.4174C10.6102 19.7359 10.7769 20.0252 11.0168 20.2463C11.2568 20.4675 11.5587 20.61 11.882 20.6547C12.2053 20.6994 12.5345 20.6441 12.8255 20.4964C13.1165 20.3486 13.3553 20.1154 13.51 19.828L16.2967 15.704L22.8393 22.2467C22.9714 22.3788 23.1283 22.4836 23.3009 22.5551C23.4735 22.6266 23.6585 22.6634 23.8453 22.6634C24.0322 22.6634 24.2172 22.6266 24.3898 22.5551C24.5624 22.4836 24.7192 22.3788 24.8513 22.2467L26.2473 20.8507C26.3794 20.7186 26.4842 20.5618 26.5557 20.3892C26.6272 20.2165 26.664 20.0315 26.664 19.8447C26.664 19.6579 26.6272 19.4729 26.5557 19.3003C26.4842 19.1277 26.3794 18.9708 26.2473 18.8387L19.7047 12.296L23.8553 9.50937C24.1427 9.3546 24.3758 9.11564 24.5235 8.82456C24.6712 8.53348 24.7263 8.2042 24.6815 7.8809C24.6366 7.55759 24.494 7.25574 24.2727 7.01583C24.0513 6.77592 23.762 6.60943 23.4433 6.53871L5.33398 1.33337L10.5393 19.4174Z"
      fill="black" />
    <path
      d="M10.5393 19.4174C10.6102 19.7359 10.7769 20.0252 11.0168 20.2463C11.2568 20.4675 11.5587 20.61 11.882 20.6547C12.2053 20.6994 12.5345 20.6441 12.8255 20.4964C13.1165 20.3486 13.3553 20.1154 13.51 19.828L16.2967 15.704L22.8393 22.2467C22.9714 22.3788 23.1283 22.4836 23.3009 22.5551C23.4735 22.6266 23.6585 22.6634 23.8453 22.6634C24.0322 22.6634 24.2172 22.6266 24.3898 22.5551C24.5624 22.4836 24.7192 22.3788 24.8513 22.2467L26.2473 20.8507C26.3794 20.7186 26.4842 20.5618 26.5557 20.3892C26.6272 20.2165 26.664 20.0315 26.664 19.8447C26.664 19.6579 26.6272 19.4729 26.5557 19.3003C26.4842 19.1277 26.3794 18.9708 26.2473 18.8387L19.7047 12.296L23.8553 9.50937C24.1427 9.3546 24.3758 9.11564 24.5235 8.82456C24.6712 8.53348 24.7263 8.2042 24.6815 7.8809C24.6366 7.55759 24.494 7.25574 24.2727 7.01583C24.0513 6.77592 23.762 6.60943 23.4433 6.53871L5.33398 1.33337L10.5393 19.4174Z"
      stroke="white" stroke-width="2.66667" stroke-linecap="round" stroke-linejoin="round" />
  </g>
  <defs>
    <filter id="filter0_d_1624_32" x="0" y="0" width="31.998" height="31.9968" filterUnits="userSpaceOnUse"
      color-interpolation-filters="sRGB">
      <feFlood flood-opacity="0" result="BackgroundImageFix" />
      <feColorMatrix in="SourceAlpha" type="matrix" values="0 0 0 0 0 0 0 0 0 0 0 0 0 0 0 0 0 0 127 0"
        result="hardAlpha" />
      <feOffset dy="4" />
      <feGaussianBlur stdDeviation="2" />
      <feComposite in2="hardAlpha" operator="out" />
      <feColorMatrix type="matrix" values="0 0 0 0 0 0 0 0 0 0 0 0 0 0 0 0 0 0 0.25 0" />
      <feBlend mode="normal" in2="BackgroundImageFix" result="effect1_dropShadow_1624_32" />
      <feBlend mode="normal" in="SourceGraphic" in2="effect1_dropShadow_1624_32" result="shape" />
    </filter>
  </defs>
</svg>