<?xml version="1.0" standalone="no"?><!DOCTYPE svg PUBLIC "-//W3C//DTD SVG 1.1//EN" "http://www.w3.org/Graphics/SVG/1.1/DTD/svg11.dtd"><svg t="1706002657110" class="icon" viewBox="0 0 1024 1024" version="1.1" xmlns="http://www.w3.org/2000/svg" p-id="16565" xmlns:xlink="http://www.w3.org/1999/xlink" width="48" height="48"><path d="M967.1101 733.86642c0 24.519084-12.970652 47.103948-34.360851 59.221268L546.360345 1014.897219a69.347479 69.347479 0 0 1-68.721701 0L91.24974 793.087688A68.095924 68.095924 0 0 1 56.888889 733.923309V290.13358c0-24.519084 13.08443-47.103948 34.360851-59.221268L477.638644 9.102781a69.347479 69.347479 0 0 1 68.721701 0l386.388904 221.809531c21.33331 12.174209 34.41774 34.759072 34.360851 59.164379V733.86642z m-258.104602-220.330422L506.538167 390.485468l-200.248666 121.571421 202.524219 123.05053 200.248666-121.571421z m-566.385149 1.308443v170.211367c0 24.462195 13.08443 47.103948 34.360851 59.164378l78.165246 44.942173 169.528701-102.911886L142.56346 514.844441z m533.218963-329.3863L544.995013 110.364891a69.347479 69.347479 0 0 0-68.77859 0l-299.235223 171.804253c-21.33331 12.174209-34.474628 34.815961-34.474628 59.221268v71.281698l79.587467 48.355502L675.839312 185.458141zM341.617461 838.883192l134.655851 77.255026c21.276421 12.11732 47.445281 12.11732 68.721701 0l299.235223-171.861143c21.276421-12.174209 34.41774-34.759072 34.41774-59.221267v-68.607924l-85.560794-51.882609-451.469721 274.20414v0.113777z m502.612775-556.657159l-81.919909-47.103948-171.690476 104.277218 288.028125 174.933139V341.333523c0-24.462195-13.08443-46.99017-34.41774-59.164379z" fill="#3B82FE" p-id="16566"></path></svg>