<?xml version="1.0" standalone="no"?><!DOCTYPE svg PUBLIC "-//W3C//DTD SVG 1.1//EN" "http://www.w3.org/Graphics/SVG/1.1/DTD/svg11.dtd"><svg t="1706000568875" class="icon" viewBox="0 0 1024 1024" version="1.1" xmlns="http://www.w3.org/2000/svg" p-id="10637" xmlns:xlink="http://www.w3.org/1999/xlink" width="48" height="48"><path d="M749.3 79.4H601.1l236.8 398.4c9.6 17.3 9.7 38.2 0.3 55.6L607 943.6h148.1c16.2 0 30.9-8.5 39.1-22.5l218.9-373.6c12.4-22.3 11.9-49.5-1.1-71.4L788.3 101.5c-8.2-13.7-23-22.1-39-22.1z m0 0" fill="#2259E3" p-id="10638"></path><path d="M591.8 79.4h148.4l-237 398.4c-9.6 17.3-9.7 38.2-0.3 55.6l231.2 410.2H586c-16.1 0-31-8.5-39.1-22.5L328.1 547.5c-12.4-22.3-12-49.5 1.1-71.4l223.7-374.7c8.2-13.6 23-22 38.9-22z m0 0" fill="#2082EF" p-id="10639"></path><path d="M273.7 79.4h148.4L185 477.8c-9.6 17.3-9.6 38.2-0.3 55.6l231.2 410.2h-148c-16.1 0-31-8.5-39.1-22.5L9.8 547.5c-12.4-22.3-11.9-49.5 1.1-71.4l223.7-374.7c8.3-13.6 23.1-22 39.1-22z m0 0" fill="#F12621" p-id="10640"></path></svg>