<svg width="180" height="180" xmlns="http://www.w3.org/2000/svg" xmlns:xlink="http://www.w3.org/1999/xlink"><defs><linearGradient x1="24.557%" y1="-4.808%" x2="61.128%" y2="95.639%" id="b"><stop stop-color="#00B6FF" offset="0%"/><stop stop-color="#007FFF" offset="69.663%"/><stop stop-color="#0065FF" offset="100%"/></linearGradient><path d="M48.674 0h82.652c16.925 0 23.063 1.762 29.25 5.071 6.188 3.31 11.044 8.165 14.353 14.353C178.238 25.61 180 31.749 180 48.674v82.652c0 16.925-1.762 23.063-5.071 29.25-3.31 6.188-8.165 11.044-14.353 14.353-6.187 3.309-12.325 5.071-29.25 5.071H48.674c-16.925 0-23.063-1.762-29.25-5.071-6.188-3.31-11.044-8.165-14.353-14.353C1.762 154.39 0 148.251 0 131.326V48.674c0-16.925 1.762-23.063 5.071-29.25C8.381 13.236 13.236 8.38 19.424 5.07 25.61 1.762 31.749 0 48.674 0Z" id="a"/></defs><g fill="none" fill-rule="evenodd"><mask id="c" fill="#fff"><use xlink:href="#a"/></mask><use fill="url(#b)" xlink:href="#a"/><path d="M131.622 84.035c-21.997-16.99-46.797-39.499-73.985-63.631-2.143-1.902-4.044-1.153-5 1.372-6.122 16.19-.187 30.565 9.409 38.853 9.634 8.322 23.96 15.98 32.736 20.047.342.158.042.66-.303.509-16.121-7.106-27.331-12.237-42.539-23.971-1.637-1.264-3.296-.774-3.494 1.693-1.244 15.474 8.653 27.628 19.702 31.738 6.836 2.543 14.313 3.95 21.25 4.788.362.043.281.579-.082.58-8.941.028-19.741-2.114-29.085-5.707-1.974-.76-2.655.816-2.35 2.064 1.594 6.539 9.677 16.534 22.544 18.635 2.406.392 4.972.443 7.255.376.544-.016.675.284.5.703 0 0-8.741 14.983-9.124 15.622-.299.498-.115.898.505.898h11.534c.532 0 .86.345.588.798-.273.453-15.401 25.553-16.118 26.752-.623 1.04.113 1.84 1.282.984 1.17-.856 49.518-36.27 50.899-37.283.633-.465.482-1.095-.406-1.095h-10.346c-.673 0-.823-.452-.362-.912.461-.46 11.739-11.708 15.744-15.916 4.178-4.39 6.31-12.441-.754-17.897" fill="#FFF" mask="url(#c)"/></g></svg>