<?xml version="1.0" standalone="no"?><!DOCTYPE svg PUBLIC "-//W3C//DTD SVG 1.1//EN" "http://www.w3.org/Graphics/SVG/1.1/DTD/svg11.dtd"><svg t="1706000669137" class="icon" viewBox="0 0 1024 1024" version="1.1" xmlns="http://www.w3.org/2000/svg" p-id="14632" xmlns:xlink="http://www.w3.org/1999/xlink" width="48" height="48"><path d="M510.494118 701.741176c-12.047059 0-25.6-3.011765-36.141177-10.541176L30.117647 417.129412c-18.070588-12.047059-30.117647-31.623529-30.117647-52.705883s10.541176-40.658824 30.117647-52.705882L477.364706 39.152941c19.576471-12.047059 43.670588-12.047059 63.247059 0l450.258823 271.058824c18.070588 10.541176 30.117647 30.117647 30.117647 51.2s-10.541176 40.658824-27.105882 52.705882c0 0-1.505882 0-1.505882 1.505882l-75.294118 46.682353c-21.082353 13.552941-49.694118 6.023529-63.247059-15.058823-13.552941-21.082353-6.023529-49.694118 15.058824-63.247059l34.635294-21.082353L508.988235 126.494118l-391.529411 237.929411 393.035294 240.941177 61.741176-39.152941c21.082353-13.552941 49.694118-7.529412 63.247059 15.058823 13.552941 21.082353 7.529412 49.694118-15.058824 63.247059l-73.788235 45.176471c-10.541176 7.529412-22.588235 12.047059-36.141176 12.047058z" fill="#FF2824" p-id="14633"></path><path d="M515.011765 993.882353c-10.541176 0-21.082353-3.011765-31.62353-9.035294l-450.258823-271.058824c-18.070588-10.541176-30.117647-30.117647-30.117647-51.2s10.541176-40.658824 27.105882-52.705882l1.505882-1.505882 72.282353-43.670589c21.082353-13.552941 49.694118-6.023529 63.247059 15.058824 13.552941 21.082353 6.023529 49.694118-15.058823 63.247059l-30.117647 18.070588 393.035294 236.423529 390.023529-237.929411-391.529412-239.435295-66.258823 39.152942c-21.082353 13.552941-49.694118 6.023529-63.247059-15.058824s-6.023529-49.694118 15.058824-63.247059l78.305882-46.682353c21.082353-13.552941 48.188235-13.552941 69.270588 0l445.741177 271.058824c18.070588 12.047059 30.117647 31.623529 30.117647 52.705882s-10.541176 40.658824-30.117647 52.705883L546.635294 984.847059c-9.035294 6.023529-21.082353 9.035294-31.623529 9.035294z" fill="#FF2824" p-id="14634"></path></svg>