<?xml version="1.0" standalone="no"?><!DOCTYPE svg PUBLIC "-//W3C//DTD SVG 1.1//EN" "http://www.w3.org/Graphics/SVG/1.1/DTD/svg11.dtd"><svg t="1706000644379" class="icon" viewBox="0 0 1024 1024" version="1.1" xmlns="http://www.w3.org/2000/svg" p-id="13558" xmlns:xlink="http://www.w3.org/1999/xlink" width="48" height="48"><path d="M432.74 251.79L592 410.88l-64.59 65.59-159.8-159.62c-4.77-4.77-12.29-5.11-17.46-1.02l-1.15 1.02-186.05 185.86c-4.77 4.77-5.11 12.28-1.02 17.44l1.02 1.15 186.06 185.86c4.77 4.77 12.29 5.11 17.46 1.02l1.15-1.02 182.96-182.78 0.13 0.05 1.77-1.94 1.2-1.18 0.58-0.75 78.68-85.39 71.96-71.84c41.1-41.06 107.75-41.06 148.85 0l74.42 74.34c41.1 41.06 41.1 107.63 0 148.69l-74.42 74.34c-41.1 41.06-107.75 41.06-148.85 0l-50.54-50.5 65.11-65.04 50.56 50.49c4.77 4.77 12.29 5.11 17.46 1.02l1.15-1.02 74.42-74.34c4.77-4.77 5.11-12.28 1.02-17.44l-1.02-1.15-74.42-74.34c-4.77-4.77-12.29-5.11-17.46-1.02l-1.15 1.02-68.91 68.8-0.24 0.01-3.07 3.29-2.21 2.24-0.92 1.1-89.5 96.1-172.44 172.3c-41.1 41.06-107.75 41.06-148.85 0L97.83 586.34c-41.1-41.06-41.1-107.63 0-148.69l186.06-185.86c41.1-41.05 107.74-41.05 148.85 0z" fill="#FF4906" p-id="13559"></path></svg>