<svg width="24" height="26.5" viewBox="0 0 48 53" fill="none"><path d="M24.146 11.559l-9.952 2.662C4.94 16.728-.556 26.231 1.887 35.502l3.828 14.346a2.483 2.483 0 003.002 1.767c3.305-.826 8.451-2.126 8.782-2.295l15.607-4.178c9.265-2.494 14.776-12.002 12.335-21.281-2.509-9.258-12.022-14.754-21.295-12.303z" fill="#FF6880"/><path fill-rule="evenodd" clip-rule="evenodd" d="M8.12 52.992a3.81 3.81 0 01-3.672-2.81L.633 35.838c-2.65-9.966 3.265-20.199 13.225-22.874l9.952-2.658a18.683 18.683 0 119.64 36.1l-15.552 4.159c-.413.147-1.873.56-8.869 2.295a3.667 3.667 0 01-.909.133zm16.36-40.176l-9.952 2.663C5.954 17.779.861 26.588 3.144 35.167l3.824 14.345c.17.623.805.997 1.432.845 7.014-1.758 8.346-2.144 8.584-2.226.057-.024.115-.044.175-.06l15.63-4.182a16.082 16.082 0 10-8.309-31.073z" fill="#000"/><rect x="3.886" y="9.667" width="18.082" height="18.21" rx="6.301" transform="rotate(-14.97 3.886 9.667)" fill="#fff"/><path fill-rule="evenodd" clip-rule="evenodd" d="M5.114 18.811a10.278 10.278 0 009.878 7.602c.89 0 1.776-.117 2.635-.349 5.452-1.463 8.69-7.063 7.24-12.518l-.033-.124c-1.465-5.45-7.064-8.686-12.518-7.234-5.44 1.47-8.672 7.056-7.234 12.504l.032.12zm3.621-7.525a7.873 7.873 0 016.221-3.079 7.873 7.873 0 017.593 5.812l.032.12a7.868 7.868 0 01-5.564 9.64A7.882 7.882 0 017.4 18.214l-.032-.124a7.872 7.872 0 011.367-6.805z" fill="#000"/><rect x="22.568" y="4.671" width="18.082" height="18.21" rx="6.301" transform="rotate(-14.97 22.568 4.67)" fill="#fff"/><path fill-rule="evenodd" clip-rule="evenodd" d="M23.791 13.835a10.241 10.241 0 009.879 7.584c.886-.003 1.769-.12 2.626-.35 5.446-1.469 8.68-7.064 7.234-12.517l-.032-.124a10.223 10.223 0 00-19.739 5.283l.032.124zm3.604-7.554a7.854 7.854 0 016.234-3.077 7.9 7.9 0 017.62 5.82l.032.12a7.886 7.886 0 01-5.563 9.64 7.868 7.868 0 01-9.64-5.564l-.032-.12a7.854 7.854 0 011.349-6.819z" fill="#000"/><path d="M35.884 15.483c-.25.001-.498-.054-.725-.16l-4.866-2.296a1.694 1.694 0 01-.583-2.62l3.213-3.875a1.699 1.699 0 112.617 2.167l-1.837 2.19 2.892 1.376a1.699 1.699 0 01-.725 3.214l.014.004zM14.387 21.253a1.703 1.703 0 01-1.377-2.671l1.836-2.621-2.663-.992a1.7 1.7 0 011.19-3.186l4.714 1.758a1.699 1.699 0 01.776 2.562l-3.08 4.42c-.319.457-.84.73-1.396.73zM28.176 34.3a6.179 6.179 0 01-5.967-4.59 1.34 1.34 0 112.589-.694 3.484 3.484 0 006.413.859 3.438 3.438 0 00.349-2.645 1.34 1.34 0 112.588-.693 6.17 6.17 0 01-5.967 7.763h-.005z" fill="#000"/></svg>