<svg width="24.237623762376238" height="24" viewBox="0 0 102 101" fill="none"><path d="M83.493 100.751H18.508c-9.89-.009-17.912-8.01-17.94-17.893v-64.93C.576 8.031 8.603.01 18.507 0h64.985c9.904.01 17.931 8.03 17.94 17.928v64.93c-.028 9.883-8.05 17.884-17.94 17.893z" fill="#fff"/><path fill-rule="evenodd" clip-rule="evenodd" d="M18.508 100.751h64.985c9.89-.009 17.912-8.01 17.94-17.893v-64.93C101.424 8.031 93.397.01 83.493 0H18.508C8.604.01.577 8.03.568 17.928v64.93c.028 9.883 8.05 17.884 17.94 17.893zM1.328 17.928C1.338 8.449 9.022.766 18.508.752h64.984c9.49.01 17.179 7.694 17.189 17.176v64.93c-.015 9.478-7.703 17.158-17.189 17.167H18.508c-9.485-.009-17.17-7.69-17.18-17.167v-64.93z" fill="#DDD"/><path d="M101.433 77.596L.567 82.866V23.19l100.866-5.262v59.668z" fill="#FF373C"/><path d="M28.053 40.03v-6.092l-13.8-1.253v6.1l13.8 1.244zM14.254 43.001v6.1l13.8 1.253v-6.1l-13.8-1.253zM49.608 58.916l-38.95 2.03v-5.46l38.95-2.039v5.47zM91.3 56.739l-38.95 2.03v-5.46l38.95-2.04v5.47zM89.138 34.24l-28.342 1.478v-5.46l28.342-1.487v5.47z" fill="#fff"/><path d="M38.826 30.033l-6.208.32c-.155 12.329-.328 19.275-2.594 24.243-2.265 4.968-7.072 9.21-16.66 17.53-.407.338-.813.7-1.237 1.063l9.77-.51c15.96-14.04 16.583-17.09 16.93-42.646zM43.582 61.958l-7.479.388 6.01 9.288 7.487-.397-6.018-9.28zM85.334 59.78l-7.487.389 6.017 9.28 7.48-.39-6.01-9.279zM65.871 60.791l-7.487.398-6.018 9.9 7.488-.388 6.017-9.91zM74.95 69.915l-6.347.328V49.352l6.347-.337v20.9zM83.433 29.039v3.836c-3.615 3.093-10.912 8.346-31.083 12.787v5.841c24.503-5.262 32.855-12.666 36.789-16.416v-6.316l-5.706.268z" fill="#fff"/><path d="M59.483 33.748l-.77-.527-5.273 3.456 2.593 1.883c4.323 2.964 12.183 8.372 35.25 10.93v-5.84c-20.932-2.429-27.935-7.241-31.8-9.902z" fill="#fff"/><path d="M53.43 36.668l5.334 3.214 6.424-9.858-5.87-2.428-5.888 9.072z" fill="#fff"/></svg>