<svg t="1706064735502" class="icon" viewBox="0 0 1024 1024" version="1.1" xmlns="http://www.w3.org/2000/svg" p-id="22466" width="48" height="48"><path d="M960 797.248V226.784C960 137.248 886.752 64 797.216 64H226.784C137.248 64 64 137.248 64 226.784v570.464c0 88.64 71.808 161.344 160.16 162.752h575.68c88.32-1.408 160.16-74.08 160.16-162.752" fill="#FF2442" p-id="22467"></path><path d="M700.544 384h50.4v18.048c0 1.44 0.704 2.112 2.08 2.08 29.888-0.896 60 0.064 75.424 30.72 9.184 18.176 7.296 45.824 6.784 67.52-0.032 1.28 0.576 1.984 1.792 2.112 3.52 0.32 6.944 0.64 10.272 1.056 59.424 7.136 47.68 63.168 47.872 107.2 0.096 15.36-1.632 26.592-5.12 33.76-7.36 14.848-20.544 23.36-39.552 25.472H813.44l-18.944-43.968a1.44 1.44 0 0 1 0.096-1.344 1.376 1.376 0 0 1 1.152-0.64l40.192-0.032c2.24 0 4.352-0.96 5.888-2.624a8.896 8.896 0 0 0 2.368-6.176c-0.192-13.44-0.288-26.848-0.224-40.256 0-12.064-5.696-18.24-17.184-18.56-12.992-0.32-37.6-0.32-73.856 0.064-1.28 0-1.92 0.704-1.92 2.08l-0.192 111.456H700.48l-0.16-111.936a1.984 1.984 0 0 0-1.952-2.048h-47.04a2.24 2.24 0 0 1-2.176-2.24l0.064-48.704c0-1.632 0.768-2.464 2.304-2.464l46.496 0.096a2.208 2.208 0 0 0 1.6-0.704 2.432 2.432 0 0 0 0.64-1.664v-42.112a2.784 2.784 0 0 0-2.688-2.848l-28.704 0.128c-1.504 0-2.24-0.8-2.24-2.368l-0.096-48.96c0-1.44 0.64-2.144 2.08-2.144h29.728c1.28 0 1.92-0.64 1.92-2.016l0.32-17.984z m52.192 120.736l31.264-0.064c0.512 0 0.992-0.224 1.344-0.608a2.016 2.016 0 0 0 0.544-1.408l-0.16-39.136c0-3.072-2.24-5.568-4.96-5.568l-25.088 0.064a4.704 4.704 0 0 0-3.52 1.664 5.984 5.984 0 0 0-1.44 4l0.16 39.136c0 1.088 0.864 1.92 1.856 1.92zM429.344 508.256c-12.16 0.224-34.144 3.616-38.944-12.032-2.912-9.344 3.68-22.368 7.68-31.488 11.392-25.952 22.56-52 33.536-78.144 0.448-1.056 1.216-1.6 2.304-1.6h48.096c0.416 0 0.768 0.224 0.96 0.576a1.28 1.28 0 0 1 0.128 1.152l-27.84 65.056c-0.64 1.504-0.48 3.2 0.352 4.608a4.544 4.544 0 0 0 3.84 2.176h41.216c0.512 0 0.96 0.256 1.248 0.672 0.256 0.448 0.32 0.96 0.096 1.44-11.904 27.744-23.776 55.296-35.616 82.656-1.184 2.72-1.696 4.736-1.504 6.016 0.416 2.784 1.984 4.192 4.672 4.224l26.08 0.16c1.504 0.032 1.984 0.768 1.376 2.24l-16.864 39.68a3.328 3.328 0 0 1-3.2 2.208c-26.496 0.32-45.024 0.32-55.584-0.16-17.472-0.8-21.76-16.096-14.976-31.872l23.968-55.936a1.216 1.216 0 0 0-0.096-1.088 1.088 1.088 0 0 0-0.96-0.544zM229.504 671.968h-18.88l-18.496-43.424a1.408 1.408 0 0 1 0.096-1.312 1.28 1.28 0 0 1 1.088-0.64l26.112-0.064a6.112 6.112 0 0 0 5.984-6.24l0.704-230.304a2.24 2.24 0 0 1 2.208-2.304h44.928c2.112 0 3.168 1.12 3.2 3.328 0.192 77.984 0.192 154.624 0 229.952-0.128 30.912-14.464 52.032-46.944 51.008z" fill="#FFFFFF" p-id="22468"></path><path d="M650.944 671.968h-170.432l22.848-51.52a3.04 3.04 0 0 1 2.976-1.952l41.728 0.064c1.472 0 2.24-0.736 2.24-2.24v-156.32c0-1.344-0.64-2.016-1.92-2.016l-27.68-0.032c-1.248 0-2.24-1.088-2.24-2.4v-50.144c0-0.768 0.576-1.408 1.312-1.408h112.832c1.408 0 2.08 0.736 2.08 2.208l0.064 49.6c0 1.44-0.704 2.176-2.112 2.176h-27.904c-1.28 0-1.92 0.672-1.92 2.016v156.224c0 1.504 0.736 2.24 2.144 2.24l44.224 0.096c1.216 0 1.824 0.64 1.824 1.92L650.944 672zM853.92 408.864c34.816-23.936 59.328 37.088 21.184 47.552-6.208 1.728-16.096 1.824-29.632 0.32-1.216-0.128-1.792-0.8-1.792-2.08-0.192-14.4-3.04-36.672 10.24-45.76zM373.312 588.288l-23.04 53.664c-2.08 4.8-4.352 4.896-6.88 0.384-16.96-30.656-22.72-55.68-26.048-93.792-2.56-29.6-4.768-59.2-6.688-88.864-0.064-1.344 0.544-2.016 1.824-2.016l46.688 0.032c1.312 0 2.048 0.704 2.144 2.048 2.4 34.496 4.928 68.896 7.552 103.2 0.672 8.832 2.176 16.16 4.48 21.984a4.16 4.16 0 0 1-0.032 3.36zM128 586.304v-2.208a22.592 22.592 0 0 0 4.16-10.112c3.456-38.08 6.272-76.128 8.48-114.208 0.096-1.184 0.672-1.792 1.792-1.792h47.68c0.416 0 0.832 0.192 1.152 0.544 0.288 0.32 0.448 0.768 0.416 1.216a6351.04 6351.04 0 0 1-8.416 105.184c-2.24 25.44-10.368 59.488-27.36 80.128-1.088 1.312-2.016 1.184-2.72-0.416L128 586.304zM453.184 671.968h-69.056l-8.8-3.488c-1.248-0.48-1.6-1.344-1.024-2.592l21.664-49.6c0.64-1.44 1.664-1.984 3.136-1.6 23.68 6.432 51.104 3.776 75.328 3.872 1.504 0.032 1.92 0.768 1.28 2.176l-22.528 51.2z" fill="#FFFFFF" p-id="22469"></path></svg>