<svg width="32" height="32" viewBox="0 0 32 32" fill="none" xmlns="http://www.w3.org/2000/svg">
<path fill-rule="evenodd" clip-rule="evenodd" d="M22.3695 6.07899C22.2284 5.94794 22.0093 5.95709 21.8746 6.09467L13.4271 14.7203C13.3605 14.7883 13.3233 14.8796 13.3233 14.9747V15.012C13.3233 15.1088 13.3619 15.2016 13.4305 15.2699L13.4429 15.2822C13.511 15.3499 13.6032 15.3879 13.6992 15.3879H13.7384C13.8344 15.3879 13.9265 15.3499 13.9946 15.2823L17.2267 12.072C17.2972 12.002 17.3933 11.9638 17.4927 11.9665L19.2808 12.0146C19.3734 12.0171 19.4616 12.0549 19.5273 12.1202L20.7866 13.372C20.8553 13.4402 20.8939 13.533 20.8939 13.6298V15.349C20.8939 15.4458 20.8553 15.5386 20.7866 15.6068L12.2454 24.0965C11.8415 24.4979 11.1892 24.4979 10.7853 24.0965C10.378 23.6916 10.378 23.0325 10.7853 22.6276L18.6397 14.8206C18.7084 14.7524 18.747 14.6596 18.747 14.5628V14.5283C18.747 14.4315 18.7084 14.3387 18.6397 14.2705L18.6274 14.2582C18.5593 14.1905 18.4671 14.1524 18.3711 14.1524H18.332C18.2359 14.1524 18.1438 14.1905 18.0757 14.2582L14.8985 17.4161C14.8304 17.4838 14.7383 17.5218 14.6422 17.5218H12.6822C12.5862 17.5218 12.4941 17.4838 12.4259 17.4161L11.2836 16.2807C11.215 16.2124 11.1764 16.1196 11.1764 16.0228V14.0791C11.1764 13.9823 11.215 13.8894 11.2836 13.8212L20.2159 4.94287L21.2666 3.80194C21.4694 3.58175 21.7459 3.47159 22.0223 3.47308C22.2537 3.44678 22.495 3.50566 22.7003 3.66666C24.8254 5.33366 26.4727 7.75974 27.3981 10.6169C28.4633 13.9055 28.5005 17.5438 27.503 20.8626C26.5055 24.1814 24.5404 26.9573 21.9693 28.6795C19.3981 30.4017 16.3939 30.9544 13.5095 30.2359C10.625 29.5173 8.05431 27.5759 6.27044 24.7688C4.48657 21.9618 3.60952 18.4779 3.80067 14.9583C3.99183 11.4386 5.23832 8.12003 7.3108 5.61311C9.119 3.42586 11.4498 1.98488 13.9661 1.4767C14.571 1.35454 15.1122 1.82257 15.1511 2.43845C15.1884 3.03115 14.7446 3.53893 14.164 3.66369C12.0662 4.11444 10.1254 5.32923 8.61417 7.1573C6.85256 9.28819 5.79304 12.109 5.63056 15.1007C5.46809 18.0924 6.21358 21.0537 7.72987 23.4397C9.24616 25.8257 11.4312 27.4759 13.883 28.0866C16.3348 28.6974 18.8884 28.2276 21.0739 26.7637C23.2594 25.2998 24.9297 22.9403 25.7776 20.1194C26.6254 17.2984 26.5938 14.2058 25.6884 11.4106C25.0026 9.29328 23.8505 7.45452 22.3695 6.07899Z" fill="white"/>
</svg>
