<svg width="32" height="32" viewBox="0 0 32 32" fill="none" xmlns="http://www.w3.org/2000/svg">
  <path fill-rule="evenodd" clip-rule="evenodd"
    d="M22.7662 5.60794C22.5496 5.46653 22.2649 5.50165 22.0811 5.68376L12.6446 15.0374C12.5464 15.1347 12.4911 15.2673 12.4911 15.4056V15.4162C12.4911 15.5474 12.5434 15.6732 12.6365 15.7658V15.7658C12.7289 15.8575 12.8538 15.909 12.9839 15.909H12.9979C13.137 15.909 13.2704 15.854 13.3691 15.756L17.4628 11.69C17.5724 11.5812 17.7217 11.522 17.876 11.5261L20.0857 11.5856C20.2295 11.5895 20.3665 11.6481 20.4686 11.7496L22.0253 13.2969C22.1319 13.4029 22.1919 13.5471 22.1919 13.6974V15.818C22.1919 15.9684 22.1319 16.1126 22.0252 16.2186L11.8529 26.3254C11.3354 26.8396 10.4998 26.8395 9.9823 26.3252C9.46024 25.8063 9.46033 24.9616 9.98251 24.4428L19.2878 15.1977C19.3858 15.1003 19.4409 14.9679 19.4409 14.8297V14.8188C19.4409 14.6876 19.3886 14.5618 19.2955 14.4693V14.4693C19.2032 14.3775 19.0783 14.326 18.9481 14.326H18.9342C18.7951 14.326 18.6616 14.381 18.563 14.4791L14.5385 18.4792C14.4327 18.5844 14.2896 18.6434 14.1404 18.6434H11.7105C11.5613 18.6434 11.4182 18.5844 11.3124 18.4792L9.90674 17.082C9.8001 16.976 9.74013 16.8319 9.74013 16.6815V14.2795C9.74013 14.1254 9.80315 13.9779 9.91458 13.8714L19.8957 4.32789L21.2487 2.8587C21.4292 2.66271 21.6556 2.53524 21.8957 2.47702C22.1882 2.38015 22.515 2.39262 22.8161 2.54546C25.7357 4.02733 28.1048 6.42759 29.5457 9.39454C31.1827 12.7649 31.5043 16.6245 30.4478 20.2194C29.3913 23.8143 27.0326 26.8861 23.8324 28.835C20.6323 30.7838 16.8205 31.4696 13.1417 30.7584C9.46296 30.0473 6.18145 27.9902 3.93822 24.989C1.69499 21.9878 0.65117 18.2581 1.01067 14.5285C1.37017 10.7989 3.10716 7.33733 5.88233 4.81988C8.32531 2.60378 11.4183 1.25948 14.6798 0.972519C15.4171 0.907644 16.0177 1.51462 16.0168 2.25481C16.0159 2.995 15.4133 3.58679 14.6773 3.66587C12.084 3.94453 9.63203 5.03743 7.68328 6.8052C5.40208 8.87454 3.97428 11.72 3.67877 14.7857C3.38326 17.8515 4.24128 20.9172 6.08522 23.3842C7.92915 25.8512 10.6266 27.5421 13.6505 28.1267C16.6745 28.7113 19.8077 28.1476 22.4383 26.5456C25.0688 24.9437 27.0077 22.4186 27.8761 19.4636C28.7445 16.5086 28.4801 13.336 27.1346 10.5656C26.148 8.53415 24.6321 6.82592 22.7662 5.60794Z"
    fill="currentColor" />
</svg>