<svg xmlns="http://www.w3.org/2000/svg" width="32" height="32" viewBox="0 0 24 24"><g fill="currentColor"><path d="M5.636 5.636a1 1 0 0 0-1.414-1.414c-4.296 4.296-4.296 11.26 0 15.556a1 1 0 0 0 1.414-1.414a9 9 0 0 1 0-12.728zm14.142-1.414a1 1 0 1 0-1.414 1.414a9 9 0 0 1 0 12.728a1 1 0 1 0 1.414 1.414c4.296-4.296 4.296-11.26 0-15.556zM8.464 8.464A1 1 0 0 0 7.05 7.05a7 7 0 0 0 0 9.9a1 1 0 0 0 1.414-1.414a5 5 0 0 1 0-7.072zM16.95 7.05a1 1 0 1 0-1.414 1.414a5 5 0 0 1 0 7.072a1 1 0 0 0 1.414 1.414a7 7 0 0 0 0-9.9zM11 12a1 1 0 1 1 2 0a1 1 0 0 1-2 0zm1-3a3 3 0 1 0 0 6a3 3 0 0 0 0-6z"/></g></svg>