<?xml version="1.0" standalone="no"?><!DOCTYPE svg PUBLIC "-//W3C//DTD SVG 1.1//EN" "http://www.w3.org/Graphics/SVG/1.1/DTD/svg11.dtd"><svg t="1635494339161" class="icon" viewBox="0 0 1194 1024" version="1.1" xmlns="http://www.w3.org/2000/svg" p-id="11221" width="74.625" height="64" xmlns:xlink="http://www.w3.org/1999/xlink"><defs><style type="text/css"></style></defs><path d="M1110.189521 84.477146v627.87068h-1027.42475v-627.87068zM1118.180602 0H76.486065A76.486065 76.486065 0 0 0 0 76.486065v642.140468a76.486065 76.486065 0 0 0 76.486065 76.486065H553.667781v144.410256H356.744705a42.238573 42.238573 0 0 0 0 84.477146h479.464883a42.238573 42.238573 0 0 0 0-84.477146h-198.06466v-144.410256h480.035674a76.486065 76.486065 0 0 0 76.486065-76.486065V76.486065A76.486065 76.486065 0 0 0 1118.180602 0z" fill="#5E5C5C" p-id="11222"></path></svg>