<svg width="30" height="32" viewBox="0 0 30 32" fill="none" xmlns="http://www.w3.org/2000/svg">
<g clip-path="url(#clip0_196_8)">
<path d="M9.93334 22.2933C10.104 21.5965 10.3636 20.9244 10.7049 20.3022C8.93778 19.0471 7.78578 16.9813 7.78578 14.6489C7.78578 10.8231 10.8898 7.71912 14.7156 7.71912C18.5413 7.71912 21.6453 10.8231 21.6453 14.6489C21.6453 15.3991 21.5244 16.1209 21.3075 16.7964C22.7582 17.4578 23.992 18.528 24.8417 19.8649C25.8871 19.9253 26.9004 20.2453 27.7857 20.7929C28.664 18.9297 29.1546 16.8462 29.1546 14.6524C29.1546 6.68087 22.6906 0.216873 14.7191 0.216873C6.74756 0.216873 0.279999 6.67734 0.279999 14.6489C0.279999 19.6196 2.79375 24.0036 6.616 26.5991C6.83644 24.672 8.10578 23.008 9.93334 22.2933Z" fill="#4795F4"/>
<path d="M29.5707 25.2764C29.1973 22.6417 26.9502 20.6009 24.2231 20.5617C23.3733 19.1182 22.0613 18.0409 20.5396 17.4613C20.1129 17.2978 19.672 17.1804 19.2169 17.0986C18.8009 17.024 18.3813 16.9742 17.9511 16.9742C14.4773 16.9742 11.5298 19.3849 10.8293 22.7484C9.03734 23.3458 7.73956 25.0347 7.73956 27.0258C7.73956 29.5111 9.76269 31.5378 12.248 31.5378C13.144 31.5378 13.9973 31.2782 14.7369 30.7876C15.7324 31.2782 16.8347 31.5378 17.9511 31.5378C19.1102 31.5378 20.2587 31.2569 21.2827 30.7271C22.1431 31.2569 23.1209 31.5377 24.1449 31.5377C27.0107 31.5377 29.368 29.3298 29.6062 26.5244C29.6204 26.368 29.6311 26.208 29.6311 26.048C29.6347 25.7849 29.6098 25.5289 29.5707 25.2764Z" fill="#E5E5E5"/>
</g>
<defs>
<clipPath id="clip0_196_8">
<rect width="30" height="32" fill="white"/>
</clipPath>
</defs>
</svg>
