<svg xmlns="http://www.w3.org/2000/svg" width="32" height="32" viewBox="0 0 24 24"><path fill="currentColor" d="M7.975 18.25q-.25-.725-.462-1.475t-.338-1.5l-1.175.8v2.975zM11.65 4.875q-1.2 1.275-1.925 3.363T9 12.625q0 1.5.275 2.938T10 18h4q.45-1 .725-2.437T15 12.625q0-2.3-.725-4.387T12.35 4.875q-.075-.075-.162-.112T12 4.725t-.187.038t-.163.112M12 13q-.825 0-1.412-.587T10 11t.588-1.412T12 9t1.413.588T14 11t-.587 1.413T12 13m4.025 5.25l1.975.8v-2.975l-1.175-.8q-.125.75-.337 1.5t-.463 1.475M12.775 2.6q2.1 1.8 3.163 4.425T17 13l2.1 1.4q.425.275.663.725t.237.95v4.45q0 .525-.437.825t-.938.1l-3.6-1.45h-6.05l-3.6 1.45q-.5.2-.937-.1T4 20.525v-4.45q0-.5.238-.95T4.9 14.4L7 13q0-3.35 1.063-5.975T11.224 2.6q.175-.125.375-.2t.4-.075t.4.075t.375.2"/></svg>
