<svg width="38" height="38" viewBox="0 0 38 38" fill="none" xmlns="http://www.w3.org/2000/svg">
<rect width="38" height="38" rx="4" fill="#23272F"/>
<g clip-path="url(#clip0_739_39)">
<path d="M18.9998 22.0476C20.6829 22.0476 22.0474 20.6832 22.0474 19C22.0474 17.3169 20.6829 15.9524 18.9998 15.9524C17.3166 15.9524 15.9521 17.3169 15.9521 19C15.9521 20.6832 17.3166 22.0476 18.9998 22.0476Z" fill="#58C4DC"/>
<path d="M18.9998 25.8572C27.4156 25.8572 34.2379 22.7872 34.2379 19.0001C34.2379 15.213 27.4156 12.1429 18.9998 12.1429C10.584 12.1429 3.76172 15.213 3.76172 19.0001C3.76172 22.7872 10.584 25.8572 18.9998 25.8572Z" stroke="#58C4DC" stroke-width="1.52381"/>
<path d="M13.0615 22.4286C17.2693 29.7169 23.3393 34.0902 26.619 32.1966C29.8987 30.3031 29.1463 22.8597 24.9384 15.5715C20.7305 8.28319 14.6606 3.9099 11.3809 5.80345C8.10116 7.697 8.85358 15.1403 13.0615 22.4286Z" stroke="#58C4DC" stroke-width="1.52381"/>
<path d="M13.0616 15.5715C8.85377 22.8598 8.10134 30.3031 11.3811 32.1966C14.6608 34.0902 20.7307 29.7169 24.9386 22.4286C29.1465 15.1404 29.8989 7.69703 26.6192 5.80348C23.3394 3.90994 17.2695 8.28322 13.0616 15.5715Z" stroke="#58C4DC" stroke-width="1.52381"/>
</g>
<defs>
<clipPath id="clip0_739_39">
<rect width="32" height="32" fill="white" transform="translate(3 3)"/>
</clipPath>
</defs>
</svg>
