<svg xmlns="http://www.w3.org/2000/svg" xmlns:xlink="http://www.w3.org/1999/xlink" height="10" width="10">
  <path style="fill:#e5a600" d="M165 10c-2.76 0-5-2.24-5-5s2.24-5 5-5 5 2.24 5 5-2.24 5-5 5z" transform="translate(-160)" />
  <path style="fill:#ffbd00" d="M169.5 5c0 2.49-2.01 4.5-4.5 4.5s-4.5-2.01-4.5-4.5S162.51.5 165 .5s4.5 2.01 4.5 4.5z" transform="translate(-160)" />
  <path style="fill:url(#m)" d="M165.03.53c1.97 0 3.56 1.02 3.56 2.28 0 1.26-1.59 2.28-3.56 2.28s-3.56-1.02-3.56-2.28c0-1.26 1.59-2.28 3.56-2.28z" transform="translate(-160)" />
  <path style="fill:url(#n)" d="M164.99 9.42c1.66 0 3-.71 3-1.59 0-.88-1.34-1.59-3-1.59s-3 .71-3 1.59c0 .88 1.34 1.59 3 1.59z" transform="translate(-160)" />
  <defs>
    <linearGradient id="o">
      <stop offset="0" stop-opacity="0" stop-color="#ffa801" />
      <stop offset="1" stop-color="#f0fb3d" />
    </linearGradient>
    <linearGradient id="p">
      <stop offset="0" stop-opacity=".65" stop-color="#ffbd00" />
      <stop offset="1" stop-opacity=".91" stop-color="#fff" />
    </linearGradient>
    <linearGradient xlink:href="#o" gradientUnits="userSpaceOnUse" gradientTransform="matrix(0 .43966 .78049 0 84.444 -93.924)" y2="103.16" y1="103.16" x2="235.12" x1="227.88" id="n" />
    <linearGradient xlink:href="#p" gradientUnits="userSpaceOnUse" gradientTransform="matrix(0 -.62931 .92683 0 69.47 148.53)" y2="103.16" y1="103.16" x2="235.12" x1="227.88" id="m" />
  </defs>
</svg>
