<svg width="32" height="32" viewBox="0 0 32 32" fill="none" xmlns="http://www.w3.org/2000/svg">
<path d="M1.08116 6.64491C1.25865 6.3343 1.41225 6.00577 1.61876 5.71563C3.42015 3.18294 5.80521 1.5343 8.92244 1.14177C11.7333 0.787632 14.1227 1.67851 15.8899 3.94497C17.0581 5.44427 17.3517 7.18763 16.9625 9.03169C16.506 11.2034 15.3105 12.9033 13.5185 14.1739C12.4177 14.9538 11.2631 15.6561 10.1384 16.4019C8.68777 17.3662 7.44618 18.5301 6.68756 20.1353C5.68233 22.2626 5.71476 24.4173 6.60906 26.5574C7.48543 28.6524 8.99839 30.0877 11.1966 30.749C11.3621 30.7985 11.5311 30.8343 11.6949 30.8983C10.7037 30.9493 9.70995 30.875 8.73727 30.6773C7.18591 30.371 5.72415 29.836 4.49535 28.8154C2.78868 27.398 1.6162 25.6154 1.23988 23.4138C0.761161 20.6182 1.35764 18.0309 3.09588 15.7645C3.99871 14.5877 4.99625 13.4818 5.93919 12.3341C6.57492 11.5601 7.0818 10.7128 7.27807 9.71094C7.60489 8.03329 6.80191 6.43499 5.25737 5.85814C4.06271 5.41355 2.90644 5.62091 1.81759 6.24811C1.58633 6.38038 1.37129 6.54166 1.14943 6.68929L1.08116 6.64491ZM16.7833 13.766C17.5735 13.4187 18.3697 13.0833 19.1531 12.7215C20.323 12.1796 21.4571 11.5832 22.4631 10.7588C22.7328 10.537 22.8634 10.3083 22.8659 9.93963C22.8744 8.75606 23.1424 7.63563 23.8191 6.63894C23.9104 6.50497 24.0264 6.38721 24.1442 6.24641C24.7437 6.7958 25.1581 7.51758 25.3303 8.31232C25.4763 8.99072 25.7877 9.32011 26.4499 9.57953C29.5262 10.7827 30.9154 13.7609 30.7797 16.6997C30.7838 16.7842 30.7564 16.8672 30.7028 16.9327C30.6492 16.9981 30.5732 17.0413 30.4896 17.0539C29.8999 17.1827 29.3103 17.3355 28.7129 17.3952C27.2452 17.5488 25.9712 16.9924 24.7441 16.2577C22.7575 15.0682 20.6302 14.249 18.3279 13.9179C18.0719 13.8803 17.8091 13.8505 17.5479 13.8325C17.2868 13.8146 17.0462 13.8325 16.7944 13.8325L16.7833 13.766Z" fill="#FC8631"/>
<path d="M21.236 28.3238C22.8651 28.4578 24.4318 28.7241 25.2535 30.4572C24.5657 30.7012 16.6417 31.0229 14.2131 30.9154C16.3268 30.1875 17.8765 28.9468 18.548 26.8578C19.2145 24.7842 18.8689 22.8292 17.524 21.1046C15.5247 18.5446 11.0387 17.792 8.08276 20.9715C8.26538 20.3187 8.59476 19.8007 8.9762 19.3212C10.1709 17.8159 11.7879 17.1324 13.6695 17.1025C16.3149 17.0633 18.4482 18.176 20.0695 20.2112C21.5492 22.0663 21.9238 24.2492 21.6166 26.5617C21.5407 27.1479 21.3692 27.7222 21.236 28.3238Z" fill="#FC8631"/>
<path d="M8.24833 24.9506C8.25131 24.3738 8.36856 23.8033 8.59331 23.2721C8.81806 22.7409 9.14584 22.2595 9.55772 21.8557C9.96961 21.4519 10.4574 21.1338 10.993 20.9196C11.5286 20.7054 12.1013 20.5995 12.678 20.608C15.0724 20.6217 17.0078 22.6159 16.9916 25.0522C16.9762 27.4415 14.9794 29.3675 12.538 29.353C10.1752 29.335 8.23468 27.3493 8.24833 24.9506ZM14.569 25.03C14.5781 24.6417 14.4715 24.2594 14.2626 23.9319C14.0538 23.6044 13.7522 23.3465 13.3963 23.1909C13.0403 23.0354 12.6462 22.9893 12.264 23.0586C11.8818 23.1278 11.5288 23.3093 11.2501 23.5798C10.9713 23.8503 10.7794 24.1977 10.6988 24.5776C10.6181 24.9576 10.6524 25.353 10.7972 25.7134C10.942 26.0738 11.1908 26.383 11.5119 26.6015C11.833 26.8201 12.2119 26.9381 12.6003 26.9406C13.1137 26.9447 13.6081 26.7466 13.9765 26.3891C14.3449 26.0315 14.5578 25.5433 14.569 25.03ZM12.7667 15.7568C13.481 15.3028 14.2729 15.1168 15.0887 15.0741C17.9994 14.9086 20.7087 15.5964 23.1561 17.1725C24.8047 18.2349 26.5557 18.9013 28.5159 19.031C29.1388 19.0603 29.7363 19.2865 30.2225 19.677C30.4318 19.8431 30.6025 20.0527 30.7229 20.2912C30.8433 20.5297 30.9104 20.7915 30.9197 21.0586C30.8449 21.0509 30.7707 21.0378 30.6978 21.0193C29.4938 20.6003 28.3273 20.7241 27.1992 21.2753C26.2955 21.7173 25.3636 22.0433 24.3388 21.9913C24.0574 21.9695 23.7777 21.9291 23.5017 21.8701C23.1646 21.8078 22.9564 21.6073 22.7797 21.2992C21.1763 18.5037 18.8817 16.5939 15.6715 15.9428C14.9103 15.7884 14.1116 15.8123 13.3299 15.7602C13.1413 15.744 12.9536 15.7568 12.7667 15.7568Z" fill="#FC8631"/>
</svg>
