<?xml version="1.0" encoding="UTF-8" standalone="no"?>
<!DOCTYPE svg PUBLIC "-//W3C//DTD SVG 1.1//EN" "http://www.w3.org/Graphics/SVG/1.1/DTD/svg11.dtd">
<svg xmlns="http://www.w3.org/2000/svg" version="1.1" viewBox="0.00 0.00 50.00 50.00">
<path fill="#2b9939" d="
  M 44.9682 42.7458
  A 2.29 2.29 0.0 0 1 42.6742 45.0318
  L 6.2542 44.9682
  A 2.29 2.29 0.0 0 1 3.9682 42.6742
  L 4.0318 6.2542
  A 2.29 2.29 0.0 0 1 6.3258 3.9682
  L 42.7458 4.0318
  A 2.29 2.29 0.0 0 1 45.0318 6.3258
  L 44.9682 42.7458
  Z
  M 31.20 32.40
  A 0.35 0.35 0.0 0 1 30.85 32.75
  L 18.15 32.75
  A 0.35 0.35 0.0 0 1 17.80 32.40
  L 17.80 14.78
  A 0.35 0.35 0.0 0 0 17.45 14.43
  L 14.10 14.45
  A 0.35 0.35 0.0 0 0 13.75 14.80
  L 13.75 36.45
  A 0.35 0.35 0.0 0 0 14.10 36.80
  L 34.90 36.81
  A 0.35 0.35 0.0 0 0 35.25 36.46
  L 35.25 14.81
  A 0.35 0.35 0.0 0 0 34.90 14.46
  L 31.55 14.43
  A 0.35 0.35 0.0 0 0 31.20 14.78
  L 31.20 32.40
  Z"
/>
</svg>
