<svg xmlns="http://www.w3.org/2000/svg" width="32" height="32" viewBox="0 0 512 512">
  <path fill="#FF473E"
    d="m330.443 256l136.765-136.765c14.058-14.058 14.058-36.85 0-50.908l-23.535-23.535c-14.058-14.058-36.85-14.058-50.908 0L256 181.557L119.235 44.792c-14.058-14.058-36.85-14.058-50.908 0L44.792 68.327c-14.058 14.058-14.058 36.85 0 50.908L181.557 256L44.792 392.765c-14.058 14.058-14.058 36.85 0 50.908l23.535 23.535c14.058 14.058 36.85 14.058 50.908 0L256 330.443l136.765 136.765c14.058 14.058 36.85 14.058 50.908 0l23.535-23.535c14.058-14.058 14.058-36.85 0-50.908L330.443 256z" />
</svg>
