<?xml version="1.0" standalone="no"?><!DOCTYPE svg PUBLIC "-//W3C//DTD SVG 1.1//EN" "http://www.w3.org/Graphics/SVG/1.1/DTD/svg11.dtd"><svg t="1632724492058" class="icon" viewBox="0 0 1024 1024" version="1.1" xmlns="http://www.w3.org/2000/svg" p-id="5027" xmlns:xlink="http://www.w3.org/1999/xlink" width="128" height="128"><defs><style type="text/css"></style></defs><path d="M510.5423 62.365396c-247.514233 0-448.15695 200.64374-448.15695 448.15695 0 247.521396 200.641693 448.163089 448.15695 448.163089 247.520373 0 448.163089-200.641693 448.163089-448.163089C958.70539 263.009136 758.062674 62.365396 510.5423 62.365396L510.5423 62.365396zM510.5423 225.495754c80.870866 0 146.437164 65.567321 146.437164 146.438187 0 80.891332-65.565275 146.437164-146.437164 146.437164S364.10616 452.824249 364.10616 371.933941C364.10616 291.062052 429.671435 225.495754 510.5423 225.495754L510.5423 225.495754zM766.217401 804.181549c-69.731154 65.36573-160.530137 101.349269-255.6751 101.349269-95.16236 0-185.937806-35.983539-255.627005-101.329826-5.308913-4.974291-8.067746-12.750395-7.05672-19.826558 18.615986-128.446417 110.447485-153.540955 262.684748-153.540955 152.263869 0 244.047272 25.094538 262.670421 153.540955C774.243191 791.450596 771.484358 799.2267 766.217401 804.181549L766.217401 804.181549zM766.217401 804.181549" p-id="5028" fill="#8a8a8a"></path></svg>