<?xml version="1.0" standalone="no"?><!DOCTYPE svg PUBLIC "-//W3C//DTD SVG 1.1//EN" "http://www.w3.org/Graphics/SVG/1.1/DTD/svg11.dtd"><svg class="icon" width="128px" height="128.00px" viewBox="0 0 1024 1024" version="1.1" xmlns="http://www.w3.org/2000/svg"><path fill="#E9994B" d="M585.142857 785.714286v-108.571429q0-8-5.428571-13.428571T566.857143 658.285714H457.142857q-7.428571 0-12.857143 5.428572T438.857143 677.142857v108.571429q0 8 5.428571 13.428571t12.857143 5.428572h109.714286q7.428571 0 12.857143-5.428572t5.428571-13.428571z m-1.142857-213.714286l10.285714-262.285714q0-6.857143-5.714285-10.857143-7.428571-6.285714-13.714286-6.285714H449.142857q-6.285714 0-13.714286 6.285714-5.714286 4-5.714285 12l9.714285 261.142857q0 5.714286 5.714286 9.428571t13.714286 3.714286h105.714286q8 0 13.428571-3.714286t6-9.428571z m-8-533.714286l438.857143 804.571429q20 36-1.142857 72-9.714286 16.571429-26.571429 26.285714t-36.285714 9.714286H73.142857q-19.428571 0-36.285714-9.714286T10.285714 914.857143q-21.142857-36-1.142857-72L448 38.285714q9.714286-17.714286 26.857143-28t37.142857-10.285714 37.142857 10.285714 26.857143 28z" /></svg>
