<svg width="54" height="45" viewBox="0 0 54 45" fill="none" xmlns="http://www.w3.org/2000/svg">
<path d="M-0.0078125 16.4756C-0.0078125 21.4133 2.63218 25.9111 6.73882 28.9422C7.08105 29.1867 7.2766 29.5778 7.2766 30.0178C7.2766 30.1644 7.22771 30.3111 7.22771 30.4578C6.88549 31.68 6.3966 33.6844 6.34772 33.7822C6.29883 33.9289 6.24994 34.1244 6.24994 34.2711C6.24994 34.6133 6.54327 34.9067 6.88549 34.9067C7.03216 34.9067 7.12993 34.8578 7.2766 34.76L11.5299 32.2667C11.8721 32.0711 12.2144 31.9733 12.5566 31.9733C12.7521 31.9733 12.9477 32.0222 13.1432 32.0711C15.1477 32.6578 17.2988 32.9511 19.4988 32.9511C30.2543 32.9511 38.9565 25.5689 38.9565 16.4756C38.9565 7.38222 30.2054 0 19.4499 0C8.69437 0 -0.0078125 7.38222 -0.0078125 16.4756Z" fill="url(#paint0_linear_801_6312)"/>
<path d="M21.3086 28.6978C21.3086 36.2756 28.593 42.3867 37.5396 42.3867C39.3974 42.3867 41.1574 42.1422 42.8196 41.6533C42.9663 41.6045 43.1129 41.6045 43.3085 41.6045C43.6018 41.6045 43.8952 41.7022 44.1885 41.8489L47.7574 43.9511C47.8551 44 47.9529 44.0489 48.0507 44.0489C48.344 44.0489 48.5885 43.8045 48.5885 43.5111C48.5885 43.3645 48.5396 43.2178 48.4907 43.12C48.4907 43.0222 48.0507 41.4089 47.7574 40.3333C47.7085 40.2356 47.7085 40.0889 47.7085 39.9911C47.7085 39.6 47.904 39.3067 48.1485 39.1111C51.5707 36.6178 53.7707 32.9022 53.7707 28.7467C53.7707 21.1689 46.4863 15.0578 37.5396 15.0578C28.593 14.96 21.3086 21.12 21.3086 28.6978Z" fill="url(#paint1_linear_801_6312)"/>
<path d="M32.2605 26.693C31.0871 26.693 30.1094 25.7152 30.1094 24.493C30.1094 23.2707 31.0871 22.293 32.2605 22.293C33.4338 22.293 34.4116 23.2707 34.4116 24.493C34.4116 25.7152 33.4827 26.693 32.2605 26.693Z" fill="#919191"/>
<path d="M43.113 26.693C41.9397 26.693 40.9619 25.7152 40.9619 24.493C40.9619 23.2707 41.9397 22.293 43.113 22.293C44.2863 22.293 45.2641 23.2707 45.2641 24.493C45.2641 25.7152 44.3352 26.693 43.113 26.693Z" fill="#919191"/>
<path d="M12.9466 13.7868C14.3643 13.7868 15.5377 12.6135 15.5377 11.1468C15.5377 9.72906 14.4132 8.50684 12.9466 8.50684C11.5288 8.50684 10.3555 9.68017 10.3555 11.1468C10.3555 12.6135 11.5288 13.7868 12.9466 13.7868Z" fill="#168743"/>
<path d="M25.9993 13.7868C27.4171 13.7868 28.5904 12.6135 28.5904 11.1468C28.5904 9.72906 27.4171 8.50684 25.9993 8.50684C24.5815 8.50684 23.4082 9.68017 23.4082 11.1468C23.4082 12.6135 24.5815 13.7868 25.9993 13.7868Z" fill="#168743"/>
<defs>
<linearGradient id="paint0_linear_801_6312" x1="19.469" y1="34.8564" x2="19.469" y2="0" gradientUnits="userSpaceOnUse">
<stop offset="0.0601963" stop-color="#05CD66"/>
<stop offset="0.2202" stop-color="#0ED169"/>
<stop offset="0.4805" stop-color="#26DB6F"/>
<stop offset="0.8069" stop-color="#4DEB7A"/>
<stop offset="0.9517" stop-color="#61F380"/>
</linearGradient>
<linearGradient id="paint1_linear_801_6312" x1="37.5509" y1="44" x2="37.5509" y2="14.9746" gradientUnits="userSpaceOnUse">
<stop offset="0.0809942" stop-color="#D9D9D9"/>
<stop offset="1" stop-color="#F0F0F0"/>
</linearGradient>
</defs>
</svg>
