<svg xmlns="http://www.w3.org/2000/svg" height="800" width="1200" viewBox="-17.99895 -29.9655 155.9909 179.793"><defs><linearGradient gradientUnits="userSpaceOnUse" gradientTransform="scale(1.00055 .99946)" id="a" y2="120.057" x2="59.964" y1=".456" x1="59.964"><stop offset="0%" stop-color="#02E36F"/><stop offset="100%" stop-color="#07C160"/></linearGradient></defs><g fill-rule="evenodd" fill="none"><path fill="url(#a)" d="M24.607.13C11.072.13 0 11.19 0 24.713V95.41c0 13.52 11.072 24.58 24.607 24.58h70.778c13.464 0 24.495-10.947 24.608-24.372V24.506C119.88 11.08 108.849.13 95.385.13z" transform="translate(0 -.13)"/><path fill="#FFF" d="M108.516 71.355c0-13.473-13.118-24.375-29.297-24.375-16.18 0-29.297 10.902-29.297 24.375 0 13.425 13.117 24.326 29.297 24.375 3.342-.049 6.57-.525 9.61-1.406.224-.06.206-.058.795-.174.59-.115 1.103.174 1.548.408l6.328 3.75c.291.156.464.234.703.234.513 0 .949-.436.938-.937.011-.277-.078-.497-.146-.73-.069-.231-.854-3.09-1.26-4.895-.058-.256-.09-.403-.09-.886 0-.484.25-1.004.793-1.458 6.13-4.364 10.078-10.969 10.078-18.281zM69.26 67.136c-1.956 0-3.636-1.678-3.636-3.863 0-1.958 1.68-3.637 3.636-3.637 2.186 0 3.864 1.68 3.864 3.637 0 2.185-1.678 3.863-3.864 3.863m19.453 0c-1.956 0-3.636-1.678-3.636-3.863 0-1.958 1.68-3.637 3.636-3.637 2.186 0 3.864 1.68 3.864 3.637 0 2.185-1.678 3.863-3.864 3.863"/><path fill="#FFF" d="M11.25 49.324c0 8.73 4.733 16.655 12.188 22.03.549.405.842.867.842 1.643 0 .269-.047.557-.14.936-.623 2.55-1.307 5.468-1.406 5.86-.098.39-.254.65-.234.937-.02.649.504 1.172 1.172 1.172.233 0 .442-.095.703-.235l7.734-4.453c.49-.296 1.04-.449 1.41-.449.372 0 .991.115 1.403.215 3.586.916 7.457 1.49 11.484 1.406a7.84 7.84 0 001.875 0 23.953 23.953 0 01-1.172-7.031c.03-14.81 14.377-26.744 32.11-26.719.608-.025 1.242-.005 1.875 0-2.647-13.933-17.175-24.61-34.688-24.61-19.424 0-35.156 13.085-35.156 29.298zm23.203-4.688a4.687 4.687 0 110-9.375 4.687 4.687 0 110 9.375m23.438 0a4.687 4.687 0 110-9.375 4.688 4.688 0 010 9.375"/></g></svg>