<svg xmlns="http://www.w3.org/2000/svg" width="32" height="32" viewBox="0 0 32 32">
  <!-- Icon from All by undefined - undefined -->
  <path fill="#2188b6"
    d="M28.208 24.409a10.5 10.5 0 0 0-3.959 1.822a23.7 23.7 0 0 1-5.835 2.642a1.63 1.63 0 0 1-.983.55a62 62 0 0 1-6.447.577c-1.163.009-1.876-.3-2.074-.776a1.573 1.573 0 0 1 .866-2.074a4 4 0 0 1-.514-.379c-.171-.171-.352-.514-.406-.388c-.225.55-.343 1.894-.947 2.5c-.83.839-2.4.559-3.328.072c-1.019-.541.072-1.813.072-1.813a.73.73 0 0 1-.992-.343a4.85 4.85 0 0 1-.667-2.949a5.37 5.37 0 0 1 1.749-2.895a9.3 9.3 0 0 1 .658-4.4a10.45 10.45 0 0 1 3.165-3.661S6.628 10.747 7.35 8.817c.469-1.262.658-1.253.812-1.308a3.6 3.6 0 0 0 1.452-.857a5.27 5.27 0 0 1 4.41-1.7S15.2 1.4 16.277 2.09a18.4 18.4 0 0 1 1.533 2.886s1.281-.748 1.425-.469a11.33 11.33 0 0 1 .523 6.132a14 14 0 0 1-2.6 5.411c-.135.225 1.551.938 2.615 3.887c.983 2.7.108 4.96.262 5.212c.027.045.036.063.036.063s1.127.09 3.391-1.308a8.5 8.5 0 0 1 4.277-1.604a1.081 1.081 0 0 1 .469 2.11Z" />
</svg>